<?xml version="1.0" encoding="UTF-8"?>
<svg xmlns="http://www.w3.org/2000/svg" xmlns:xlink="http://www.w3.org/1999/xlink" width="127px" height="126px" viewBox="0 0 126 126" version="1.1">
<g id="surface1">
<path style=" stroke:none;fill-rule:nonzero;fill:rgb(100%,100%,100%);fill-opacity:1;" d="M 93.917969 30.640625 C 94.527344 30.113281 95.339844 29.875 96.140625 29.992188 C 96.925781 30.101562 97.621094 30.5625 98.027344 31.246094 C 98.261719 31.710938 98.390625 32.21875 98.414062 32.738281 C 98.585938 34.769531 98.191406 36.808594 97.28125 38.628906 C 96.851562 39.550781 96.230469 40.371094 95.453125 41.027344 C 94.707031 41.625 93.957031 41.910156 92.71875 41.28125 C 92.550781 42.171875 92.308594 43.046875 91.996094 43.894531 C 91.410156 45.460938 88.339844 50.589844 84.351562 53.03125 C 84.355469 54.289062 84.421875 55.601562 84.84375 56.640625 C 85.742188 58.875 90.617188 61.6875 90.953125 61.832031 C 90.953125 61.832031 88.191406 72.289062 75.140625 72.289062 C 62.089844 72.289062 60.371094 61.832031 60.371094 61.832031 C 60.707031 61.6875 64.816406 59.265625 65.71875 57.035156 C 66.144531 55.984375 66.210938 54.667969 66.214844 53.40625 C 64.28125 52.417969 62.578125 51.035156 61.207031 49.351562 C 59.375 47.125 58.074219 44.507812 57.414062 41.699219 C 56.265625 42.160156 55.40625 41.566406 54.734375 41.03125 C 53.960938 40.371094 53.339844 39.554688 52.910156 38.632812 C 51.996094 36.808594 51.605469 34.769531 51.773438 32.738281 C 51.796875 32.21875 51.929688 31.710938 52.164062 31.246094 C 52.570312 30.566406 53.265625 30.101562 54.050781 29.992188 C 54.851562 29.875 55.664062 30.113281 56.273438 30.644531 C 56.273438 30.644531 55.019531 12.476562 73.742188 12.476562 C 95.257812 12.476562 93.917969 30.640625 93.917969 30.640625 Z M 93.917969 30.640625 "/>
<path style=" stroke:none;fill-rule:nonzero;fill:rgb(56.470591%,54.509807%,54.11765%);fill-opacity:1;" d="M 60.480469 6.007812 C 62.027344 4.058594 64.613281 2.53125 67.214844 1.871094 C 70.167969 1.035156 73.238281 0.703125 76.300781 0.886719 C 82.621094 1.433594 88.804688 4.394531 92.777344 9.339844 C 97.273438 14.9375 98.015625 23.757812 95.785156 29.964844 C 95.105469 29.949219 94.445312 30.1875 93.929688 30.628906 C 93.550781 28.347656 92.441406 25.03125 91.632812 22.820312 C 91.527344 22.4375 91.3125 22.09375 91.015625 21.832031 C 90.625 21.585938 90.183594 21.433594 89.722656 21.386719 C 86.824219 20.898438 85.167969 20.542969 82.207031 20.398438 C 79.019531 20.242188 76.722656 21.742188 73.660156 21.019531 C 71.863281 20.597656 67.847656 18.558594 66.476562 17.542969 C 66.109375 17.273438 65.777344 17.011719 65.46875 16.808594 C 65.101562 16.5625 64.617188 16.328125 64.230469 16.535156 C 64.152344 16.578125 64.082031 16.628906 64.015625 16.6875 C 63.808594 16.855469 63.503906 17.097656 63.3125 17.269531 C 59.03125 20.90625 56.609375 25.996094 56.761719 31.066406 L 56.761719 31.082031 L 56.269531 30.640625 C 55.660156 30.113281 54.847656 29.875 54.046875 29.992188 C 53.757812 30.035156 53.480469 30.125 53.21875 30.257812 C 51.746094 25.707031 51.972656 19.117188 52.996094 15.660156 L 53.273438 14.730469 C 54.339844 11.558594 56.09375 9.21875 58.125 8.070312 Z M 60.480469 6.007812 "/>
<path style=" stroke:none;fill-rule:nonzero;fill:rgb(100%,100%,100%);fill-opacity:1;" d="M 118.523438 125.085938 C 116.8125 101.472656 114.199219 80.890625 112.039062 73.6875 C 111.574219 72.023438 110.605469 70.539062 109.269531 69.441406 C 108.070312 68.550781 106.785156 67.78125 105.433594 67.144531 C 101.542969 65.265625 95.3125 62.769531 91.324219 61.105469 L 87.511719 59.695312 C 86.964844 62.769531 86.027344 66.785156 85.003906 69.570312 C 84.171875 71.847656 81.433594 79.59375 79.566406 84.019531 C 78.164062 87.347656 76.582031 90.59375 74.828125 93.75 C 70.296875 83.433594 64.800781 72.703125 63.371094 59.769531 L 59.214844 61.257812 L 58.738281 61.457031 C 54.726562 63.125 48.585938 65.578125 44.847656 67.386719 C 43.644531 67.933594 42.539062 68.675781 41.582031 69.589844 C 40.523438 70.59375 39.6875 71.804688 39.121094 73.144531 C 36.328125 80.4375 36.039062 83.976562 33.058594 91.546875 C 31.773438 88.492188 30.585938 85.550781 29.265625 82.3125 C 25.347656 84.378906 19.101562 87.238281 15.179688 88.089844 C 17.136719 94.34375 19.097656 101.074219 21.847656 107.335938 C 23.761719 111.6875 26.378906 115.746094 30.976562 116.957031 C 34.46875 117.933594 38.214844 117.246094 41.128906 115.089844 C 43.613281 113.277344 46.347656 109.601562 48.066406 107.425781 L 48.226562 107.234375 C 48.433594 109.867188 48.382812 112.410156 48.382812 115.195312 C 48.382812 118.671875 48.175781 121.242188 48.171875 125.191406 Z M 118.523438 125.085938 "/>
<path style=" stroke:none;fill-rule:nonzero;fill:rgb(100%,100%,100%);fill-opacity:1;" d="M 15.367188 84.15625 C 16.792969 83.632812 23.671875 81.09375 26.523438 79.632812 C 26.828125 80.25 27.457031 81.710938 27.886719 82.605469 L 28.066406 82.933594 C 24.628906 84.675781 20.007812 86.75 16.535156 87.742188 L 16.410156 87.449219 C 15.976562 86.375 15.335938 84.523438 15.195312 84.21875 Z M 15.367188 84.15625 "/>
<path style=" stroke:none;fill-rule:nonzero;fill:rgb(12.941177%,9.019608%,8.235294%);fill-opacity:1;" d="M 60.796875 62.558594 C 61.277344 62.3125 61.742188 62.03125 62.179688 61.710938 C 63.011719 61.160156 63.800781 60.546875 64.546875 59.878906 C 65.292969 59.25 65.914062 58.480469 66.375 57.617188 C 66.992188 56.3125 67.046875 54.808594 67.050781 53.390625 C 67.058594 52.3125 65.378906 52.308594 65.375 53.390625 C 65.382812 54.0625 65.351562 54.734375 65.273438 55.402344 C 65.207031 55.929688 65.0625 56.441406 64.847656 56.925781 C 64.417969 57.660156 63.859375 58.304688 63.195312 58.839844 C 62.5625 59.390625 61.890625 59.902344 61.1875 60.359375 C 60.792969 60.640625 60.378906 60.890625 59.949219 61.109375 C 59.550781 61.34375 59.417969 61.855469 59.648438 62.257812 C 59.886719 62.648438 60.394531 62.78125 60.796875 62.558594 Z M 60.796875 62.558594 "/>
<path style=" stroke:none;fill-rule:nonzero;fill:rgb(12.941177%,9.019608%,8.235294%);fill-opacity:1;" d="M 83.511719 53.378906 C 83.539062 54.796875 83.617188 56.382812 84.40625 57.609375 C 84.992188 58.464844 85.707031 59.222656 86.53125 59.851562 C 87.347656 60.519531 88.203125 61.136719 89.089844 61.703125 C 89.550781 62.023438 90.03125 62.308594 90.527344 62.558594 C 90.929688 62.777344 91.433594 62.644531 91.675781 62.257812 C 91.90625 61.855469 91.773438 61.34375 91.375 61.109375 C 90.925781 60.882812 90.492188 60.628906 90.078125 60.34375 C 89.316406 59.871094 88.582031 59.351562 87.878906 58.796875 C 87.476562 58.480469 87.089844 58.140625 86.722656 57.78125 C 86.441406 57.507812 86.179688 57.214844 85.945312 56.902344 C 85.824219 56.726562 85.71875 56.542969 85.625 56.351562 C 85.714844 56.546875 85.558594 56.171875 85.554688 56.15625 C 85.492188 55.972656 85.441406 55.789062 85.398438 55.601562 C 85.253906 54.871094 85.183594 54.125 85.191406 53.378906 C 85.171875 52.300781 83.496094 52.296875 83.515625 53.378906 Z M 83.511719 53.378906 "/>
<path style=" stroke:none;fill-rule:nonzero;fill:rgb(100%,100%,100%);fill-opacity:1;" d="M 86.746094 57.535156 C 86.285156 56.695312 85.683594 55.941406 84.972656 55.300781 C 83.625 57.113281 80.542969 59.378906 76.847656 60.867188 C 76.585938 60.953125 76.339844 61.089844 76.132812 61.273438 C 76.042969 61.4375 76.214844 61.582031 76.296875 61.710938 C 76.472656 61.925781 76.667969 62.128906 76.875 62.320312 C 75.714844 62.320312 74.851562 62.324219 73.761719 62.324219 C 73.96875 62.132812 74.164062 61.929688 74.34375 61.710938 C 74.425781 61.582031 74.597656 61.4375 74.511719 61.273438 C 74.300781 61.089844 74.054688 60.953125 73.792969 60.867188 C 70.097656 59.378906 67.015625 57.113281 65.667969 55.300781 C 64.449219 56.417969 63.992188 57.308594 63.261719 58.71875 C 64.503906 72.121094 70.171875 83.152344 74.828125 93.75 C 76.582031 90.59375 78.164062 87.347656 79.566406 84.019531 C 81.433594 79.59375 84.171875 71.847656 85.003906 69.570312 C 86.089844 66.617188 87.074219 62.285156 87.605469 59.152344 C 87.28125 58.53125 87.019531 58.007812 86.746094 57.535156 Z M 86.746094 57.535156 "/>
<path style=" stroke:none;fill-rule:nonzero;fill:rgb(100%,100%,100%);fill-opacity:1;" d="M 60.148438 98.199219 L 59.648438 97.230469 C 58.214844 94.84375 57.402344 90.710938 57.101562 88.566406 C 56.734375 85.953125 57.695312 80.324219 58.214844 78.203125 C 58.691406 79.050781 60.792969 83.910156 61.378906 85.285156 C 62.488281 87.890625 64.394531 91.4375 63.585938 94.3125 C 62.976562 96.488281 61.988281 96.765625 60.761719 97.417969 C 59.449219 98.109375 58.242188 97.71875 57.011719 98.320312 C 56.101562 98.769531 55.925781 99.632812 56.042969 100.476562 C 56.195312 101.582031 57.140625 102.78125 58.375 102.5 C 58.941406 102.371094 59.394531 101.96875 59.894531 101.683594 C 60.5625 101.304688 61.390625 100.976562 62.085938 100.652344 C 63.679688 99.910156 65.171875 99.101562 66.144531 97.601562 C 67.195312 95.984375 67.8125 94.160156 67.605469 92.246094 C 66.886719 85.722656 62.4375 80.203125 60.445312 74.34375 C 60.269531 71.351562 61.382812 64.382812 63.058594 60.792969 C 63.058594 60.792969 63.214844 60.621094 63.4375 60.355469 C 63.316406 59.359375 63.222656 58.347656 63.152344 57.324219 C 61.035156 58.277344 58.421875 61.480469 57.632812 65.992188 C 57.195312 68.480469 56.613281 71.050781 56.09375 74 C 54.140625 78.859375 53.429688 85.476562 53.648438 88.707031 C 53.855469 91.84375 54.726562 95.835938 56.375 98.410156 L 56.84375 99.480469 Z M 60.148438 98.199219 "/>
<path style=" stroke:none;fill-rule:nonzero;fill:rgb(100%,100%,100%);fill-opacity:1;" d="M 94.863281 86.59375 C 95.070312 84.792969 94.5 82.808594 92.878906 81.957031 C 94.386719 73.753906 93.871094 69.726562 92.851562 65.105469 C 92.253906 62.386719 90.316406 58.742188 87.878906 57.339844 C 87.773438 58.15625 87.613281 59.152344 87.414062 60.25 C 87.976562 60.8125 88.832031 62.773438 89.082031 63.707031 C 90.855469 70.273438 91.035156 74.46875 89.949219 81.570312 C 88 82 87.1875 83.863281 87.015625 84.582031 C 86.554688 86.519531 86.710938 89.035156 88.457031 90.285156 C 88.859375 90.570312 89.3125 90.761719 89.792969 90.851562 C 92.554688 91.375 94.355469 89.355469 94.792969 87.050781 C 94.824219 86.898438 94.847656 86.746094 94.863281 86.59375 Z M 94.863281 86.59375 "/>
<path style=" stroke:none;fill-rule:nonzero;fill:rgb(62.7451%,62.7451%,62.7451%);fill-opacity:1;" d="M 65.019531 101.859375 C 64.980469 101.265625 64.640625 100.738281 64.117188 100.460938 L 63.273438 100.0625 C 62.890625 100.269531 62.492188 100.460938 62.085938 100.648438 C 61.574219 100.890625 60.992188 101.128906 60.453125 101.390625 C 60.65625 101.894531 60.921875 102.371094 61.238281 102.808594 C 61.539062 103.207031 61.976562 103.484375 62.46875 103.578125 C 62.78125 103.613281 63.097656 103.582031 63.394531 103.492188 C 64.027344 103.328125 64.671875 102.996094 64.941406 102.402344 C 65.015625 102.230469 65.042969 102.042969 65.019531 101.859375 Z M 65.019531 101.859375 "/>
<path style=" stroke:none;fill-rule:nonzero;fill:rgb(62.7451%,62.7451%,62.7451%);fill-opacity:1;" d="M 56.011719 100.164062 C 55.917969 99.398438 56.316406 98.660156 57.011719 98.320312 C 57.683594 98.046875 58.398438 97.894531 59.125 97.871094 C 59.675781 99.046875 59.976562 100.328125 59.996094 101.628906 C 59.960938 101.644531 59.925781 101.664062 59.894531 101.683594 C 59.390625 101.96875 58.9375 102.371094 58.375 102.5 C 57.136719 102.78125 56.195312 101.582031 56.039062 100.476562 C 56.027344 100.371094 56.015625 100.269531 56.011719 100.164062 Z M 56.011719 100.164062 "/>
<path style=" stroke:none;fill-rule:nonzero;fill:rgb(32.549021%,58.039218%,81.176472%);fill-opacity:1;" d="M 70.804688 82.484375 L 70.804688 82.4375 C 71.542969 76.40625 72.554688 69.011719 72.554688 68.800781 C 72.539062 68.421875 72.476562 68.050781 72.375 67.691406 C 72.332031 67.519531 72.289062 67.359375 72.253906 67.1875 C 72.027344 66.230469 71.886719 65.5625 71.683594 64.507812 C 71.972656 64.207031 72.257812 63.902344 72.53125 63.601562 C 73.046875 63.035156 73.457031 62.621094 73.757812 62.324219 C 74.851562 62.324219 75.714844 62.320312 76.871094 62.320312 C 77.175781 62.617188 77.589844 63.03125 78.105469 63.601562 C 78.464844 63.992188 78.835938 64.382812 79.214844 64.773438 C 79.097656 65.238281 79.03125 65.5 79.03125 65.5 C 78.917969 65.957031 78.789062 66.433594 78.621094 66.953125 C 78.378906 67.582031 78.234375 68.246094 78.1875 68.921875 C 78.179688 69.265625 79.164062 75.753906 80.09375 81.964844 L 80.171875 82.542969 C 79.964844 83.066406 79.761719 83.558594 79.566406 84.019531 C 78.164062 87.347656 76.582031 90.59375 74.828125 93.75 C 73.484375 90.691406 72.058594 87.601562 70.675781 84.425781 C 70.738281 83.5 70.789062 82.679688 70.804688 82.484375 Z M 70.804688 82.484375 "/>
<path style=" stroke:none;fill-rule:nonzero;fill:rgb(100%,100%,100%);fill-opacity:1;" d="M 81.71875 67.445312 C 84.003906 64.78125 85.886719 61.796875 87.3125 58.589844 C 86.621094 57.253906 86.152344 56.386719 84.972656 55.300781 C 83.625 57.113281 80.542969 59.378906 76.847656 60.867188 C 76.585938 60.953125 76.339844 61.089844 76.132812 61.273438 C 76.042969 61.4375 76.214844 61.582031 76.296875 61.710938 C 76.421875 61.914062 77.046875 62.4375 78.109375 63.601562 C 79.3125 64.921875 80.722656 66.253906 81.71875 67.445312 Z M 81.71875 67.445312 "/>
<path style=" stroke:none;fill-rule:nonzero;fill:rgb(100%,100%,100%);fill-opacity:1;" d="M 68.921875 67.445312 C 66.636719 64.78125 64.753906 61.796875 63.328125 58.589844 C 64.019531 57.253906 64.488281 56.386719 65.667969 55.300781 C 67.019531 57.113281 70.101562 59.378906 73.792969 60.867188 C 74.058594 60.953125 74.300781 61.089844 74.511719 61.273438 C 74.601562 61.4375 74.429688 61.582031 74.347656 61.710938 C 74.21875 61.914062 73.597656 62.4375 72.535156 63.601562 C 71.328125 64.921875 69.917969 66.253906 68.921875 67.445312 Z M 68.921875 67.445312 "/>
<path style=" stroke:none;fill-rule:nonzero;fill:rgb(12.941177%,9.019608%,8.235294%);fill-opacity:1;" d="M 58.992188 60.449219 C 54.125 62.480469 49.167969 64.355469 44.425781 66.660156 C 41.628906 68.019531 39.335938 70.226562 38.21875 73.164062 C 37.199219 75.855469 36.34375 78.59375 35.542969 81.355469 C 34.644531 84.449219 33.707031 87.519531 32.558594 90.527344 C 32.441406 90.972656 32.699219 91.433594 33.144531 91.558594 C 33.589844 91.671875 34.046875 91.414062 34.175781 90.972656 C 36.148438 85.8125 37.382812 80.425781 39.242188 75.230469 C 39.738281 73.835938 40.21875 72.480469 41.15625 71.308594 C 42.050781 70.183594 43.160156 69.242188 44.421875 68.546875 C 46.636719 67.324219 49.042969 66.382812 51.371094 65.402344 C 54.054688 64.277344 56.753906 63.1875 59.4375 62.066406 C 59.875 61.933594 60.132812 61.480469 60.023438 61.035156 C 59.898438 60.589844 59.4375 60.328125 58.992188 60.449219 Z M 58.992188 60.449219 "/>
<path style=" stroke:none;fill-rule:nonzero;fill:rgb(12.941177%,9.019608%,8.235294%);fill-opacity:1;" d="M 91.101562 61.914062 C 95.769531 63.859375 100.511719 65.683594 105.066406 67.898438 C 107.257812 68.964844 109.453125 70.1875 110.625 72.414062 C 111.335938 73.765625 111.644531 75.359375 111.976562 76.84375 C 112.804688 80.5625 113.386719 84.339844 113.921875 88.113281 C 114.667969 93.316406 115.273438 98.542969 115.816406 103.773438 C 116.46875 110.03125 117.027344 116.300781 117.496094 122.578125 C 117.558594 123.414062 117.621094 124.25 117.679688 125.085938 C 117.691406 125.542969 118.0625 125.914062 118.519531 125.921875 C 118.980469 125.921875 119.355469 125.546875 119.359375 125.085938 C 118.890625 118.609375 118.332031 112.144531 117.6875 105.683594 C 117.132812 100.171875 116.507812 94.664062 115.75 89.175781 C 115.199219 85.167969 114.601562 81.15625 113.765625 77.199219 C 113.503906 75.835938 113.167969 74.488281 112.75 73.167969 C 112.332031 71.875 111.644531 70.683594 110.738281 69.671875 C 109.847656 68.761719 108.824219 67.996094 107.703125 67.398438 C 105.484375 66.117188 103.085938 65.125 100.730469 64.121094 C 98.210938 63.042969 95.671875 62 93.136719 60.953125 C 92.605469 60.734375 92.074219 60.515625 91.546875 60.292969 C 91.097656 60.171875 90.636719 60.433594 90.511719 60.878906 C 90.402344 61.324219 90.660156 61.777344 91.097656 61.910156 Z M 91.101562 61.914062 "/>
<path style=" stroke:none;fill-rule:nonzero;fill:rgb(12.941177%,9.019608%,8.235294%);fill-opacity:1;" d="M 102.796875 125.191406 C 102.792969 121.984375 102.601562 118.78125 102.585938 115.578125 C 102.570312 112.054688 102.476562 108.492188 102.984375 105 C 103.230469 103.304688 103.570312 101.621094 103.859375 99.933594 C 104.148438 98.238281 104.421875 96.542969 104.691406 94.84375 C 105.230469 91.390625 105.734375 87.929688 106.199219 84.464844 C 106.6875 80.820312 107.136719 77.167969 107.539062 73.511719 C 107.535156 73.050781 107.160156 72.675781 106.699219 72.671875 C 106.238281 72.683594 105.871094 73.050781 105.859375 73.511719 C 105.136719 80.175781 104.257812 86.824219 103.21875 93.449219 C 102.699219 96.820312 102.121094 100.179688 101.53125 103.542969 C 100.910156 107.09375 100.898438 110.671875 100.90625 114.265625 C 100.917969 117.910156 101.113281 121.546875 101.117188 125.191406 C 101.117188 126.269531 102.796875 126.273438 102.796875 125.191406 Z M 102.796875 125.191406 "/>
<path style=" stroke:none;fill-rule:nonzero;fill:rgb(12.941177%,9.019608%,8.235294%);fill-opacity:1;" d="M 42.691406 74.464844 C 43.417969 81.09375 44.304688 87.703125 45.347656 94.292969 C 45.878906 97.671875 46.503906 101.035156 47.054688 104.410156 C 47.605469 107.808594 47.550781 111.257812 47.542969 114.6875 C 47.539062 118.1875 47.339844 121.6875 47.335938 125.191406 C 47.332031 126.269531 49.011719 126.269531 49.011719 125.191406 C 49.019531 122.109375 49.195312 119.03125 49.21875 115.949219 C 49.25 112.53125 49.320312 109.085938 48.914062 105.683594 C 48.707031 103.953125 48.363281 102.242188 48.066406 100.527344 C 47.777344 98.839844 47.496094 97.15625 47.222656 95.464844 C 46.675781 92.0625 46.167969 88.648438 45.703125 85.230469 C 45.210938 81.648438 44.765625 78.0625 44.367188 74.464844 C 44.355469 74.007812 43.988281 73.640625 43.527344 73.625 C 43.066406 73.628906 42.691406 74.003906 42.691406 74.464844 Z M 42.691406 74.464844 "/>
<path style=" stroke:none;fill-rule:nonzero;fill:rgb(12.941177%,9.019608%,8.235294%);fill-opacity:1;" d="M 53.855469 29.460938 C 52.980469 26.320312 52.851562 22.957031 53.132812 19.722656 C 53.363281 17.101562 54 14.460938 55.339844 12.171875 C 56.097656 10.785156 57.203125 9.621094 58.550781 8.792969 C 59.488281 8.253906 58.640625 6.800781 57.703125 7.34375 C 54.894531 8.964844 53.203125 12.035156 52.304688 15.054688 C 51.503906 17.957031 51.183594 20.972656 51.363281 23.976562 C 51.429688 25.980469 51.722656 27.96875 52.238281 29.90625 C 52.527344 30.941406 54.148438 30.5 53.855469 29.457031 Z M 53.855469 29.460938 "/>
<path style=" stroke:none;fill-rule:nonzero;fill:rgb(12.941177%,9.019608%,8.235294%);fill-opacity:1;" d="M 61.074219 6.597656 C 63.5 3.589844 67.339844 2.445312 71.027344 1.921875 C 74.765625 1.382812 78.578125 1.75 82.144531 2.988281 C 85.609375 4.164062 88.730469 6.171875 91.238281 8.839844 C 93.554688 11.414062 95.105469 14.585938 95.722656 17.996094 C 96.484375 21.734375 96.285156 25.605469 95.144531 29.25 C 94.8125 30.277344 96.433594 30.71875 96.761719 29.695312 C 97.847656 26.1875 98.121094 22.476562 97.5625 18.847656 C 97.039062 15.171875 95.667969 11.59375 93.324219 8.691406 C 88.335938 2.515625 79.957031 -0.660156 72.125 0.113281 C 67.6875 0.554688 62.816406 1.78125 59.886719 5.414062 C 59.574219 5.746094 59.574219 6.265625 59.886719 6.597656 C 60.214844 6.925781 60.742188 6.925781 61.074219 6.597656 Z M 61.074219 6.597656 "/>
<path style=" stroke:none;fill-rule:nonzero;fill:rgb(12.941177%,9.019608%,8.235294%);fill-opacity:1;" d="M 57.601562 31.066406 C 57.554688 27.542969 58.660156 24.101562 60.746094 21.261719 C 61.800781 19.777344 63.070312 18.460938 64.515625 17.355469 C 64.675781 17.238281 64.515625 17.296875 64.664062 17.320312 C 64.847656 17.382812 65.019531 17.484375 65.164062 17.613281 C 65.535156 17.867188 65.886719 18.152344 66.253906 18.410156 C 66.761719 18.757812 67.296875 19.066406 67.832031 19.363281 C 69.179688 20.113281 70.570312 20.777344 72 21.347656 C 73.460938 21.949219 75.054688 22.164062 76.621094 21.972656 C 78.46875 21.746094 80.253906 21.164062 82.132812 21.234375 C 83.988281 21.328125 85.835938 21.542969 87.660156 21.878906 L 89.335938 22.167969 C 89.730469 22.238281 90.351562 22.261719 90.621094 22.613281 C 90.824219 22.960938 90.976562 23.335938 91.070312 23.726562 C 91.234375 24.183594 91.394531 24.640625 91.550781 25.101562 C 92.222656 26.976562 92.75 28.898438 93.121094 30.855469 C 93.25 31.296875 93.707031 31.558594 94.15625 31.441406 C 94.59375 31.308594 94.851562 30.851562 94.742188 30.40625 C 94.386719 28.542969 93.890625 26.707031 93.253906 24.917969 C 92.984375 24.101562 92.710938 23.28125 92.398438 22.476562 C 92.246094 22.003906 91.972656 21.574219 91.609375 21.238281 C 91.164062 20.898438 90.640625 20.679688 90.085938 20.601562 C 88.148438 20.238281 86.1875 19.902344 84.226562 19.707031 C 83.15625 19.570312 82.074219 19.527344 80.996094 19.574219 C 79.988281 19.667969 78.988281 19.828125 78 20.046875 C 76.332031 20.382812 74.730469 20.542969 73.097656 19.976562 C 71.671875 19.453125 70.296875 18.820312 68.972656 18.078125 C 68.371094 17.75 67.769531 17.410156 67.195312 17.023438 C 66.429688 16.507812 65.699219 15.722656 64.730469 15.632812 C 63.753906 15.542969 62.953125 16.457031 62.28125 17.0625 C 61.53125 17.734375 60.835938 18.460938 60.199219 19.238281 C 57.472656 22.566406 55.8125 26.734375 55.921875 31.066406 C 55.949219 32.144531 57.628906 32.148438 57.601562 31.066406 Z M 57.601562 31.066406 "/>
<path style=" stroke:none;fill-rule:nonzero;fill:rgb(12.941177%,9.019608%,8.235294%);fill-opacity:1;" d="M 72.8125 69.585938 C 74.550781 69.585938 76.285156 69.550781 78.023438 69.546875 C 78.484375 69.546875 78.863281 69.171875 78.863281 68.710938 C 78.863281 68.246094 78.484375 67.871094 78.023438 67.871094 C 76.285156 67.871094 74.550781 67.910156 72.8125 67.910156 C 72.347656 67.910156 71.972656 68.285156 71.972656 68.75 C 71.972656 69.210938 72.347656 69.585938 72.8125 69.585938 Z M 72.8125 69.585938 "/>
<path style=" stroke:none;fill-rule:nonzero;fill:rgb(12.941177%,9.019608%,8.235294%);fill-opacity:1;" d="M 70.957031 65.148438 C 71.105469 65.90625 71.269531 66.660156 71.445312 67.410156 C 71.605469 67.882812 71.695312 68.375 71.710938 68.875 C 71.675781 69.394531 71.582031 69.914062 71.511719 70.429688 C 71.203125 72.800781 70.894531 75.171875 70.585938 77.542969 C 70.375 79.171875 70.167969 80.804688 69.96875 82.4375 C 69.96875 82.902344 70.34375 83.273438 70.808594 83.277344 C 71.265625 83.265625 71.636719 82.898438 71.644531 82.4375 C 71.992188 79.601562 72.359375 76.765625 72.730469 73.933594 C 72.949219 72.269531 73.242188 70.59375 73.382812 68.917969 C 73.390625 68.398438 73.316406 67.878906 73.160156 67.382812 C 72.941406 66.496094 72.75 65.597656 72.574219 64.703125 C 72.449219 64.257812 71.988281 63.992188 71.542969 64.117188 C 71.09375 64.238281 70.832031 64.703125 70.957031 65.148438 Z M 70.957031 65.148438 "/>
<path style=" stroke:none;fill-rule:nonzero;fill:rgb(12.941177%,9.019608%,8.235294%);fill-opacity:1;" d="M 76.773438 61.480469 L 73.683594 61.488281 C 73.21875 61.488281 72.84375 61.863281 72.84375 62.324219 C 72.84375 62.789062 73.21875 63.164062 73.683594 63.164062 L 76.773438 63.15625 C 77.238281 63.15625 77.613281 62.78125 77.613281 62.320312 C 77.613281 61.855469 77.238281 61.480469 76.773438 61.480469 Z M 76.773438 61.480469 "/>
<path style=" stroke:none;fill-rule:nonzero;fill:rgb(12.941177%,9.019608%,8.235294%);fill-opacity:1;" d="M 80.902344 81.742188 C 80.496094 79.035156 80.09375 76.324219 79.6875 73.617188 C 79.539062 72.609375 79.390625 71.601562 79.246094 70.59375 C 79.195312 70.234375 79.144531 69.875 79.09375 69.515625 C 79.085938 69.453125 79.113281 69.671875 79.089844 69.5 C 79.085938 69.445312 79.078125 69.394531 79.070312 69.34375 C 79.058594 69.25 79.046875 69.160156 79.039062 69.066406 C 79.023438 68.679688 79.078125 68.292969 79.199219 67.921875 C 79.402344 67.1875 79.652344 66.464844 79.839844 65.722656 C 80.105469 64.675781 78.488281 64.230469 78.222656 65.277344 C 77.925781 66.460938 77.300781 67.722656 77.347656 68.960938 C 77.371094 69.476562 77.480469 70 77.550781 70.515625 C 77.867188 72.753906 78.207031 74.988281 78.539062 77.226562 C 78.789062 78.878906 79.035156 80.535156 79.285156 82.1875 C 79.410156 82.632812 79.871094 82.894531 80.316406 82.773438 C 80.753906 82.640625 81.011719 82.1875 80.902344 81.742188 Z M 80.902344 81.742188 "/>
<path style=" stroke:none;fill-rule:nonzero;fill:rgb(12.941177%,9.019608%,8.235294%);fill-opacity:1;" d="M 83.871094 92.25 C 82.015625 94.03125 80.136719 95.785156 78.207031 97.480469 C 77.878906 97.808594 77.878906 98.339844 78.207031 98.667969 C 78.535156 98.992188 79.066406 98.992188 79.394531 98.667969 C 81.324219 96.972656 83.207031 95.214844 85.054688 93.433594 C 85.378906 93.105469 85.375 92.578125 85.050781 92.253906 C 84.726562 91.925781 84.199219 91.925781 83.871094 92.25 Z M 83.871094 92.25 "/>
<path style=" stroke:none;fill-rule:nonzero;fill:rgb(12.941177%,9.019608%,8.235294%);fill-opacity:1;" d="M 75.933594 105.617188 C 76.027344 105.703125 76.101562 105.804688 76.191406 105.886719 C 76.109375 105.777344 76.089844 105.753906 76.140625 105.824219 C 76.15625 105.847656 76.171875 105.871094 76.1875 105.894531 C 76.214844 105.933594 76.238281 105.976562 76.261719 106.019531 C 76.296875 106.085938 76.332031 106.230469 76.25 105.980469 C 76.265625 106.03125 76.289062 106.078125 76.304688 106.128906 C 76.332031 106.222656 76.355469 106.320312 76.367188 106.417969 L 76.335938 106.195312 C 76.359375 106.371094 76.359375 106.550781 76.335938 106.726562 L 76.367188 106.5 C 76.355469 106.601562 76.332031 106.699219 76.308594 106.792969 C 76.296875 106.835938 76.285156 106.875 76.269531 106.917969 C 76.257812 106.957031 76.1875 107.121094 76.257812 106.960938 C 76.324219 106.796875 76.257812 106.953125 76.238281 106.992188 C 76.21875 107.03125 76.199219 107.0625 76.179688 107.097656 C 76.160156 107.132812 76.140625 107.164062 76.117188 107.195312 C 76.03125 107.328125 76.265625 107.027344 76.167969 107.132812 C 76.132812 107.171875 75.992188 107.359375 75.941406 107.351562 C 75.949219 107.351562 76.136719 107.214844 76.007812 107.296875 C 75.988281 107.3125 75.964844 107.324219 75.945312 107.339844 C 75.898438 107.367188 75.851562 107.394531 75.800781 107.421875 C 75.777344 107.433594 75.753906 107.441406 75.734375 107.453125 C 75.613281 107.511719 75.90625 107.386719 75.8125 107.417969 C 75.765625 107.433594 75.71875 107.453125 75.671875 107.464844 C 75.558594 107.5 75.441406 107.527344 75.320312 107.542969 L 75.542969 107.511719 C 75.335938 107.539062 75.121094 107.542969 74.910156 107.515625 L 75.132812 107.542969 C 74.964844 107.515625 74.804688 107.476562 74.644531 107.417969 C 74.894531 107.5 74.78125 107.480469 74.714844 107.449219 C 74.675781 107.425781 74.636719 107.40625 74.59375 107.382812 C 74.566406 107.363281 74.539062 107.34375 74.511719 107.328125 C 74.394531 107.253906 74.691406 107.480469 74.554688 107.363281 C 74.480469 107.292969 74.40625 107.222656 74.335938 107.144531 C 74.238281 107.035156 74.457031 107.320312 74.335938 107.140625 C 74.3125 107.105469 74.289062 107.070312 74.269531 107.03125 C 74.25 106.996094 74.230469 106.960938 74.214844 106.921875 C 74.148438 106.796875 74.289062 107.140625 74.226562 106.941406 C 74.199219 106.855469 74.179688 106.765625 74.164062 106.675781 L 74.195312 106.898438 C 74.175781 106.75 74.175781 106.597656 74.195312 106.445312 L 74.164062 106.667969 C 74.179688 106.5625 74.203125 106.457031 74.234375 106.355469 C 74.25 106.304688 74.269531 106.257812 74.285156 106.207031 C 74.34375 106.046875 74.199219 106.382812 74.277344 106.230469 C 74.324219 106.132812 74.378906 106.035156 74.4375 105.941406 C 74.464844 105.898438 74.496094 105.855469 74.527344 105.8125 C 74.539062 105.789062 74.554688 105.769531 74.570312 105.75 C 74.546875 105.769531 74.433594 105.914062 74.527344 105.8125 C 74.558594 105.777344 74.585938 105.742188 74.621094 105.707031 C 74.65625 105.671875 74.785156 105.570312 74.65625 105.667969 C 74.53125 105.765625 74.671875 105.660156 74.707031 105.640625 C 74.753906 105.609375 74.800781 105.582031 74.851562 105.558594 C 74.859375 105.550781 74.910156 105.523438 74.917969 105.523438 C 74.917969 105.523438 74.710938 105.605469 74.824219 105.566406 C 74.871094 105.546875 74.921875 105.53125 74.96875 105.515625 C 75.082031 105.480469 75.195312 105.457031 75.3125 105.441406 L 75.089844 105.472656 C 75.273438 105.449219 75.457031 105.449219 75.640625 105.472656 L 75.417969 105.441406 C 75.496094 105.453125 75.574219 105.46875 75.648438 105.488281 C 75.679688 105.496094 75.710938 105.507812 75.742188 105.515625 C 75.773438 105.527344 75.917969 105.585938 75.773438 105.523438 C 75.632812 105.460938 75.746094 105.511719 75.777344 105.527344 C 75.808594 105.542969 75.847656 105.5625 75.878906 105.585938 C 75.914062 105.605469 75.945312 105.628906 75.980469 105.648438 C 76.097656 105.726562 75.820312 105.515625 75.933594 105.617188 C 76.09375 105.769531 76.304688 105.855469 76.527344 105.859375 C 76.867188 105.859375 77.175781 105.65625 77.304688 105.34375 C 77.433594 105.027344 77.363281 104.667969 77.121094 104.425781 C 76.644531 104.011719 76.039062 103.78125 75.40625 103.773438 C 74.851562 103.761719 74.300781 103.910156 73.832031 104.207031 C 72.847656 104.878906 72.355469 106.0625 72.570312 107.230469 C 72.726562 107.855469 73.105469 108.394531 73.636719 108.753906 C 74.296875 109.171875 75.09375 109.308594 75.855469 109.136719 C 76.613281 108.964844 77.273438 108.496094 77.6875 107.835938 C 77.945312 107.351562 78.0625 106.808594 78.027344 106.265625 C 77.96875 105.558594 77.644531 104.902344 77.121094 104.425781 C 76.792969 104.105469 76.265625 104.105469 75.941406 104.429688 C 75.613281 104.757812 75.613281 105.285156 75.933594 105.613281 Z M 75.933594 105.617188 "/>
<path style=" stroke:none;fill-rule:nonzero;fill:rgb(12.941177%,9.019608%,8.235294%);fill-opacity:1;" d="M 90.019531 90.042969 C 88.042969 89.625 87.519531 87.625 87.65625 85.847656 C 87.683594 85.46875 87.746094 85.097656 87.84375 84.730469 C 87.863281 84.65625 87.886719 84.585938 87.910156 84.515625 C 87.925781 84.464844 87.945312 84.417969 87.960938 84.367188 C 88.007812 84.242188 87.886719 84.515625 87.992188 84.300781 C 88.1875 83.828125 88.488281 83.402344 88.863281 83.054688 C 89.058594 82.867188 89.28125 82.714844 89.523438 82.601562 C 89.828125 82.457031 90.152344 82.367188 90.488281 82.332031 C 91.328125 82.242188 92.171875 82.457031 92.867188 82.9375 C 94.085938 83.890625 94.261719 85.765625 93.910156 87.160156 C 93.453125 88.976562 91.984375 90.386719 90.015625 90.042969 C 89.570312 89.933594 89.117188 90.191406 88.984375 90.628906 C 88.867188 91.074219 89.128906 91.535156 89.570312 91.660156 C 90.761719 91.914062 92.003906 91.71875 93.0625 91.117188 C 94.023438 90.511719 94.773438 89.617188 95.199219 88.5625 C 96.0625 86.53125 95.953125 83.945312 94.503906 82.203125 C 93.109375 80.527344 90.289062 80.152344 88.449219 81.28125 C 87.160156 82.113281 86.296875 83.460938 86.082031 84.980469 C 85.832031 86.28125 85.933594 87.625 86.378906 88.871094 C 86.902344 90.28125 88.101562 91.332031 89.570312 91.660156 C 90.625 91.882812 91.074219 90.265625 90.019531 90.042969 Z M 90.019531 90.042969 "/>
<path style=" stroke:none;fill-rule:nonzero;fill:rgb(12.941177%,9.019608%,8.235294%);fill-opacity:1;" d="M 90.507812 87.640625 C 90.359375 87.613281 90.21875 87.554688 90.097656 87.46875 C 89.5625 87.085938 89.515625 86.316406 89.65625 85.722656 C 89.730469 85.382812 89.945312 85.09375 90.246094 84.925781 C 90.546875 84.757812 90.90625 84.722656 91.234375 84.832031 C 91.945312 85.027344 92.160156 85.820312 92.039062 86.476562 C 91.902344 87.183594 91.351562 87.800781 90.507812 87.640625 Z M 90.507812 87.640625 "/>
<path style=" stroke:none;fill-rule:nonzero;fill:rgb(12.941177%,9.019608%,8.235294%);fill-opacity:1;" d="M 63.1875 56.410156 C 60.875 57.289062 59.195312 59.5 58.15625 61.65625 C 57.472656 63.125 56.996094 64.675781 56.734375 66.273438 C 56.421875 67.984375 56.0625 69.683594 55.730469 71.390625 C 55.558594 72.273438 55.484375 73.25 55.164062 74.085938 C 54.894531 74.785156 54.65625 75.5 54.445312 76.21875 C 54 77.742188 53.644531 79.292969 53.386719 80.863281 C 52.949219 83.46875 52.625 86.183594 52.816406 88.832031 C 53.0625 92.234375 53.804688 95.910156 55.648438 98.832031 C 56.222656 99.742188 57.675781 98.902344 57.097656 97.984375 C 55.566406 95.558594 54.875 92.558594 54.574219 89.734375 C 54.355469 87.285156 54.445312 84.816406 54.835938 82.386719 C 55.046875 80.890625 55.339844 79.410156 55.710938 77.945312 C 55.894531 77.226562 56.097656 76.511719 56.328125 75.804688 C 56.613281 75.070312 56.84375 74.316406 57.023438 73.546875 C 57.335938 71.851562 57.683594 70.160156 58.019531 68.46875 C 58.324219 66.90625 58.539062 65.320312 59.066406 63.8125 C 59.535156 62.429688 60.25 61.140625 61.175781 60.011719 C 61.566406 59.535156 62.003906 59.101562 62.480469 58.714844 C 62.675781 58.566406 62.878906 58.429688 63.089844 58.300781 C 63.195312 58.242188 63.304688 58.179688 63.414062 58.128906 C 63.460938 58.105469 63.507812 58.082031 63.554688 58.058594 C 63.71875 57.984375 63.453125 58.097656 63.632812 58.03125 C 64.070312 57.894531 64.328125 57.441406 64.21875 57 C 64.09375 56.554688 63.632812 56.292969 63.1875 56.410156 Z M 63.1875 56.410156 "/>
<path style=" stroke:none;fill-rule:nonzero;fill:rgb(12.941177%,9.019608%,8.235294%);fill-opacity:1;" d="M 60.371094 96.808594 C 59.011719 94.507812 58.445312 91.691406 58.023438 89.082031 C 58.003906 88.953125 57.980469 88.824219 57.960938 88.695312 C 57.957031 88.671875 57.910156 88.328125 57.929688 88.484375 C 57.894531 88.222656 57.878906 87.953125 57.867188 87.6875 C 57.847656 87.105469 57.863281 86.523438 57.898438 85.945312 C 57.972656 84.640625 58.132812 83.339844 58.332031 82.050781 C 58.519531 80.835938 58.734375 79.621094 59.023438 78.425781 L 57.492188 78.625 C 58.398438 80.257812 59.074219 82.050781 59.816406 83.761719 C 60.753906 85.917969 61.847656 88.066406 62.519531 90.324219 C 62.90625 91.625 63.125 92.988281 62.710938 94.308594 C 62.367188 95.417969 61.84375 95.917969 60.878906 96.414062 C 60.320312 96.730469 59.707031 96.941406 59.070312 97.039062 C 58.242188 97.078125 57.429688 97.257812 56.660156 97.5625 C 55.292969 98.210938 54.894531 99.832031 55.355469 101.195312 C 55.816406 102.558594 57.097656 103.65625 58.601562 103.304688 C 59.382812 103.125 60.007812 102.550781 60.710938 102.195312 C 61.425781 101.835938 62.167969 101.542969 62.886719 101.195312 C 64.195312 100.566406 65.496094 99.796875 66.414062 98.644531 C 67.433594 97.371094 68.109375 95.859375 68.375 94.25 C 68.621094 92.652344 68.339844 91.03125 67.945312 89.480469 C 67.546875 87.976562 67.027344 86.511719 66.390625 85.09375 C 65.179688 82.316406 63.65625 79.6875 62.390625 76.929688 C 62.089844 76.28125 61.808594 75.625 61.554688 74.957031 C 61.445312 74.707031 61.351562 74.453125 61.277344 74.195312 C 61.253906 73.964844 61.25 73.730469 61.265625 73.5 C 61.289062 72.382812 61.375 71.265625 61.527344 70.160156 C 61.835938 67.609375 62.398438 65.097656 63.214844 62.660156 C 63.378906 62.171875 63.570312 61.6875 63.785156 61.214844 C 64.003906 60.8125 63.871094 60.308594 63.484375 60.066406 C 63.082031 59.835938 62.574219 59.972656 62.335938 60.367188 C 61.292969 62.617188 60.707031 65.074219 60.261719 67.503906 C 60.03125 68.761719 59.847656 70.027344 59.71875 71.300781 C 59.601562 72.273438 59.5625 73.253906 59.597656 74.230469 C 59.640625 74.910156 60.007812 75.613281 60.269531 76.238281 C 60.5625 76.949219 60.878906 77.652344 61.210938 78.351562 C 61.84375 79.683594 62.527344 80.992188 63.195312 82.308594 C 64.527344 84.925781 65.816406 87.597656 66.460938 90.480469 C 66.785156 91.925781 66.957031 93.363281 66.539062 94.808594 C 66.160156 96.230469 65.355469 97.503906 64.234375 98.457031 C 63.128906 99.339844 61.765625 99.871094 60.488281 100.453125 C 60.144531 100.605469 59.800781 100.765625 59.472656 100.957031 C 59.140625 101.148438 58.832031 101.398438 58.488281 101.566406 C 58.074219 101.800781 57.546875 101.679688 57.277344 101.285156 C 56.964844 100.894531 56.8125 100.398438 56.851562 99.902344 C 56.894531 99.332031 57.269531 99.066406 57.800781 98.914062 C 58.5 98.714844 59.238281 98.734375 59.945312 98.585938 C 60.613281 98.414062 61.253906 98.148438 61.84375 97.800781 C 62.820312 97.328125 63.59375 96.527344 64.035156 95.539062 C 64.605469 94.175781 64.757812 92.675781 64.460938 91.226562 C 64.019531 88.707031 62.757812 86.371094 61.753906 84.039062 C 60.957031 82.195312 60.167969 80.34375 59.3125 78.523438 C 59.191406 78.273438 59.074219 78.019531 58.941406 77.777344 C 58.765625 77.492188 58.441406 77.339844 58.109375 77.382812 C 57.777344 77.425781 57.503906 77.65625 57.40625 77.976562 C 56.816406 80.441406 56.429688 82.953125 56.253906 85.480469 C 56.144531 86.667969 56.171875 87.867188 56.332031 89.050781 C 56.53125 90.390625 56.800781 91.71875 57.140625 93.027344 C 57.523438 94.644531 58.121094 96.199219 58.925781 97.652344 C 59.472656 98.582031 60.925781 97.738281 60.375 96.804688 Z M 60.371094 96.808594 "/>
<path style=" stroke:none;fill-rule:nonzero;fill:rgb(12.941177%,9.019608%,8.235294%);fill-opacity:1;" d="M 53.875 89.699219 C 54.914062 89.636719 55.949219 89.546875 56.984375 89.429688 C 57.203125 89.421875 57.414062 89.335938 57.578125 89.183594 C 57.734375 89.023438 57.820312 88.8125 57.820312 88.589844 C 57.804688 88.179688 57.449219 87.699219 56.984375 87.75 C 55.949219 87.867188 54.914062 87.957031 53.875 88.019531 C 53.410156 88.019531 53.035156 88.398438 53.035156 88.859375 C 53.035156 89.324219 53.410156 89.699219 53.875 89.699219 Z M 53.875 89.699219 "/>
<path style=" stroke:none;fill-rule:nonzero;fill:rgb(12.941177%,9.019608%,8.235294%);fill-opacity:1;" d="M 63.007812 88.359375 C 63.050781 88.339844 63.09375 88.320312 63.136719 88.300781 L 62.9375 88.386719 C 63.707031 88.066406 64.5 87.808594 65.308594 87.621094 C 65.753906 87.496094 66.015625 87.035156 65.894531 86.589844 C 65.765625 86.148438 65.308594 85.890625 64.863281 86.003906 C 63.9375 86.222656 63.035156 86.527344 62.160156 86.910156 C 61.972656 87.019531 61.835938 87.199219 61.777344 87.410156 C 61.652344 87.855469 61.914062 88.320312 62.363281 88.441406 L 62.585938 88.472656 C 62.734375 88.472656 62.882812 88.433594 63.007812 88.359375 Z M 63.007812 88.359375 "/>
<path style=" stroke:none;fill-rule:nonzero;fill:rgb(12.941177%,9.019608%,8.235294%);fill-opacity:1;" d="M 93.726562 81.980469 C 94.425781 78.09375 94.898438 74.125 94.53125 70.171875 C 94.226562 66.890625 93.617188 63.5 91.960938 60.613281 C 90.910156 58.78125 89.472656 57.054688 87.480469 56.230469 C 87.035156 56.109375 86.574219 56.371094 86.449219 56.816406 C 86.335938 57.261719 86.597656 57.714844 87.035156 57.847656 C 88.484375 58.449219 89.59375 59.917969 90.382812 61.238281 C 91.226562 62.671875 91.824219 64.234375 92.15625 65.863281 C 92.800781 68.738281 93.066406 71.683594 92.945312 74.625 C 92.820312 76.945312 92.539062 79.253906 92.109375 81.539062 C 91.996094 81.984375 92.253906 82.4375 92.695312 82.570312 C 93.140625 82.6875 93.597656 82.425781 93.726562 81.984375 Z M 93.726562 81.980469 "/>
<path style=" stroke:none;fill-rule:nonzero;fill:rgb(12.941177%,9.019608%,8.235294%);fill-opacity:1;" d="M 58.488281 98.488281 C 58.792969 99.222656 59 99.992188 59.109375 100.78125 L 59.078125 100.558594 C 59.109375 100.796875 59.132812 101.035156 59.148438 101.273438 C 59.148438 101.738281 59.523438 102.113281 59.988281 102.113281 C 60.449219 102.113281 60.828125 101.738281 60.828125 101.273438 C 60.765625 100.164062 60.523438 99.070312 60.109375 98.042969 C 60.042969 97.835938 59.90625 97.65625 59.722656 97.539062 C 59.324219 97.308594 58.808594 97.441406 58.574219 97.84375 C 58.457031 98.035156 58.425781 98.269531 58.492188 98.488281 Z M 58.488281 98.488281 "/>
<path style=" stroke:none;fill-rule:nonzero;fill:rgb(12.941177%,9.019608%,8.235294%);fill-opacity:1;" d="M 63.765625 101.066406 C 63.828125 101.089844 63.882812 101.125 63.941406 101.15625 C 64.066406 101.222656 63.871094 101.074219 63.960938 101.171875 C 64.011719 101.226562 64.0625 101.273438 64.109375 101.328125 C 64.003906 101.203125 64.105469 101.332031 64.125 101.363281 C 64.167969 101.429688 64.199219 101.492188 64.234375 101.558594 C 64.308594 101.699219 64.210938 101.460938 64.25 101.597656 C 64.269531 101.667969 64.292969 101.738281 64.308594 101.8125 C 64.328125 101.894531 64.324219 101.953125 64.320312 101.835938 C 64.324219 101.902344 64.324219 101.972656 64.324219 102.039062 C 64.332031 102.191406 64.367188 101.917969 64.324219 102.046875 C 64.265625 102.246094 64.398438 101.960938 64.308594 102.109375 C 64.277344 102.164062 64.246094 102.222656 64.210938 102.277344 C 64.285156 102.164062 64.136719 102.355469 64.113281 102.375 C 64.089844 102.398438 63.964844 102.503906 64.058594 102.433594 C 63.925781 102.527344 63.785156 102.613281 63.632812 102.679688 C 63.589844 102.699219 63.59375 102.699219 63.648438 102.675781 C 63.609375 102.691406 63.566406 102.707031 63.523438 102.722656 C 63.453125 102.75 63.378906 102.773438 63.304688 102.792969 C 63.222656 102.816406 63.140625 102.835938 63.058594 102.855469 C 63.007812 102.867188 62.957031 102.878906 62.90625 102.886719 C 62.949219 102.882812 62.945312 102.882812 62.898438 102.886719 C 62.808594 102.894531 62.714844 102.894531 62.625 102.894531 C 62.535156 102.886719 62.519531 102.886719 62.589844 102.894531 C 62.558594 102.886719 62.523438 102.878906 62.492188 102.871094 C 62.460938 102.863281 62.261719 102.785156 62.378906 102.839844 C 62.304688 102.804688 62.238281 102.765625 62.171875 102.726562 C 62.140625 102.707031 62.113281 102.691406 62.085938 102.667969 C 62.136719 102.710938 62.128906 102.707031 62.066406 102.652344 C 62.003906 102.601562 61.949219 102.550781 61.890625 102.492188 C 61.792969 102.394531 61.710938 102.289062 61.636719 102.171875 C 61.441406 101.847656 61.265625 101.511719 61.113281 101.164062 C 60.917969 100.832031 60.492188 100.71875 60.15625 100.914062 C 59.832031 101.113281 59.722656 101.535156 59.90625 101.871094 C 60.164062 102.550781 60.574219 103.164062 61.101562 103.664062 C 61.390625 103.914062 61.722656 104.097656 62.085938 104.210938 C 62.503906 104.316406 62.9375 104.316406 63.351562 104.21875 C 64.039062 104.105469 64.675781 103.78125 65.171875 103.296875 C 65.644531 102.800781 65.828125 102.101562 65.660156 101.4375 C 65.523438 100.757812 65.085938 100.175781 64.472656 99.855469 C 64.136719 99.671875 63.71875 99.785156 63.515625 100.109375 C 63.324219 100.441406 63.4375 100.867188 63.765625 101.0625 Z M 63.765625 101.066406 "/>
<path style=" stroke:none;fill-rule:nonzero;fill:rgb(12.941177%,9.019608%,8.235294%);fill-opacity:1;" d="M 91.976562 40.300781 C 91.933594 41.070312 91.789062 41.828125 91.550781 42.558594 C 91.46875 42.835938 91.375 43.113281 91.28125 43.386719 C 91.25 43.480469 91.21875 43.578125 91.1875 43.671875 C 91.164062 43.734375 91.058594 43.964844 91.167969 43.722656 C 90.832031 44.457031 90.445312 45.164062 90.007812 45.84375 C 88.738281 47.925781 87.140625 49.785156 85.273438 51.355469 C 84.242188 52.230469 83.042969 52.886719 81.753906 53.285156 C 80.714844 53.582031 81.15625 55.203125 82.199219 54.902344 C 84.875 54.136719 87.105469 52.210938 88.898438 50.144531 C 90.375 48.507812 91.609375 46.671875 92.566406 44.6875 C 93.203125 43.308594 93.574219 41.820312 93.65625 40.300781 C 93.6875 39.21875 92.011719 39.222656 91.976562 40.300781 Z M 91.976562 40.300781 "/>
<path style=" stroke:none;fill-rule:nonzero;fill:rgb(12.941177%,9.019608%,8.235294%);fill-opacity:1;" d="M 56.257812 40.324219 C 57.257812 45.679688 60.113281 50.820312 64.90625 53.65625 C 66.179688 54.425781 67.59375 54.945312 69.066406 55.179688 C 69.511719 55.289062 69.964844 55.03125 70.097656 54.59375 C 70.21875 54.148438 69.957031 53.691406 69.511719 53.5625 C 64.402344 52.785156 60.488281 48.15625 58.835938 43.503906 C 58.421875 42.324219 58.097656 41.109375 57.875 39.878906 C 57.75 39.433594 57.289062 39.171875 56.84375 39.292969 C 56.402344 39.421875 56.144531 39.878906 56.257812 40.324219 Z M 56.257812 40.324219 "/>
<path style=" stroke:none;fill-rule:nonzero;fill:rgb(12.941177%,9.019608%,8.235294%);fill-opacity:1;" d="M 94.507812 31.234375 C 95.308594 30.582031 96.484375 30.679688 97.167969 31.457031 C 97.542969 31.9375 97.578125 32.621094 97.605469 33.203125 C 97.640625 33.878906 97.605469 34.554688 97.5 35.222656 C 97.289062 36.570312 96.816406 37.859375 96.101562 39.019531 C 95.5625 39.875 94.671875 41.03125 93.539062 40.71875 C 92.496094 40.433594 92.050781 42.050781 93.09375 42.335938 C 96.011719 43.140625 97.925781 39.691406 98.6875 37.40625 C 99.144531 36.027344 99.347656 34.578125 99.277344 33.125 C 99.207031 31.722656 98.832031 30.386719 97.554688 29.625 C 96.199219 28.84375 94.496094 29.011719 93.320312 30.050781 C 92.996094 30.378906 92.996094 30.90625 93.320312 31.234375 C 93.652344 31.554688 94.175781 31.554688 94.507812 31.234375 Z M 94.507812 31.234375 "/>
<path style=" stroke:none;fill-rule:nonzero;fill:rgb(12.941177%,9.019608%,8.235294%);fill-opacity:1;" d="M 56.867188 30.050781 C 55.800781 29.109375 54.285156 28.875 52.984375 29.445312 C 51.644531 30.039062 51.082031 31.277344 50.945312 32.667969 C 50.664062 35.5 51.511719 38.664062 53.363281 40.855469 C 54.355469 42.027344 55.78125 42.96875 57.367188 42.597656 C 58.417969 42.355469 57.972656 40.734375 56.921875 40.980469 C 55.820312 41.238281 54.746094 40.015625 54.203125 39.203125 C 53.449219 38.042969 52.945312 36.738281 52.714844 35.375 C 52.601562 34.710938 52.554688 34.035156 52.578125 33.359375 C 52.59375 32.769531 52.609375 32.066406 52.953125 31.5625 C 53.265625 31.148438 53.730469 30.878906 54.246094 30.816406 C 54.761719 30.753906 55.277344 30.90625 55.679688 31.234375 C 56.011719 31.550781 56.535156 31.550781 56.867188 31.234375 C 57.1875 30.90625 57.1875 30.378906 56.867188 30.050781 Z M 56.867188 30.050781 "/>
<path style=" stroke:none;fill-rule:nonzero;fill:rgb(12.941177%,9.019608%,8.235294%);fill-opacity:1;" d="M 86.984375 57.746094 C 86.605469 60.273438 86.089844 62.78125 85.441406 65.253906 C 84.925781 67.242188 84.261719 69.167969 83.5625 71.09375 C 82.011719 75.382812 80.496094 79.703125 78.714844 83.902344 C 76.476562 89.175781 73.660156 94.128906 70.84375 99.101562 C 70.171875 100.265625 69.5625 101.460938 69.015625 102.6875 C 68.550781 103.65625 68.167969 104.664062 67.878906 105.703125 C 67.464844 107.421875 67.40625 109.246094 67.355469 111.003906 C 67.226562 115.210938 67.417969 119.414062 67.519531 123.621094 C 67.53125 123.980469 67.535156 124.339844 67.542969 124.699219 C 67.558594 125.777344 69.234375 125.78125 69.21875 124.699219 C 69.164062 120.6875 68.957031 116.679688 69 112.664062 C 69.007812 111.625 69.035156 110.585938 69.09375 109.546875 C 69.117188 109.082031 69.148438 108.621094 69.191406 108.160156 C 69.210938 107.957031 69.230469 107.753906 69.253906 107.550781 C 69.269531 107.441406 69.28125 107.328125 69.296875 107.21875 C 69.277344 107.375 69.316406 107.085938 69.324219 107.050781 C 69.632812 105.039062 70.578125 103.101562 71.523438 101.320312 C 72.84375 98.832031 74.316406 96.425781 75.667969 93.957031 C 77.011719 91.503906 78.277344 89.011719 79.417969 86.457031 C 81.410156 82.003906 83.058594 77.402344 84.71875 72.820312 C 85.34375 71.097656 86.003906 69.382812 86.527344 67.628906 C 87.277344 65.0625 87.882812 62.457031 88.335938 59.824219 C 88.433594 59.28125 88.519531 58.738281 88.601562 58.191406 C 88.710938 57.746094 88.453125 57.292969 88.015625 57.15625 C 87.570312 57.039062 87.109375 57.300781 86.984375 57.742188 Z M 86.984375 57.746094 "/>
<path style=" stroke:none;fill-rule:nonzero;fill:rgb(12.941177%,9.019608%,8.235294%);fill-opacity:1;" d="M 62.34375 57.796875 C 62.777344 62.976562 63.800781 68.089844 65.402344 73.035156 C 66.941406 77.6875 68.734375 82.25 70.769531 86.703125 C 71.847656 89.140625 72.953125 91.5625 74.027344 94 C 74.261719 94.398438 74.773438 94.53125 75.175781 94.300781 C 75.566406 94.058594 75.699219 93.554688 75.476562 93.152344 C 71.628906 84.414062 67.445312 75.777344 65.335938 66.40625 C 64.691406 63.574219 64.253906 60.695312 64.023438 57.796875 C 64.011719 57.339844 63.640625 56.96875 63.183594 56.957031 C 62.722656 56.960938 62.347656 57.335938 62.34375 57.796875 Z M 62.34375 57.796875 "/>
<path style=" stroke:none;fill-rule:nonzero;fill:rgb(12.941177%,9.019608%,8.235294%);fill-opacity:1;" d="M 82.3125 68.039062 C 84.035156 66.023438 85.539062 63.832031 86.808594 61.503906 C 87.113281 60.929688 87.40625 60.351562 87.6875 59.765625 C 87.859375 59.460938 88.003906 59.144531 88.121094 58.816406 C 88.238281 58.398438 87.964844 58.023438 87.777344 57.671875 C 87.214844 56.566406 86.464844 55.566406 85.566406 54.707031 C 85.378906 54.53125 85.121094 54.445312 84.867188 54.480469 C 84.609375 54.511719 84.382812 54.660156 84.25 54.878906 C 82.839844 56.742188 80.433594 58.234375 78.285156 59.304688 C 77.585938 59.65625 76.855469 59.921875 76.15625 60.261719 C 75.425781 60.613281 74.996094 61.304688 75.515625 62.054688 C 76.058594 62.851562 76.867188 63.488281 77.515625 64.195312 C 78.703125 65.488281 79.992188 66.695312 81.128906 68.039062 C 81.457031 68.363281 81.984375 68.363281 82.3125 68.039062 C 82.632812 67.710938 82.632812 67.183594 82.3125 66.851562 C 81.246094 65.589844 80.039062 64.453125 78.914062 63.242188 C 78.433594 62.71875 77.949219 62.203125 77.445312 61.703125 C 77.308594 61.566406 77.175781 61.429688 77.039062 61.296875 C 76.984375 61.242188 76.863281 61.066406 77.035156 61.3125 C 77.015625 61.28125 76.902344 61.089844 76.914062 61.144531 L 76.914062 61.59375 L 76.941406 61.496094 L 76.722656 61.867188 C 76.640625 61.964844 76.8125 61.804688 76.875 61.773438 C 76.941406 61.738281 77.003906 61.707031 77.070312 61.675781 C 77.355469 61.546875 77.644531 61.4375 77.929688 61.316406 C 78.429688 61.097656 78.921875 60.863281 79.40625 60.617188 C 80.296875 60.160156 81.160156 59.648438 81.984375 59.085938 C 83.398438 58.175781 84.652344 57.042969 85.699219 55.726562 L 84.378906 55.894531 C 85.292969 56.796875 86.042969 57.851562 86.589844 59.015625 L 86.589844 58.167969 C 85.164062 61.292969 83.328125 64.214844 81.128906 66.855469 C 80.808594 67.1875 80.808594 67.710938 81.128906 68.042969 C 81.457031 68.363281 81.984375 68.363281 82.3125 68.039062 Z M 82.3125 68.039062 "/>
<path style=" stroke:none;fill-rule:nonzero;fill:rgb(12.941177%,9.019608%,8.235294%);fill-opacity:1;" d="M 69.515625 66.851562 C 67.3125 64.214844 65.476562 61.292969 64.050781 58.167969 L 64.050781 59.015625 C 64.597656 57.851562 65.347656 56.796875 66.261719 55.894531 L 64.945312 55.726562 C 65.988281 57.042969 67.242188 58.175781 68.65625 59.085938 C 69.484375 59.648438 70.34375 60.160156 71.234375 60.617188 C 71.695312 60.851562 72.164062 61.074219 72.636719 61.285156 C 72.921875 61.410156 73.210938 61.523438 73.496094 61.644531 C 73.585938 61.6875 73.675781 61.726562 73.765625 61.773438 C 73.824219 61.804688 74.019531 61.984375 73.917969 61.867188 L 73.699219 61.496094 L 73.726562 61.59375 L 73.726562 61.144531 C 73.738281 61.089844 73.625 61.28125 73.605469 61.3125 C 73.78125 61.066406 73.65625 61.242188 73.601562 61.296875 C 73.464844 61.429688 73.332031 61.566406 73.195312 61.703125 C 72.691406 62.203125 72.207031 62.722656 71.726562 63.242188 C 70.601562 64.453125 69.394531 65.589844 68.328125 66.851562 C 68.011719 67.1875 68.011719 67.707031 68.328125 68.042969 C 68.65625 68.363281 69.183594 68.363281 69.515625 68.042969 C 70.511719 66.859375 71.632812 65.789062 72.691406 64.664062 C 73.183594 64.140625 73.664062 63.609375 74.171875 63.101562 C 74.414062 62.855469 74.679688 62.621094 74.90625 62.355469 C 75.382812 61.78125 75.597656 61.015625 74.894531 60.5 C 74.316406 60.082031 73.558594 59.878906 72.914062 59.574219 C 71.582031 58.957031 70.308594 58.214844 69.109375 57.363281 C 68.089844 56.667969 67.175781 55.832031 66.394531 54.878906 C 66.257812 54.660156 66.03125 54.511719 65.773438 54.480469 C 65.519531 54.445312 65.261719 54.53125 65.074219 54.707031 C 64.175781 55.5625 63.429688 56.566406 62.863281 57.671875 C 62.695312 57.992188 62.453125 58.324219 62.503906 58.703125 C 62.59375 59.054688 62.738281 59.386719 62.925781 59.699219 C 63.214844 60.304688 63.515625 60.90625 63.832031 61.503906 C 65.101562 63.832031 66.609375 66.019531 68.328125 68.039062 C 68.65625 68.363281 69.183594 68.363281 69.515625 68.039062 C 69.832031 67.707031 69.832031 67.183594 69.515625 66.851562 Z M 69.515625 66.851562 "/>
<path style=" stroke:none;fill-rule:nonzero;fill:rgb(12.941177%,9.019608%,8.235294%);fill-opacity:1;" d="M 86.820312 60.84375 C 86.953125 60.984375 86.855469 60.863281 86.929688 60.972656 C 86.996094 61.0625 87.054688 61.160156 87.113281 61.253906 C 87.269531 61.511719 87.40625 61.777344 87.535156 62.046875 C 87.777344 62.535156 87.984375 63.035156 88.15625 63.550781 C 89.371094 67.535156 89.90625 71.699219 89.734375 75.859375 C 89.644531 77.625 89.433594 79.378906 89.171875 81.125 C 89.066406 81.570312 89.320312 82.023438 89.757812 82.15625 C 90.207031 82.277344 90.664062 82.015625 90.792969 81.570312 C 91.257812 78.457031 91.589844 75.308594 91.414062 72.15625 C 91.246094 69.144531 90.714844 66.164062 89.832031 63.28125 C 89.617188 62.605469 89.351562 61.945312 89.039062 61.308594 C 88.78125 60.707031 88.433594 60.152344 88.007812 59.65625 C 87.261719 58.875 86.074219 60.0625 86.816406 60.84375 Z M 86.820312 60.84375 "/>
<path style=" stroke:none;fill-rule:nonzero;fill:rgb(100%,100%,100%);fill-opacity:1;" d="M 20.820312 61.867188 C 19.957031 58.558594 18.003906 51.777344 17.253906 50.828125 C 16.6875 50.105469 16.015625 49.546875 14.769531 50.074219 C 13.699219 50.53125 13.871094 51.765625 14.074219 52.789062 C 14.285156 53.847656 15.652344 59.382812 16.445312 62.246094 C 15.875 61.453125 14.832031 61.15625 13.929688 61.535156 C 13.089844 61.917969 12.765625 62.632812 12.859375 63.152344 C 12.9375 63.550781 13.070312 63.9375 13.246094 64.304688 C 12.714844 63.78125 11.757812 63.785156 11.074219 64.148438 C 10.347656 64.539062 9.617188 65.578125 9.976562 66.328125 C 10.132812 66.65625 10.335938 67.035156 10.558594 67.417969 L 10.304688 67.210938 C 9.382812 66.453125 7.785156 66.917969 7.523438 67.929688 C 7.324219 68.703125 7.660156 69.621094 8.09375 70.328125 C 8.152344 70.429688 8.21875 70.535156 8.289062 70.648438 L 8.351562 70.839844 C 8.941406 72.667969 10.09375 75.464844 11.816406 77.457031 C 12.617188 78.382812 13.539062 79.296875 14.265625 80.289062 C 14.992188 81.28125 15.171875 82.378906 15.523438 83.566406 L 15.675781 84.039062 C 17.402344 83.402344 22.640625 81.453125 25.621094 80.066406 L 25.539062 79.808594 C 25.265625 78.535156 24.960938 76.878906 25.140625 75.796875 C 25.464844 74.582031 25.871094 73.386719 26.359375 72.226562 C 26.757812 71.285156 26.933594 70.261719 26.867188 69.238281 C 26.742188 68.078125 26.441406 66.417969 25.574219 65.207031 C 25.382812 64.945312 25.136719 64.726562 24.855469 64.558594 C 23.820312 63.925781 22.539062 63.894531 21.324219 63.96875 L 21.214844 63.480469 C 21.15625 63.199219 21.019531 62.625 20.820312 61.867188 Z M 20.820312 61.867188 "/>
<path style=" stroke:none;fill-rule:nonzero;fill:rgb(12.941177%,9.019608%,8.235294%);fill-opacity:1;" d="M 17.242188 61.992188 C 16.621094 59.730469 16.050781 57.453125 15.492188 55.175781 C 15.296875 54.371094 15.097656 53.566406 14.925781 52.757812 C 14.824219 52.359375 14.769531 51.949219 14.761719 51.535156 C 14.769531 51.082031 14.890625 50.855469 15.417969 50.742188 C 15.914062 50.632812 16.160156 50.851562 16.488281 51.210938 C 16.507812 51.230469 16.648438 51.40625 16.570312 51.304688 C 16.519531 51.234375 16.558594 51.289062 16.570312 51.304688 C 16.589844 51.335938 16.613281 51.367188 16.628906 51.398438 C 16.683594 51.492188 16.734375 51.585938 16.78125 51.683594 C 16.808594 51.742188 16.835938 51.800781 16.859375 51.855469 C 16.875 51.886719 16.957031 52.078125 16.90625 51.953125 C 16.851562 51.832031 16.941406 52.039062 16.953125 52.070312 C 16.988281 52.160156 17.023438 52.25 17.058594 52.339844 C 17.195312 52.695312 17.324219 53.058594 17.449219 53.421875 C 18.089844 55.273438 18.640625 57.15625 19.175781 59.039062 C 19.613281 60.582031 20.089844 62.132812 20.402344 63.707031 C 20.527344 64.152344 20.988281 64.414062 21.433594 64.292969 C 21.882812 64.167969 22.144531 63.707031 22.019531 63.257812 C 21.726562 61.78125 21.28125 60.320312 20.871094 58.867188 C 20.304688 56.851562 19.714844 54.839844 19.027344 52.859375 C 18.480469 51.292969 17.804688 49.148438 15.804688 49.03125 C 15.003906 48.984375 14.222656 49.285156 13.660156 49.859375 C 13.230469 50.390625 13.027344 51.070312 13.089844 51.75 C 13.171875 52.644531 13.335938 53.53125 13.578125 54.398438 C 14.214844 57.089844 14.886719 59.773438 15.621094 62.4375 C 15.90625 63.480469 17.523438 63.039062 17.238281 61.992188 Z M 17.242188 61.992188 "/>
<path style=" stroke:none;fill-rule:nonzero;fill:rgb(12.941177%,9.019608%,8.235294%);fill-opacity:1;" d="M 7.542969 71.0625 C 8.214844 73.289062 9.25 75.394531 10.609375 77.285156 C 11.421875 78.359375 12.394531 79.292969 13.246094 80.332031 C 13.636719 80.789062 13.941406 81.3125 14.15625 81.875 C 14.378906 82.5 14.53125 83.152344 14.71875 83.789062 C 15.019531 84.824219 16.640625 84.386719 16.335938 83.34375 C 15.964844 82.089844 15.695312 80.8125 14.898438 79.742188 C 14.070312 78.628906 13.058594 77.675781 12.1875 76.597656 C 10.78125 74.867188 9.84375 72.722656 9.160156 70.617188 C 8.828125 69.59375 7.207031 70.03125 7.542969 71.0625 Z M 7.542969 71.0625 "/>
<path style=" stroke:none;fill-rule:nonzero;fill:rgb(12.941177%,9.019608%,8.235294%);fill-opacity:1;" d="M 22.226562 70.261719 C 22.113281 69.625 21.964844 68.996094 21.777344 68.375 C 21.632812 67.792969 21.269531 67.292969 20.757812 66.980469 C 20.234375 66.722656 19.667969 66.574219 19.085938 66.539062 C 18.921875 66.515625 18.757812 66.46875 18.59375 66.441406 C 18.691406 66.457031 18.542969 66.363281 18.605469 66.457031 C 18.65625 66.539062 18.632812 66.507812 18.539062 66.355469 C 18.5 66.292969 18.464844 66.226562 18.4375 66.15625 C 18.367188 65.96875 18.371094 65.761719 18.449219 65.578125 C 18.492188 65.460938 18.550781 65.347656 18.617188 65.242188 C 18.824219 64.886719 18.683594 65.160156 18.65625 65.175781 C 19.097656 65 19.570312 64.902344 20.046875 64.898438 C 21.164062 64.800781 22.375 64.644531 23.484375 64.90625 C 23.980469 64.996094 24.441406 65.230469 24.804688 65.585938 C 25.144531 66.007812 25.398438 66.492188 25.550781 67.011719 C 25.863281 67.871094 26.03125 68.773438 26.046875 69.683594 C 26.027344 71.246094 25.292969 72.539062 24.800781 74 C 24.675781 74.375 24.550781 74.753906 24.4375 75.136719 C 24.40625 75.25 24.367188 75.363281 24.347656 75.480469 C 24.328125 75.574219 24.316406 75.667969 24.304688 75.761719 C 24.332031 75.558594 24.28125 75.914062 24.269531 76.027344 C 24.144531 77.355469 24.453125 78.738281 24.730469 80.03125 C 24.957031 81.085938 26.574219 80.640625 26.347656 79.585938 C 26.101562 78.429688 25.824219 77.207031 25.949219 76.019531 C 25.957031 75.949219 25.96875 75.855469 25.980469 75.789062 C 25.992188 75.71875 25.902344 75.996094 25.960938 75.941406 C 25.976562 75.921875 25.980469 75.851562 25.988281 75.824219 C 26.027344 75.6875 26.0625 75.546875 26.105469 75.410156 C 26.222656 75.023438 26.351562 74.640625 26.480469 74.257812 C 26.613281 73.863281 26.753906 73.472656 26.898438 73.082031 C 26.929688 73 26.964844 72.917969 26.996094 72.835938 C 27.027344 72.757812 27.070312 72.671875 27.003906 72.808594 C 27.089844 72.632812 27.175781 72.457031 27.25 72.273438 C 27.632812 71.3125 27.789062 70.273438 27.703125 69.238281 C 27.609375 68.027344 27.3125 66.84375 26.832031 65.730469 C 26.316406 64.492188 25.230469 63.582031 23.921875 63.289062 C 22.65625 62.988281 21.324219 63.105469 20.042969 63.222656 C 19.375 63.246094 18.71875 63.375 18.089844 63.597656 C 17.5 63.863281 17.054688 64.375 16.875 65 C 16.367188 66.320312 17.082031 67.910156 18.523438 68.136719 C 18.960938 68.207031 19.816406 68.160156 20.078125 68.59375 C 20.1875 68.863281 20.265625 69.144531 20.308594 69.433594 C 20.433594 69.851562 20.53125 70.277344 20.605469 70.707031 C 20.730469 71.152344 21.1875 71.414062 21.636719 71.292969 C 22.078125 71.164062 22.335938 70.710938 22.226562 70.261719 Z M 22.226562 70.261719 "/>
<path style=" stroke:none;fill-rule:nonzero;fill:rgb(12.941177%,9.019608%,8.235294%);fill-opacity:1;" d="M 11.878906 70.941406 C 11.917969 71.082031 11.890625 70.785156 11.886719 70.980469 C 11.882812 71.183594 11.925781 70.898438 11.878906 71.042969 C 11.867188 71.085938 11.769531 71.328125 11.851562 71.164062 C 11.808594 71.25 11.765625 71.332031 11.714844 71.414062 C 11.6875 71.457031 11.660156 71.496094 11.632812 71.535156 C 11.640625 71.523438 11.71875 71.433594 11.65625 71.507812 C 11.605469 71.570312 11.550781 71.628906 11.492188 71.6875 C 11.457031 71.71875 11.425781 71.746094 11.390625 71.777344 C 11.414062 71.753906 11.53125 71.691406 11.40625 71.761719 C 11.382812 71.773438 11.355469 71.792969 11.328125 71.808594 C 11.222656 71.875 11.261719 71.824219 11.351562 71.804688 C 11.304688 71.8125 11.101562 71.867188 11.183594 71.851562 C 11.265625 71.835938 11.039062 71.859375 10.996094 71.859375 C 10.960938 71.859375 10.664062 71.839844 10.824219 71.859375 C 10.71875 71.847656 10.617188 71.824219 10.511719 71.792969 C 10.460938 71.78125 10.410156 71.761719 10.359375 71.746094 C 10.355469 71.746094 10.234375 71.699219 10.3125 71.734375 C 10.402344 71.769531 10.257812 71.703125 10.238281 71.691406 C 10.203125 71.675781 10.171875 71.660156 10.136719 71.636719 C 10.09375 71.613281 10.054688 71.585938 10.011719 71.554688 C 10.042969 71.578125 10.125 71.65625 10.015625 71.550781 C 9.945312 71.480469 9.871094 71.414062 9.800781 71.339844 C 9.734375 71.265625 9.679688 71.195312 9.617188 71.125 C 9.53125 71.015625 9.679688 71.207031 9.59375 71.09375 C 9.570312 71.058594 9.542969 71.023438 9.519531 70.992188 C 9.386719 70.808594 9.261719 70.617188 9.140625 70.425781 C 8.914062 70.085938 8.707031 69.730469 8.527344 69.359375 C 8.523438 69.347656 8.46875 69.210938 8.507812 69.3125 C 8.492188 69.269531 8.476562 69.226562 8.460938 69.183594 C 8.425781 69.085938 8.394531 68.988281 8.371094 68.886719 C 8.355469 68.828125 8.34375 68.773438 8.332031 68.714844 C 8.324219 68.695312 8.304688 68.550781 8.320312 68.679688 C 8.304688 68.566406 8.3125 68.453125 8.304688 68.339844 C 8.304688 68.316406 8.320312 68.171875 8.300781 68.3125 C 8.304688 68.273438 8.3125 68.230469 8.324219 68.191406 C 8.339844 68.152344 8.351562 68.109375 8.359375 68.066406 C 8.367188 67.988281 8.339844 68.117188 8.332031 68.132812 C 8.363281 68.085938 8.5 67.898438 8.355469 68.058594 C 8.410156 67.996094 8.464844 67.941406 8.519531 67.886719 C 8.5625 67.84375 8.632812 67.832031 8.496094 67.90625 C 8.53125 67.886719 8.5625 67.859375 8.597656 67.839844 C 8.632812 67.816406 8.671875 67.800781 8.707031 67.777344 C 8.835938 67.699219 8.617188 67.792969 8.707031 67.773438 C 8.789062 67.757812 8.871094 67.71875 8.953125 67.699219 C 8.996094 67.691406 9.039062 67.683594 9.078125 67.671875 C 9.183594 67.644531 8.886719 67.679688 9.082031 67.675781 C 9.167969 67.675781 9.257812 67.675781 9.34375 67.675781 C 9.398438 67.675781 9.476562 67.714844 9.3125 67.671875 C 9.355469 67.683594 9.398438 67.6875 9.441406 67.699219 C 9.480469 67.707031 9.523438 67.722656 9.566406 67.734375 C 9.707031 67.769531 9.511719 67.679688 9.574219 67.734375 C 9.621094 67.769531 9.863281 67.914062 9.714844 67.796875 C 10.046875 68.113281 10.566406 68.113281 10.898438 67.796875 C 11.222656 67.46875 11.222656 66.941406 10.898438 66.613281 C 10.015625 65.902344 8.792969 65.800781 7.804688 66.355469 C 6.714844 66.960938 6.457031 68.183594 6.753906 69.328125 C 6.921875 69.90625 7.171875 70.460938 7.503906 70.964844 C 7.800781 71.46875 8.136719 71.949219 8.511719 72.402344 C 9.285156 73.308594 10.496094 73.714844 11.660156 73.453125 C 12.835938 73.179688 13.832031 71.675781 13.496094 70.492188 C 13.375 70.042969 12.910156 69.78125 12.464844 69.90625 C 12.019531 70.027344 11.757812 70.492188 11.878906 70.9375 Z M 11.878906 70.941406 "/>
<path style=" stroke:none;fill-rule:nonzero;fill:rgb(12.941177%,9.019608%,8.235294%);fill-opacity:1;" d="M 13.917969 63.796875 C 12.894531 62.667969 11.070312 62.933594 10.03125 63.882812 C 9.449219 64.386719 9.09375 65.101562 9.042969 65.871094 C 9.039062 66.597656 9.503906 67.28125 9.859375 67.886719 C 10.441406 68.878906 11.140625 69.832031 11.804688 70.773438 C 12.082031 71.210938 12.414062 71.613281 12.789062 71.964844 C 13.351562 72.40625 14.058594 72.628906 14.773438 72.585938 C 16.574219 72.511719 17.566406 70.746094 17.113281 69.089844 C 16.828125 68.050781 15.210938 68.492188 15.496094 69.539062 C 15.632812 69.902344 15.574219 70.308594 15.34375 70.621094 C 15.398438 70.546875 15.242188 70.71875 15.21875 70.742188 C 15.148438 70.804688 15.21875 70.75 15.230469 70.738281 C 15.203125 70.761719 15.167969 70.78125 15.136719 70.804688 C 14.996094 70.886719 14.832031 70.925781 14.667969 70.914062 C 14.480469 70.914062 14.289062 70.878906 14.113281 70.816406 C 14.046875 70.78125 13.980469 70.75 13.910156 70.722656 C 13.898438 70.71875 13.800781 70.65625 13.914062 70.730469 C 14.023438 70.804688 13.882812 70.699219 13.867188 70.683594 C 13.636719 70.453125 13.433594 70.199219 13.253906 69.929688 C 12.789062 69.269531 12.335938 68.605469 11.878906 67.941406 C 11.550781 67.460938 11.253906 66.964844 10.980469 66.453125 C 10.878906 66.285156 10.792969 66.109375 10.722656 65.929688 C 10.746094 66 10.722656 65.863281 10.722656 65.855469 C 10.742188 65.757812 10.773438 65.664062 10.820312 65.574219 C 11.007812 65.191406 11.347656 64.902344 11.761719 64.777344 C 12.097656 64.644531 12.480469 64.722656 12.734375 64.984375 C 13.460938 65.785156 14.644531 64.59375 13.921875 63.796875 Z M 13.917969 63.796875 "/>
<path style=" stroke:none;fill-rule:nonzero;fill:rgb(12.941177%,9.019608%,8.235294%);fill-opacity:1;" d="M 18.300781 67.660156 C 18.363281 68.039062 18.230469 68.425781 17.941406 68.683594 C 17.75 68.867188 17.46875 68.921875 17.222656 68.828125 C 16.859375 68.597656 16.5625 68.265625 16.375 67.878906 C 16.011719 67.28125 15.636719 66.691406 15.261719 66.101562 C 14.644531 65.140625 13.949219 64.152344 13.6875 63.027344 C 13.6875 63.019531 13.648438 62.859375 13.675781 62.964844 C 13.703125 63.066406 13.71875 62.867188 13.679688 62.949219 C 13.636719 63.039062 13.742188 62.734375 13.699219 62.84375 C 13.765625 62.679688 13.878906 62.542969 14.023438 62.441406 C 14.386719 62.175781 14.867188 62.132812 15.273438 62.332031 C 15.726562 62.542969 16.050781 63.050781 16.34375 63.4375 C 16.691406 63.890625 17.027344 64.355469 17.328125 64.839844 C 17.898438 65.753906 19.351562 64.914062 18.777344 63.992188 C 18.398438 63.402344 17.992188 62.832031 17.554688 62.28125 C 17.117188 61.714844 16.679688 61.140625 16.011719 60.832031 C 14.53125 60.140625 12.484375 60.785156 12.066406 62.492188 C 11.886719 63.210938 12.171875 63.941406 12.457031 64.589844 C 12.804688 65.328125 13.207031 66.035156 13.660156 66.710938 C 14.117188 67.429688 14.5625 68.15625 15.019531 68.875 C 15.402344 69.566406 16 70.113281 16.722656 70.433594 C 17.527344 70.683594 18.410156 70.5 19.046875 69.941406 C 19.703125 69.375 20.050781 68.527344 19.980469 67.660156 C 19.925781 66.585938 18.25 66.582031 18.304688 67.660156 Z M 18.300781 67.660156 "/>
<path style=" stroke:none;fill-rule:nonzero;fill:rgb(12.941177%,9.019608%,8.235294%);fill-opacity:1;" d="M 17.21875 87.226562 C 16.761719 86.09375 16.410156 84.914062 15.921875 83.792969 L 15.417969 85.027344 C 18.429688 83.917969 21.433594 82.785156 24.386719 81.527344 C 25.25 81.160156 26.109375 80.78125 26.945312 80.355469 L 25.796875 80.054688 C 26.277344 81.035156 26.691406 82.042969 27.160156 83.03125 C 27.398438 83.425781 27.90625 83.558594 28.308594 83.332031 C 28.699219 83.089844 28.832031 82.582031 28.609375 82.183594 C 28.140625 81.195312 27.726562 80.1875 27.246094 79.207031 C 27.007812 78.8125 26.5 78.679688 26.097656 78.90625 C 23 80.488281 19.667969 81.664062 16.410156 82.878906 C 15.929688 83.054688 15.453125 83.234375 14.972656 83.410156 C 14.726562 83.484375 14.527344 83.667969 14.429688 83.90625 C 14.332031 84.144531 14.347656 84.414062 14.472656 84.640625 C 14.386719 84.449219 14.433594 84.550781 14.480469 84.667969 C 14.515625 84.769531 14.554688 84.867188 14.589844 84.964844 C 14.695312 85.25 14.800781 85.539062 14.90625 85.824219 C 15.128906 86.445312 15.355469 87.0625 15.601562 87.675781 C 15.734375 88.113281 16.1875 88.367188 16.632812 88.261719 C 17.078125 88.132812 17.339844 87.675781 17.21875 87.226562 Z M 17.21875 87.226562 "/>
<path style=" stroke:none;fill-rule:nonzero;fill:rgb(12.941177%,9.019608%,8.235294%);fill-opacity:1;" d="M 36.90625 98.292969 C 34.492188 92.949219 32.289062 87.519531 30.074219 82.089844 C 30 81.84375 29.816406 81.644531 29.578125 81.546875 C 29.339844 81.449219 29.070312 81.464844 28.84375 81.589844 C 26.5625 82.789062 24.238281 83.894531 21.863281 84.90625 C 19.640625 85.90625 17.328125 86.703125 14.957031 87.28125 C 14.515625 87.40625 14.253906 87.867188 14.371094 88.3125 C 15.628906 92.332031 16.835938 96.371094 18.226562 100.347656 C 18.917969 102.316406 19.652344 104.273438 20.457031 106.199219 C 21.128906 107.894531 21.921875 109.539062 22.824219 111.125 C 24.511719 113.976562 26.867188 116.472656 30.074219 117.558594 C 33.648438 118.757812 37.570312 118.308594 40.785156 116.332031 C 42.425781 115.3125 43.792969 113.914062 45.058594 112.46875 C 46.316406 111.035156 47.476562 109.515625 48.660156 108.019531 C 48.972656 107.6875 48.972656 107.167969 48.660156 106.832031 C 48.332031 106.507812 47.800781 106.507812 47.472656 106.832031 C 45.460938 109.378906 43.511719 112.128906 40.960938 114.167969 C 38.292969 116.269531 34.808594 117.027344 31.507812 116.222656 C 28.480469 115.503906 26.234375 113.398438 24.605469 110.824219 C 22.664062 107.75 21.394531 104.238281 20.175781 100.832031 C 18.640625 96.554688 17.34375 92.203125 15.988281 87.863281 L 15.402344 88.894531 C 17.875 88.351562 20.257812 87.394531 22.582031 86.40625 C 24.996094 85.382812 27.363281 84.261719 29.6875 83.035156 L 28.457031 82.535156 C 30.722656 88.097656 32.984375 93.664062 35.457031 99.136719 C 35.695312 99.535156 36.207031 99.667969 36.605469 99.4375 C 36.996094 99.199219 37.128906 98.691406 36.90625 98.289062 Z M 36.90625 98.292969 "/>
<path style=" stroke:none;fill-rule:nonzero;fill:rgb(12.941177%,9.019608%,8.235294%);fill-opacity:1;" d="M 72.703125 31.476562 C 72.703125 31.523438 72.710938 31.566406 72.707031 31.613281 L 74.355469 31.390625 C 74.257812 30.664062 73.863281 30.011719 73.265625 29.59375 C 72.667969 29.214844 72.011719 28.945312 71.324219 28.789062 C 69.851562 28.429688 68.332031 28.300781 66.820312 28.410156 C 65.289062 28.445312 63.777344 28.734375 62.339844 29.261719 C 61.648438 29.511719 61.074219 30.011719 60.730469 30.664062 C 60.457031 31.324219 60.332031 32.039062 60.375 32.753906 C 60.359375 34.078125 60.714844 35.386719 61.402344 36.523438 C 62.117188 37.59375 63.320312 38.171875 64.511719 38.554688 C 65.644531 38.898438 66.832031 39.019531 68.007812 38.917969 C 69.285156 38.875 70.539062 38.601562 71.71875 38.117188 C 74.328125 36.960938 74.726562 33.75 74.347656 31.253906 C 74.222656 30.808594 73.761719 30.546875 73.316406 30.667969 C 72.878906 30.796875 72.621094 31.253906 72.730469 31.699219 C 72.960938 33.210938 72.851562 35.316406 71.507812 36.320312 C 70.816406 36.832031 69.800781 37.058594 68.960938 37.167969 C 68.050781 37.304688 67.128906 37.328125 66.210938 37.238281 C 65.207031 37.117188 64.246094 36.761719 63.40625 36.203125 C 62.640625 35.691406 62.335938 34.742188 62.167969 33.875 C 62.078125 33.40625 62.039062 32.929688 62.054688 32.453125 C 62.066406 31.972656 62.089844 31.40625 62.492188 31.082031 C 62.878906 30.820312 63.316406 30.640625 63.777344 30.5625 C 64.433594 30.382812 65.101562 30.253906 65.773438 30.175781 C 67.167969 29.992188 68.578125 30.003906 69.96875 30.210938 C 70.632812 30.308594 71.28125 30.488281 71.898438 30.746094 C 72.117188 30.824219 72.320312 30.949219 72.492188 31.109375 C 72.636719 31.324219 72.722656 31.574219 72.738281 31.832031 C 72.910156 32.800781 74.34375 32.511719 74.386719 31.609375 C 74.386719 31.566406 74.378906 31.519531 74.378906 31.476562 C 74.417969 30.398438 72.742188 30.398438 72.703125 31.476562 Z M 72.703125 31.476562 "/>
<path style=" stroke:none;fill-rule:nonzero;fill:rgb(12.941177%,9.019608%,8.235294%);fill-opacity:1;" d="M 76.875 31.476562 C 76.875 31.523438 76.867188 31.566406 76.871094 31.613281 C 76.875 32.027344 77.183594 32.378906 77.597656 32.4375 C 78.011719 32.496094 78.40625 32.238281 78.519531 31.835938 C 78.53125 31.382812 78.808594 30.984375 79.226562 30.8125 C 79.738281 30.574219 80.277344 30.402344 80.828125 30.300781 C 82.042969 30.066406 83.285156 29.996094 84.519531 30.09375 C 85.78125 30.140625 87.03125 30.371094 88.226562 30.785156 C 88.65625 30.902344 88.988281 31.234375 89.113281 31.660156 C 89.21875 32.164062 89.246094 32.679688 89.183594 33.191406 C 89.117188 34.078125 88.882812 35.15625 88.277344 35.847656 C 87.648438 36.570312 86.640625 36.867188 85.769531 37.09375 C 83.949219 37.417969 82.078125 37.265625 80.335938 36.648438 C 78.480469 35.867188 78.265625 33.433594 78.527344 31.699219 C 78.632812 31.253906 78.378906 30.800781 77.941406 30.667969 C 77.492188 30.546875 77.035156 30.808594 76.90625 31.253906 C 76.5625 33.539062 76.824219 36.277344 78.859375 37.734375 C 79.820312 38.425781 81.140625 38.714844 82.296875 38.847656 C 83.457031 39.007812 84.632812 38.996094 85.785156 38.804688 C 87.074219 38.589844 88.285156 38.039062 89.292969 37.203125 C 90.222656 36.371094 90.628906 34.992188 90.792969 33.800781 C 90.976562 32.476562 91.007812 30.800781 89.90625 29.851562 C 89.324219 29.402344 88.644531 29.09375 87.925781 28.945312 C 87.148438 28.742188 86.359375 28.597656 85.5625 28.507812 C 83.867188 28.285156 82.140625 28.339844 80.460938 28.667969 C 79.675781 28.808594 78.914062 29.074219 78.210938 29.453125 C 77.496094 29.859375 77.011719 30.574219 76.902344 31.390625 L 78.550781 31.613281 C 78.550781 31.566406 78.558594 31.523438 78.554688 31.476562 C 78.515625 30.402344 76.835938 30.394531 76.875 31.476562 Z M 76.875 31.476562 "/>
<path style=" stroke:none;fill-rule:nonzero;fill:rgb(12.941177%,9.019608%,8.235294%);fill-opacity:1;" d="M 74.179688 32.824219 C 74.328125 32.785156 74.484375 32.75 74.636719 32.722656 C 74.703125 32.710938 74.769531 32.699219 74.835938 32.691406 C 75.058594 32.65625 74.652344 32.707031 74.878906 32.683594 C 75.167969 32.65625 75.457031 32.644531 75.746094 32.644531 C 75.878906 32.648438 76.011719 32.652344 76.144531 32.664062 C 76.222656 32.667969 76.300781 32.675781 76.378906 32.6875 C 76.414062 32.691406 76.445312 32.691406 76.480469 32.699219 C 76.367188 32.683594 76.359375 32.679688 76.453125 32.695312 C 76.742188 32.742188 77.027344 32.808594 77.304688 32.882812 C 77.753906 33.007812 78.214844 32.746094 78.339844 32.296875 C 78.460938 31.851562 78.199219 31.390625 77.753906 31.265625 C 76.441406 30.894531 75.054688 30.875 73.734375 31.203125 C 73.289062 31.332031 73.027344 31.789062 73.148438 32.234375 C 73.277344 32.675781 73.734375 32.9375 74.179688 32.824219 Z M 74.179688 32.824219 "/>
<path style=" stroke:none;fill-rule:nonzero;fill:rgb(12.941177%,9.019608%,8.235294%);fill-opacity:1;" d="M 61.421875 30.828125 C 60.847656 30.695312 60.257812 30.636719 59.664062 30.652344 C 59.445312 30.65625 59.230469 30.742188 59.070312 30.898438 C 58.832031 31.136719 58.757812 31.5 58.886719 31.8125 C 59.019531 32.125 59.324219 32.332031 59.664062 32.332031 C 60.003906 32.320312 60.339844 32.335938 60.671875 32.382812 L 60.449219 32.351562 C 60.625 32.375 60.800781 32.40625 60.972656 32.445312 C 61.191406 32.5 61.421875 32.472656 61.621094 32.363281 C 62.019531 32.128906 62.15625 31.613281 61.921875 31.214844 C 61.808594 31.023438 61.628906 30.886719 61.421875 30.828125 Z M 61.421875 30.828125 "/>
<path style=" stroke:none;fill-rule:nonzero;fill:rgb(12.941177%,9.019608%,8.235294%);fill-opacity:1;" d="M 90.300781 32.445312 C 90.476562 32.40625 90.648438 32.375 90.824219 32.351562 L 90.601562 32.378906 C 90.9375 32.335938 91.273438 32.320312 91.609375 32.328125 C 91.949219 32.332031 92.257812 32.125 92.386719 31.8125 C 92.515625 31.5 92.445312 31.136719 92.203125 30.898438 C 92.042969 30.746094 91.832031 30.65625 91.609375 30.652344 C 91.019531 30.636719 90.429688 30.695312 89.855469 30.828125 C 89.527344 30.917969 89.289062 31.191406 89.246094 31.527344 C 89.199219 31.863281 89.363281 32.191406 89.652344 32.359375 C 89.851562 32.46875 90.082031 32.496094 90.300781 32.445312 Z M 90.300781 32.445312 "/>
<path style=" stroke:none;fill-rule:nonzero;fill:rgb(12.941177%,9.019608%,8.235294%);fill-opacity:1;" d="M 71.503906 45.320312 C 72.558594 46.351562 74.230469 46.652344 75.644531 46.652344 C 77.058594 46.652344 78.730469 46.355469 79.785156 45.324219 C 80.558594 44.566406 79.371094 43.378906 78.597656 44.136719 C 78.5625 44.171875 78.390625 44.320312 78.496094 44.234375 C 78.59375 44.160156 78.367188 44.320312 78.3125 44.355469 C 78.222656 44.410156 78.125 44.460938 78.03125 44.511719 C 77.964844 44.542969 77.898438 44.574219 77.832031 44.601562 C 77.945312 44.554688 77.832031 44.601562 77.777344 44.621094 C 77.09375 44.863281 76.371094 44.980469 75.644531 44.972656 C 74.933594 44.984375 74.222656 44.867188 73.550781 44.632812 C 73.539062 44.628906 73.296875 44.527344 73.453125 44.597656 C 73.398438 44.574219 73.34375 44.546875 73.289062 44.519531 C 73.183594 44.46875 73.078125 44.410156 72.976562 44.347656 C 72.898438 44.300781 72.824219 44.246094 72.75 44.195312 C 72.960938 44.339844 72.742188 44.179688 72.691406 44.128906 C 71.917969 43.375 70.730469 44.558594 71.503906 45.316406 Z M 71.503906 45.320312 "/>
<path style=" stroke:none;fill-rule:nonzero;fill:rgb(12.941177%,9.019608%,8.235294%);fill-opacity:1;" d="M 75.214844 37.519531 C 75.382812 38.121094 75.515625 38.730469 75.613281 39.347656 L 75.585938 39.125 C 75.597656 39.207031 75.597656 39.292969 75.589844 39.375 L 75.621094 39.152344 C 75.617188 39.191406 75.605469 39.230469 75.59375 39.265625 L 75.679688 39.066406 C 75.667969 39.089844 75.652344 39.117188 75.636719 39.136719 L 75.769531 38.96875 C 75.75 38.992188 75.730469 39.011719 75.710938 39.027344 L 75.878906 38.894531 C 75.832031 38.925781 75.785156 38.949219 75.734375 38.972656 L 75.933594 38.886719 C 75.855469 38.921875 75.773438 38.945312 75.691406 38.957031 L 75.914062 38.929688 C 75.835938 38.9375 75.761719 38.9375 75.683594 38.929688 L 75.90625 38.957031 C 75.820312 38.945312 75.738281 38.925781 75.648438 38.914062 C 75.429688 38.863281 75.203125 38.890625 75.003906 38.996094 C 74.601562 39.230469 74.46875 39.746094 74.703125 40.144531 C 74.808594 40.335938 74.992188 40.476562 75.203125 40.53125 C 75.390625 40.554688 75.574219 40.605469 75.765625 40.613281 C 76.046875 40.613281 76.328125 40.546875 76.582031 40.417969 C 76.902344 40.277344 77.140625 39.996094 77.226562 39.65625 C 77.285156 39.378906 77.28125 39.09375 77.21875 38.820312 C 77.121094 38.230469 76.984375 37.648438 76.835938 37.074219 C 76.710938 36.625 76.25 36.363281 75.804688 36.488281 C 75.355469 36.609375 75.09375 37.074219 75.21875 37.519531 Z M 75.214844 37.519531 "/>
<path style=" stroke:none;fill-rule:nonzero;fill:rgb(12.941177%,9.019608%,8.235294%);fill-opacity:1;" d="M 65.882812 32.453125 C 65.59375 33.382812 65.78125 35.523438 67.542969 35.707031 C 69.875 35.695312 70 33.105469 69.214844 31.890625 C 68.574219 30.894531 66.683594 30.476562 65.882812 32.453125 Z M 65.882812 32.453125 "/>
<path style=" stroke:none;fill-rule:nonzero;fill:rgb(12.941177%,9.019608%,8.235294%);fill-opacity:1;" d="M 85.085938 32.464844 C 85.371094 33.394531 85.183594 35.535156 83.421875 35.714844 C 81.089844 35.699219 80.96875 33.113281 81.753906 31.894531 C 82.394531 30.902344 84.285156 30.488281 85.085938 32.464844 Z M 85.085938 32.464844 "/>
</g>
</svg>
