<?xml version="1.0" encoding="UTF-8"?>
<svg xmlns="http://www.w3.org/2000/svg" xmlns:xlink="http://www.w3.org/1999/xlink" width="127px" height="126px" viewBox="0 0 126 126" version="1.1">
<g id="surface1">
<path style=" stroke:none;fill-rule:nonzero;fill:rgb(100%,100%,100%);fill-opacity:1;" d="M 122.203125 125.085938 C 120.492188 101.472656 117.878906 80.890625 115.71875 73.6875 C 115.253906 72.023438 114.285156 70.539062 112.949219 69.441406 C 111.75 68.550781 110.464844 67.78125 109.113281 67.144531 C 105.222656 65.265625 98.992188 62.769531 95.003906 61.105469 L 91.164062 59.855469 C 90.613281 62.910156 89.691406 66.832031 88.6875 69.574219 C 87.851562 71.847656 85.113281 79.59375 83.25 84.019531 C 81.847656 87.347656 80.265625 90.59375 78.507812 93.75 L 78.433594 93.578125 C 73.921875 83.324219 68.488281 72.660156 67.054688 59.820312 C 65.242188 60.449219 62.894531 61.261719 62.894531 61.261719 C 58.910156 62.925781 52.421875 65.507812 48.53125 67.386719 C 47.324219 67.933594 46.21875 68.679688 45.261719 69.59375 C 44.207031 70.59375 43.367188 71.804688 42.800781 73.144531 C 40.242188 79.832031 39.785156 83.359375 37.433594 89.730469 C 36.679688 87.242188 35.957031 84.78125 35.167969 82.121094 C 31.136719 83.757812 24.753906 85.949219 20.839844 86.398438 C 22.140625 92.703125 23.40625 99.472656 25.488281 105.863281 C 26.933594 110.300781 29.101562 114.523438 33.480469 116.152344 C 36.796875 117.445312 40.523438 117.136719 43.582031 115.3125 C 46.1875 113.777344 49.214844 110.449219 51.109375 108.492188 C 51.109375 108.492188 51.46875 108.117188 51.9375 107.632812 C 52.109375 110.125 52.0625 112.546875 52.0625 115.195312 C 52.0625 118.671875 51.855469 121.242188 51.851562 125.1875 Z M 122.203125 125.085938 "/>
<path style=" stroke:none;fill-rule:nonzero;fill:rgb(100%,100%,100%);fill-opacity:1;" d="M 97.597656 30.640625 C 98.207031 30.113281 99.019531 29.875 99.820312 29.992188 C 100.605469 30.105469 101.300781 30.566406 101.707031 31.246094 C 101.9375 31.710938 102.070312 32.21875 102.09375 32.738281 C 102.265625 34.769531 101.871094 36.808594 100.960938 38.632812 C 100.53125 39.554688 99.910156 40.371094 99.132812 41.03125 C 98.386719 41.625 97.636719 41.910156 96.398438 41.285156 C 96.230469 42.171875 95.988281 43.046875 95.675781 43.894531 C 95.089844 45.460938 92.019531 50.589844 88.03125 53.035156 C 88.035156 54.292969 88.101562 55.605469 88.523438 56.644531 C 89.425781 58.878906 94.296875 61.6875 94.632812 61.835938 C 94.632812 61.835938 91.871094 72.292969 78.820312 72.292969 C 65.769531 72.292969 64.050781 61.835938 64.050781 61.835938 C 64.386719 61.6875 68.496094 59.269531 69.402344 57.035156 C 69.824219 55.988281 69.890625 54.667969 69.894531 53.40625 C 67.960938 52.417969 66.257812 51.039062 64.890625 49.351562 C 63.054688 47.125 61.753906 44.507812 61.09375 41.699219 C 59.945312 42.160156 59.085938 41.566406 58.417969 41.03125 C 57.640625 40.371094 57.019531 39.554688 56.589844 38.632812 C 55.679688 36.808594 55.285156 34.773438 55.457031 32.742188 C 55.480469 32.222656 55.613281 31.714844 55.84375 31.25 C 56.25 30.566406 56.945312 30.105469 57.730469 29.992188 C 58.53125 29.875 59.34375 30.113281 59.957031 30.644531 C 59.957031 30.644531 58.699219 12.476562 77.421875 12.476562 C 98.941406 12.476562 97.597656 30.640625 97.597656 30.640625 Z M 97.597656 30.640625 "/>
<path style=" stroke:none;fill-rule:nonzero;fill:rgb(12.941177%,9.019608%,8.235294%);fill-opacity:1;" d="M 64.476562 62.558594 C 64.960938 62.3125 65.421875 62.03125 65.863281 61.710938 C 66.695312 61.160156 67.484375 60.546875 68.226562 59.878906 C 68.976562 59.25 69.597656 58.480469 70.058594 57.617188 C 70.675781 56.3125 70.726562 54.808594 70.734375 53.390625 C 70.738281 52.3125 69.0625 52.308594 69.054688 53.390625 C 69.066406 54.0625 69.03125 54.734375 68.953125 55.402344 C 68.890625 55.929688 68.746094 56.441406 68.53125 56.925781 C 68.097656 57.660156 67.539062 58.304688 66.878906 58.839844 C 66.246094 59.390625 65.574219 59.902344 64.867188 60.359375 C 64.476562 60.640625 64.0625 60.890625 63.628906 61.109375 C 63.234375 61.34375 63.101562 61.855469 63.328125 62.257812 C 63.570312 62.648438 64.078125 62.78125 64.476562 62.558594 Z M 64.476562 62.558594 "/>
<path style=" stroke:none;fill-rule:nonzero;fill:rgb(12.941177%,9.019608%,8.235294%);fill-opacity:1;" d="M 87.195312 53.378906 C 87.21875 54.796875 87.296875 56.382812 88.085938 57.609375 C 88.671875 58.464844 89.390625 59.222656 90.210938 59.851562 C 91.027344 60.519531 91.882812 61.136719 92.773438 61.703125 C 93.230469 62.023438 93.710938 62.308594 94.210938 62.558594 C 94.609375 62.777344 95.113281 62.644531 95.355469 62.257812 C 95.585938 61.855469 95.453125 61.34375 95.054688 61.109375 C 94.605469 60.882812 94.171875 60.628906 93.757812 60.34375 C 93 59.871094 92.265625 59.351562 91.558594 58.796875 C 91.15625 58.480469 90.769531 58.140625 90.402344 57.78125 C 90.121094 57.507812 89.863281 57.214844 89.628906 56.902344 C 89.503906 56.726562 89.398438 56.542969 89.304688 56.351562 C 89.398438 56.546875 89.238281 56.171875 89.234375 56.15625 C 89.175781 55.972656 89.125 55.789062 89.082031 55.601562 C 88.933594 54.871094 88.867188 54.125 88.875 53.378906 C 88.851562 52.300781 87.175781 52.296875 87.195312 53.378906 Z M 87.195312 53.378906 "/>
<path style=" stroke:none;fill-rule:nonzero;fill:rgb(100%,100%,100%);fill-opacity:1;" d="M 90.429688 57.535156 C 89.964844 56.695312 89.367188 55.941406 88.652344 55.300781 C 87.304688 57.113281 84.222656 59.378906 80.53125 60.867188 C 80.265625 60.953125 80.023438 61.089844 79.8125 61.273438 C 79.722656 61.4375 79.894531 61.582031 79.976562 61.710938 C 80.15625 61.925781 80.347656 62.128906 80.554688 62.320312 C 79.394531 62.320312 78.53125 62.324219 77.441406 62.324219 C 77.652344 62.132812 77.847656 61.929688 78.027344 61.710938 C 78.105469 61.582031 78.277344 61.4375 78.191406 61.273438 C 77.980469 61.089844 77.738281 60.953125 77.472656 60.867188 C 73.78125 59.378906 70.699219 57.113281 69.347656 55.300781 C 68.132812 56.417969 67.671875 57.308594 66.941406 58.71875 C 68.183594 72.121094 73.855469 83.152344 78.507812 93.75 C 80.265625 90.59375 81.847656 87.347656 83.25 84.019531 C 85.113281 79.59375 87.851562 71.847656 88.6875 69.570312 C 89.769531 66.617188 90.753906 62.285156 91.285156 59.152344 C 90.960938 58.53125 90.699219 58.007812 90.429688 57.535156 Z M 90.429688 57.535156 "/>
<path style=" stroke:none;fill-rule:nonzero;fill:rgb(100%,100%,100%);fill-opacity:1;" d="M 63.828125 98.199219 L 63.328125 97.230469 C 61.894531 94.84375 61.082031 90.710938 60.78125 88.566406 C 60.417969 85.953125 61.378906 80.324219 61.898438 78.203125 C 62.375 79.050781 64.476562 83.910156 65.058594 85.285156 C 66.167969 87.890625 68.074219 91.4375 67.265625 94.3125 C 66.65625 96.488281 65.671875 96.765625 64.441406 97.417969 C 63.132812 98.109375 61.921875 97.71875 60.691406 98.320312 C 59.78125 98.769531 59.605469 99.632812 59.722656 100.476562 C 59.875 101.582031 60.820312 102.78125 62.058594 102.5 C 62.621094 102.371094 63.074219 101.96875 63.578125 101.683594 C 64.246094 101.304688 65.074219 100.976562 65.769531 100.652344 C 67.359375 99.910156 68.855469 99.101562 69.824219 97.601562 C 70.875 95.984375 71.496094 94.160156 71.285156 92.246094 C 70.566406 85.722656 66.117188 80.203125 64.125 74.34375 C 63.949219 71.351562 65.0625 64.382812 66.742188 60.792969 C 66.742188 60.792969 66.894531 60.621094 67.117188 60.355469 C 66.996094 59.359375 66.902344 58.347656 66.832031 57.324219 C 64.71875 58.277344 62.101562 61.480469 61.3125 65.992188 C 60.878906 68.480469 60.296875 71.050781 59.773438 74 C 57.824219 78.859375 57.113281 85.476562 57.328125 88.707031 C 57.539062 91.84375 58.40625 95.835938 60.054688 98.410156 L 60.527344 99.480469 Z M 63.828125 98.199219 "/>
<path style=" stroke:none;fill-rule:nonzero;fill:rgb(100%,100%,100%);fill-opacity:1;" d="M 98.542969 86.59375 C 98.75 84.792969 98.183594 82.808594 96.558594 81.957031 C 98.066406 73.753906 97.550781 69.726562 96.53125 65.105469 C 95.933594 62.386719 94 58.742188 91.558594 57.339844 C 91.453125 58.15625 91.292969 59.152344 91.09375 60.25 C 91.65625 60.8125 92.511719 62.773438 92.765625 63.707031 C 94.535156 70.273438 94.714844 74.46875 93.628906 81.570312 C 91.679688 82 90.867188 83.863281 90.695312 84.582031 C 90.234375 86.519531 90.390625 89.035156 92.140625 90.285156 C 92.539062 90.570312 92.996094 90.761719 93.476562 90.851562 C 96.234375 91.375 98.035156 89.355469 98.476562 87.050781 C 98.503906 86.898438 98.527344 86.746094 98.542969 86.59375 Z M 98.542969 86.59375 "/>
<path style=" stroke:none;fill-rule:nonzero;fill:rgb(62.7451%,62.7451%,62.7451%);fill-opacity:1;" d="M 68.703125 101.859375 C 68.664062 101.265625 68.320312 100.738281 67.796875 100.460938 L 66.953125 100.0625 C 66.570312 100.269531 66.171875 100.460938 65.769531 100.648438 C 65.257812 100.890625 64.671875 101.128906 64.132812 101.390625 C 64.335938 101.894531 64.601562 102.371094 64.921875 102.808594 C 65.21875 103.207031 65.660156 103.484375 66.152344 103.578125 C 66.460938 103.613281 66.777344 103.582031 67.078125 103.492188 C 67.707031 103.328125 68.351562 102.996094 68.625 102.402344 C 68.695312 102.230469 68.722656 102.042969 68.703125 101.859375 Z M 68.703125 101.859375 "/>
<path style=" stroke:none;fill-rule:nonzero;fill:rgb(62.7451%,62.7451%,62.7451%);fill-opacity:1;" d="M 59.695312 100.164062 C 59.597656 99.398438 60 98.660156 60.691406 98.320312 C 61.363281 98.046875 62.078125 97.894531 62.804688 97.871094 C 63.359375 99.046875 63.65625 100.328125 63.679688 101.628906 C 63.644531 101.644531 63.609375 101.664062 63.578125 101.683594 C 63.074219 101.96875 62.621094 102.371094 62.058594 102.5 C 60.820312 102.78125 59.875 101.582031 59.722656 100.476562 C 59.707031 100.371094 59.699219 100.269531 59.695312 100.164062 Z M 59.695312 100.164062 "/>
<path style=" stroke:none;fill-rule:nonzero;fill:rgb(56.470591%,54.509807%,54.11765%);fill-opacity:1;" d="M 64.160156 6.007812 C 65.707031 4.058594 68.292969 2.53125 70.898438 1.871094 C 73.847656 1.035156 76.921875 0.703125 79.984375 0.886719 C 86.300781 1.433594 92.484375 4.394531 96.457031 9.339844 C 100.953125 14.9375 101.695312 23.757812 99.46875 29.964844 C 98.789062 29.949219 98.125 30.1875 97.609375 30.628906 C 97.230469 28.347656 96.125 25.03125 95.3125 22.820312 C 95.207031 22.4375 94.992188 22.09375 94.695312 21.832031 C 94.304688 21.585938 93.863281 21.433594 93.402344 21.386719 C 90.503906 20.898438 88.847656 20.542969 85.886719 20.398438 C 82.703125 20.242188 80.402344 21.742188 77.34375 21.019531 C 75.546875 20.597656 71.527344 18.558594 70.15625 17.542969 C 69.789062 17.273438 69.457031 17.011719 69.148438 16.808594 C 68.78125 16.5625 68.300781 16.328125 67.910156 16.535156 C 67.835938 16.578125 67.761719 16.628906 67.695312 16.6875 C 67.488281 16.855469 67.183594 17.097656 66.992188 17.269531 C 62.710938 20.90625 60.289062 25.996094 60.441406 31.066406 L 60.441406 31.082031 L 59.953125 30.640625 C 59.339844 30.113281 58.53125 29.875 57.730469 29.992188 C 57.441406 30.035156 57.164062 30.125 56.90625 30.257812 C 55.429688 25.710938 55.65625 19.121094 56.683594 15.664062 L 56.957031 14.730469 C 58.023438 11.558594 59.777344 9.222656 61.808594 8.070312 Z M 64.160156 6.007812 "/>
<path style=" stroke:none;fill-rule:nonzero;fill:rgb(32.549021%,58.039218%,81.176472%);fill-opacity:1;" d="M 74.484375 82.484375 L 74.488281 82.4375 C 75.222656 76.40625 76.234375 69.011719 76.234375 68.800781 C 76.21875 68.421875 76.160156 68.050781 76.054688 67.691406 C 76.011719 67.519531 75.96875 67.359375 75.933594 67.1875 C 75.707031 66.230469 75.566406 65.5625 75.363281 64.507812 C 75.652344 64.207031 75.9375 63.902344 76.210938 63.601562 C 76.726562 63.035156 77.136719 62.621094 77.441406 62.324219 C 78.53125 62.324219 79.394531 62.320312 80.554688 62.320312 C 80.855469 62.617188 81.269531 63.03125 81.789062 63.601562 C 82.144531 63.992188 82.519531 64.382812 82.894531 64.773438 L 82.710938 65.5 C 82.597656 65.957031 82.472656 66.433594 82.300781 66.953125 C 82.058594 67.582031 81.914062 68.246094 81.867188 68.921875 C 81.863281 69.265625 82.84375 75.753906 83.773438 81.964844 C 83.773438 81.964844 83.804688 82.183594 83.855469 82.542969 C 83.644531 83.066406 83.441406 83.558594 83.246094 84.019531 C 81.84375 87.347656 80.261719 90.59375 78.507812 93.75 C 77.164062 90.691406 75.738281 87.601562 74.359375 84.425781 C 74.417969 83.5 74.472656 82.679688 74.484375 82.484375 Z M 74.484375 82.484375 "/>
<path style=" stroke:none;fill-rule:nonzero;fill:rgb(100%,100%,100%);fill-opacity:1;" d="M 85.402344 67.445312 C 87.683594 64.78125 89.570312 61.796875 90.992188 58.589844 C 90.300781 57.253906 89.832031 56.386719 88.652344 55.300781 C 87.300781 57.113281 84.222656 59.378906 80.527344 60.867188 C 80.265625 60.953125 80.019531 61.089844 79.808594 61.273438 C 79.722656 61.4375 79.894531 61.582031 79.972656 61.710938 C 80.101562 61.914062 80.726562 62.4375 81.785156 63.601562 C 82.992188 64.921875 84.402344 66.253906 85.402344 67.445312 Z M 85.402344 67.445312 "/>
<path style=" stroke:none;fill-rule:nonzero;fill:rgb(100%,100%,100%);fill-opacity:1;" d="M 72.601562 67.445312 C 70.316406 64.78125 68.433594 61.796875 67.007812 58.589844 C 67.703125 57.253906 68.167969 56.386719 69.347656 55.300781 C 70.699219 57.113281 73.78125 59.378906 77.472656 60.867188 C 77.738281 60.953125 77.980469 61.089844 78.191406 61.273438 C 78.277344 61.4375 78.105469 61.582031 78.027344 61.710938 C 77.898438 61.914062 77.277344 62.4375 76.214844 63.601562 C 75.007812 64.921875 73.597656 66.253906 72.601562 67.445312 Z M 72.601562 67.445312 "/>
<path style=" stroke:none;fill-rule:nonzero;fill:rgb(12.941177%,9.019608%,8.235294%);fill-opacity:1;" d="M 38.242188 89.949219 C 40.097656 84.914062 41.292969 79.675781 43.136719 74.632812 C 43.371094 73.921875 43.65625 73.234375 44 72.570312 C 44.347656 71.953125 44.761719 71.375 45.230469 70.847656 C 46.152344 69.816406 47.257812 68.964844 48.492188 68.34375 C 50.679688 67.210938 52.980469 66.277344 55.25 65.324219 C 57.867188 64.222656 60.5 63.160156 63.117188 62.066406 C 63.554688 61.933594 63.8125 61.480469 63.703125 61.035156 C 63.578125 60.589844 63.121094 60.328125 62.671875 60.449219 C 57.90625 62.441406 53.070312 64.296875 48.40625 66.519531 C 45.777344 67.773438 43.378906 69.71875 42.1875 72.449219 C 41.03125 75.101562 40.21875 77.941406 39.410156 80.714844 C 38.550781 83.667969 37.691406 86.617188 36.628906 89.503906 C 36.507812 89.949219 36.769531 90.410156 37.210938 90.539062 C 37.65625 90.652344 38.113281 90.394531 38.242188 89.953125 Z M 38.242188 89.949219 "/>
<path style=" stroke:none;fill-rule:nonzero;fill:rgb(12.941177%,9.019608%,8.235294%);fill-opacity:1;" d="M 94.78125 61.914062 C 99.453125 63.859375 104.195312 65.683594 108.746094 67.898438 C 110.9375 68.964844 113.132812 70.1875 114.304688 72.414062 C 115.015625 73.765625 115.324219 75.359375 115.65625 76.84375 C 116.484375 80.5625 117.066406 84.339844 117.605469 88.113281 C 118.347656 93.316406 118.953125 98.542969 119.496094 103.773438 C 120.152344 110.03125 120.710938 116.300781 121.175781 122.578125 C 121.238281 123.414062 121.300781 124.25 121.363281 125.085938 C 121.371094 125.542969 121.742188 125.914062 122.199219 125.921875 C 122.664062 125.921875 123.035156 125.546875 123.039062 125.085938 C 122.570312 118.609375 122.015625 112.144531 121.371094 105.683594 C 120.816406 100.171875 120.1875 94.664062 119.433594 89.175781 C 118.882812 85.167969 118.28125 81.15625 117.445312 77.199219 C 117.1875 75.835938 116.847656 74.488281 116.433594 73.167969 C 116.011719 71.875 115.328125 70.683594 114.417969 69.671875 C 113.527344 68.761719 112.507812 67.996094 111.386719 67.398438 C 109.164062 66.117188 106.765625 65.125 104.414062 64.121094 C 101.890625 63.042969 99.351562 62 96.816406 60.953125 C 96.289062 60.734375 95.757812 60.515625 95.226562 60.292969 C 94.78125 60.171875 94.320312 60.433594 94.195312 60.878906 C 94.082031 61.324219 94.339844 61.777344 94.78125 61.910156 Z M 94.78125 61.914062 "/>
<path style=" stroke:none;fill-rule:nonzero;fill:rgb(12.941177%,9.019608%,8.235294%);fill-opacity:1;" d="M 106.476562 125.191406 C 106.472656 121.984375 106.28125 118.78125 106.269531 115.578125 C 106.253906 112.054688 106.160156 108.492188 106.667969 105 C 106.914062 103.304688 107.253906 101.621094 107.539062 99.933594 C 107.828125 98.238281 108.105469 96.542969 108.371094 94.84375 C 108.914062 91.390625 109.414062 87.929688 109.878906 84.464844 C 110.371094 80.820312 110.816406 77.167969 111.21875 73.511719 C 111.214844 73.050781 110.84375 72.675781 110.378906 72.671875 C 109.921875 72.683594 109.550781 73.050781 109.542969 73.511719 C 108.816406 80.175781 107.9375 86.824219 106.902344 93.449219 C 106.378906 96.820312 105.800781 100.179688 105.210938 103.542969 C 104.589844 107.09375 104.578125 110.671875 104.589844 114.265625 C 104.597656 117.910156 104.792969 121.546875 104.800781 125.191406 C 104.800781 126.269531 106.480469 126.273438 106.476562 125.191406 Z M 106.476562 125.191406 "/>
<path style=" stroke:none;fill-rule:nonzero;fill:rgb(12.941177%,9.019608%,8.235294%);fill-opacity:1;" d="M 46.371094 74.464844 C 47.097656 81.09375 47.984375 87.703125 49.027344 94.292969 C 49.558594 97.671875 50.183594 101.035156 50.734375 104.410156 C 51.289062 107.808594 51.230469 111.257812 51.222656 114.6875 C 51.21875 118.1875 51.019531 121.6875 51.015625 125.191406 C 51.015625 126.269531 52.691406 126.269531 52.691406 125.191406 C 52.695312 122.109375 52.871094 119.03125 52.898438 115.949219 C 52.925781 112.53125 52.996094 109.085938 52.59375 105.683594 C 52.386719 103.953125 52.042969 102.242188 51.746094 100.527344 C 51.453125 98.839844 51.171875 97.15625 50.902344 95.464844 C 50.355469 92.0625 49.847656 88.648438 49.378906 85.230469 C 48.886719 81.648438 48.445312 78.0625 48.046875 74.464844 C 48.035156 74.007812 47.664062 73.640625 47.207031 73.625 C 46.746094 73.628906 46.371094 74.003906 46.367188 74.464844 Z M 46.371094 74.464844 "/>
<path style=" stroke:none;fill-rule:nonzero;fill:rgb(12.941177%,9.019608%,8.235294%);fill-opacity:1;" d="M 57.539062 29.460938 C 56.660156 26.320312 56.53125 22.957031 56.8125 19.722656 C 57.042969 17.101562 57.679688 14.460938 59.019531 12.171875 C 59.777344 10.785156 60.886719 9.621094 62.230469 8.792969 C 63.167969 8.253906 62.324219 6.800781 61.386719 7.34375 C 58.574219 8.964844 56.882812 12.035156 55.984375 15.054688 C 55.183594 17.957031 54.867188 20.972656 55.046875 23.976562 C 55.109375 25.980469 55.402344 27.96875 55.917969 29.90625 C 56.210938 30.941406 57.828125 30.5 57.539062 29.457031 Z M 57.539062 29.460938 "/>
<path style=" stroke:none;fill-rule:nonzero;fill:rgb(12.941177%,9.019608%,8.235294%);fill-opacity:1;" d="M 64.753906 6.597656 C 67.183594 3.589844 71.023438 2.445312 74.710938 1.921875 C 78.445312 1.382812 82.257812 1.75 85.824219 2.988281 C 89.289062 4.160156 92.414062 6.171875 94.917969 8.839844 C 97.234375 11.414062 98.789062 14.585938 99.40625 17.996094 C 100.164062 21.734375 99.964844 25.605469 98.824219 29.25 C 98.492188 30.277344 100.113281 30.71875 100.445312 29.695312 C 101.527344 26.1875 101.800781 22.476562 101.242188 18.847656 C 100.71875 15.171875 99.351562 11.59375 97.003906 8.691406 C 92.015625 2.515625 83.636719 -0.660156 75.804688 0.113281 C 71.367188 0.554688 66.496094 1.78125 63.570312 5.414062 C 63.253906 5.746094 63.253906 6.265625 63.570312 6.597656 C 63.898438 6.925781 64.425781 6.925781 64.753906 6.597656 Z M 64.753906 6.597656 "/>
<path style=" stroke:none;fill-rule:nonzero;fill:rgb(12.941177%,9.019608%,8.235294%);fill-opacity:1;" d="M 61.28125 31.066406 C 61.238281 27.542969 62.339844 24.101562 64.425781 21.261719 C 65.480469 19.777344 66.75 18.460938 68.195312 17.355469 C 68.355469 17.238281 68.195312 17.296875 68.34375 17.320312 C 68.527344 17.382812 68.699219 17.484375 68.84375 17.613281 C 69.21875 17.867188 69.566406 18.152344 69.9375 18.410156 C 70.441406 18.757812 70.976562 19.066406 71.511719 19.363281 C 72.859375 20.113281 74.25 20.777344 75.679688 21.347656 C 77.140625 21.949219 78.734375 22.164062 80.300781 21.972656 C 82.148438 21.746094 83.933594 21.164062 85.8125 21.234375 C 87.667969 21.328125 89.515625 21.542969 91.339844 21.878906 C 91.898438 21.976562 92.457031 22.070312 93.015625 22.167969 C 93.410156 22.238281 94.03125 22.261719 94.300781 22.613281 C 94.503906 22.960938 94.65625 23.335938 94.75 23.726562 C 94.914062 24.183594 95.074219 24.640625 95.230469 25.101562 C 95.902344 26.976562 96.429688 28.898438 96.800781 30.855469 C 96.929688 31.296875 97.386719 31.558594 97.832031 31.441406 C 98.273438 31.308594 98.53125 30.851562 98.421875 30.40625 C 98.066406 28.542969 97.570312 26.707031 96.933594 24.917969 C 96.664062 24.101562 96.390625 23.28125 96.078125 22.476562 C 95.925781 22.003906 95.652344 21.574219 95.289062 21.238281 C 94.84375 20.898438 94.320312 20.679688 93.765625 20.601562 C 91.828125 20.238281 89.867188 19.902344 87.902344 19.707031 C 86.835938 19.570312 85.753906 19.527344 84.679688 19.574219 C 83.671875 19.667969 82.667969 19.828125 81.679688 20.046875 C 80.015625 20.382812 78.414062 20.542969 76.777344 19.976562 C 75.355469 19.453125 73.976562 18.820312 72.65625 18.078125 C 72.050781 17.75 71.449219 17.410156 70.878906 17.023438 C 70.109375 16.507812 69.378906 15.722656 68.410156 15.632812 C 67.433594 15.542969 66.632812 16.457031 65.960938 17.0625 C 65.214844 17.734375 64.515625 18.460938 63.878906 19.238281 C 61.15625 22.566406 59.492188 26.734375 59.601562 31.066406 C 59.628906 32.144531 61.308594 32.148438 61.28125 31.066406 Z M 61.28125 31.066406 "/>
<path style=" stroke:none;fill-rule:nonzero;fill:rgb(12.941177%,9.019608%,8.235294%);fill-opacity:1;" d="M 76.492188 69.585938 C 78.230469 69.585938 79.964844 69.550781 81.703125 69.546875 C 82.167969 69.546875 82.542969 69.171875 82.542969 68.710938 C 82.542969 68.246094 82.167969 67.871094 81.703125 67.871094 C 79.964844 67.871094 78.230469 67.910156 76.492188 67.910156 C 76.027344 67.910156 75.652344 68.285156 75.652344 68.75 C 75.652344 69.210938 76.027344 69.585938 76.492188 69.585938 Z M 76.492188 69.585938 "/>
<path style=" stroke:none;fill-rule:nonzero;fill:rgb(12.941177%,9.019608%,8.235294%);fill-opacity:1;" d="M 74.636719 65.148438 C 74.785156 65.90625 74.949219 66.660156 75.125 67.410156 C 75.285156 67.882812 75.375 68.375 75.390625 68.875 C 75.355469 69.394531 75.261719 69.914062 75.195312 70.429688 C 74.882812 72.800781 74.570312 75.171875 74.265625 77.542969 C 74.054688 79.171875 73.847656 80.804688 73.648438 82.4375 C 73.652344 82.902344 74.023438 83.273438 74.488281 83.277344 C 74.945312 83.265625 75.316406 82.898438 75.328125 82.4375 C 75.671875 79.601562 76.039062 76.765625 76.410156 73.933594 C 76.628906 72.269531 76.925781 70.59375 77.0625 68.917969 C 77.070312 68.398438 76.996094 67.878906 76.839844 67.382812 C 76.621094 66.496094 76.429688 65.597656 76.253906 64.703125 C 76.125 64.257812 75.667969 64 75.222656 64.117188 C 74.78125 64.246094 74.523438 64.703125 74.636719 65.148438 Z M 74.636719 65.148438 "/>
<path style=" stroke:none;fill-rule:nonzero;fill:rgb(12.941177%,9.019608%,8.235294%);fill-opacity:1;" d="M 80.457031 61.480469 L 77.363281 61.488281 C 76.902344 61.488281 76.527344 61.863281 76.527344 62.324219 C 76.527344 62.789062 76.902344 63.164062 77.363281 63.164062 L 80.457031 63.15625 C 80.917969 63.15625 81.292969 62.78125 81.292969 62.320312 C 81.292969 61.855469 80.917969 61.480469 80.457031 61.480469 Z M 80.457031 61.480469 "/>
<path style=" stroke:none;fill-rule:nonzero;fill:rgb(12.941177%,9.019608%,8.235294%);fill-opacity:1;" d="M 84.582031 81.742188 C 84.179688 79.035156 83.773438 76.324219 83.367188 73.617188 C 83.21875 72.609375 83.070312 71.601562 82.925781 70.59375 C 82.875 70.234375 82.824219 69.875 82.773438 69.515625 C 82.765625 69.453125 82.792969 69.671875 82.773438 69.5 C 82.765625 69.445312 82.757812 69.394531 82.753906 69.34375 C 82.742188 69.25 82.726562 69.160156 82.71875 69.066406 C 82.703125 68.679688 82.757812 68.292969 82.878906 67.921875 C 83.082031 67.1875 83.335938 66.464844 83.523438 65.722656 C 83.785156 64.675781 82.167969 64.230469 81.902344 65.277344 C 81.605469 66.460938 80.984375 67.722656 81.03125 68.960938 C 81.050781 69.476562 81.160156 70 81.230469 70.515625 C 81.546875 72.753906 81.886719 74.988281 82.222656 77.226562 C 82.46875 78.878906 82.71875 80.535156 82.964844 82.1875 C 83.089844 82.632812 83.550781 82.894531 83.996094 82.773438 C 84.4375 82.644531 84.695312 82.1875 84.582031 81.742188 Z M 84.582031 81.742188 "/>
<path style=" stroke:none;fill-rule:nonzero;fill:rgb(12.941177%,9.019608%,8.235294%);fill-opacity:1;" d="M 87.550781 92.25 C 85.695312 94.03125 83.816406 95.785156 81.882812 97.480469 C 81.558594 97.808594 81.558594 98.339844 81.882812 98.667969 C 82.210938 98.992188 82.742188 98.992188 83.070312 98.667969 C 85.003906 96.972656 86.882812 95.214844 88.734375 93.433594 C 88.960938 93.226562 89.054688 92.910156 88.976562 92.613281 C 88.902344 92.3125 88.671875 92.082031 88.371094 92.003906 C 88.074219 91.929688 87.757812 92.023438 87.550781 92.25 Z M 87.550781 92.25 "/>
<path style=" stroke:none;fill-rule:nonzero;fill:rgb(12.941177%,9.019608%,8.235294%);fill-opacity:1;" d="M 79.613281 105.617188 C 79.707031 105.703125 79.78125 105.804688 79.875 105.886719 C 79.789062 105.777344 79.769531 105.753906 79.820312 105.824219 C 79.835938 105.847656 79.851562 105.871094 79.867188 105.894531 C 79.894531 105.933594 79.917969 105.976562 79.941406 106.019531 C 79.976562 106.085938 80.011719 106.230469 79.933594 105.980469 C 79.949219 106.03125 79.96875 106.078125 79.984375 106.128906 C 80.011719 106.222656 80.035156 106.320312 80.046875 106.417969 L 80.019531 106.195312 C 80.039062 106.371094 80.039062 106.550781 80.019531 106.726562 L 80.046875 106.5 C 80.035156 106.601562 80.015625 106.699219 79.988281 106.792969 C 79.976562 106.835938 79.964844 106.875 79.949219 106.917969 C 79.9375 106.957031 79.871094 107.121094 79.9375 106.960938 C 80.007812 106.796875 79.9375 106.953125 79.917969 106.992188 C 79.898438 107.03125 79.882812 107.0625 79.859375 107.097656 C 79.839844 107.132812 79.820312 107.164062 79.796875 107.195312 C 79.710938 107.328125 79.945312 107.027344 79.847656 107.132812 C 79.8125 107.171875 79.671875 107.359375 79.621094 107.351562 C 79.628906 107.351562 79.816406 107.214844 79.6875 107.296875 C 79.667969 107.3125 79.648438 107.324219 79.625 107.339844 C 79.578125 107.367188 79.53125 107.394531 79.480469 107.421875 C 79.457031 107.433594 79.4375 107.441406 79.414062 107.453125 C 79.296875 107.511719 79.589844 107.386719 79.492188 107.417969 C 79.445312 107.433594 79.398438 107.453125 79.351562 107.464844 C 79.238281 107.5 79.121094 107.527344 79.003906 107.542969 L 79.226562 107.511719 C 79.015625 107.539062 78.800781 107.542969 78.589844 107.515625 L 78.8125 107.542969 C 78.648438 107.515625 78.484375 107.476562 78.324219 107.417969 C 78.578125 107.5 78.460938 107.480469 78.398438 107.449219 C 78.355469 107.425781 78.316406 107.40625 78.277344 107.382812 C 78.246094 107.363281 78.21875 107.34375 78.191406 107.328125 C 78.078125 107.253906 78.371094 107.480469 78.238281 107.363281 C 78.160156 107.292969 78.085938 107.222656 78.019531 107.144531 C 77.917969 107.035156 78.136719 107.320312 78.015625 107.140625 C 77.992188 107.105469 77.972656 107.070312 77.949219 107.03125 C 77.929688 106.996094 77.914062 106.960938 77.894531 106.921875 C 77.828125 106.796875 77.972656 107.140625 77.90625 106.941406 C 77.878906 106.855469 77.859375 106.765625 77.847656 106.675781 L 77.875 106.898438 C 77.859375 106.75 77.859375 106.597656 77.875 106.445312 L 77.847656 106.667969 C 77.863281 106.5625 77.886719 106.457031 77.917969 106.355469 C 77.929688 106.304688 77.949219 106.257812 77.964844 106.207031 C 78.023438 106.046875 77.882812 106.382812 77.957031 106.230469 C 78.007812 106.132812 78.058594 106.035156 78.117188 105.941406 C 78.148438 105.898438 78.175781 105.855469 78.207031 105.8125 C 78.21875 105.789062 78.234375 105.769531 78.253906 105.75 C 78.226562 105.769531 78.117188 105.914062 78.207031 105.8125 C 78.238281 105.777344 78.269531 105.742188 78.304688 105.707031 C 78.335938 105.671875 78.464844 105.570312 78.335938 105.667969 C 78.210938 105.765625 78.351562 105.660156 78.386719 105.640625 C 78.433594 105.609375 78.480469 105.582031 78.53125 105.558594 C 78.539062 105.550781 78.59375 105.523438 78.601562 105.523438 C 78.601562 105.523438 78.394531 105.605469 78.503906 105.566406 C 78.554688 105.546875 78.601562 105.53125 78.648438 105.515625 C 78.761719 105.480469 78.878906 105.457031 78.992188 105.441406 L 78.769531 105.472656 C 78.953125 105.449219 79.140625 105.449219 79.320312 105.472656 L 79.097656 105.441406 C 79.175781 105.453125 79.253906 105.46875 79.332031 105.488281 C 79.363281 105.496094 79.394531 105.507812 79.425781 105.515625 C 79.457031 105.527344 79.597656 105.585938 79.453125 105.523438 C 79.3125 105.460938 79.425781 105.511719 79.457031 105.527344 C 79.492188 105.542969 79.527344 105.5625 79.5625 105.585938 C 79.59375 105.605469 79.628906 105.628906 79.660156 105.648438 C 79.777344 105.726562 79.5 105.515625 79.613281 105.617188 C 79.773438 105.769531 79.988281 105.855469 80.207031 105.859375 C 80.546875 105.859375 80.855469 105.65625 80.984375 105.34375 C 81.117188 105.027344 81.042969 104.667969 80.800781 104.425781 C 80.328125 104.015625 79.71875 103.78125 79.089844 103.773438 C 78.53125 103.761719 77.984375 103.910156 77.511719 104.207031 C 76.53125 104.878906 76.039062 106.0625 76.25 107.230469 C 76.410156 107.855469 76.789062 108.394531 77.320312 108.753906 C 77.980469 109.171875 78.777344 109.308594 79.535156 109.136719 C 80.296875 108.964844 80.957031 108.496094 81.371094 107.835938 C 81.625 107.351562 81.742188 106.808594 81.707031 106.265625 C 81.652344 105.558594 81.328125 104.902344 80.804688 104.425781 C 80.476562 104.105469 79.949219 104.105469 79.621094 104.429688 C 79.296875 104.757812 79.292969 105.285156 79.617188 105.613281 Z M 79.613281 105.617188 "/>
<path style=" stroke:none;fill-rule:nonzero;fill:rgb(12.941177%,9.019608%,8.235294%);fill-opacity:1;" d="M 93.699219 90.042969 C 91.722656 89.625 91.199219 87.625 91.335938 85.847656 C 91.363281 85.46875 91.425781 85.097656 91.523438 84.730469 C 91.542969 84.65625 91.566406 84.585938 91.589844 84.515625 C 91.605469 84.464844 91.625 84.417969 91.644531 84.367188 C 91.6875 84.242188 91.566406 84.515625 91.671875 84.300781 C 91.871094 83.828125 92.167969 83.402344 92.546875 83.054688 C 92.742188 82.867188 92.964844 82.714844 93.207031 82.601562 C 93.507812 82.457031 93.835938 82.367188 94.167969 82.332031 C 95.007812 82.242188 95.855469 82.457031 96.546875 82.9375 C 97.769531 83.890625 97.941406 85.765625 97.59375 87.160156 C 97.136719 88.976562 95.664062 90.386719 93.699219 90.042969 C 93.253906 89.933594 92.800781 90.191406 92.667969 90.628906 C 92.546875 91.074219 92.808594 91.535156 93.253906 91.660156 C 94.441406 91.914062 95.683594 91.71875 96.742188 91.117188 C 97.707031 90.511719 98.453125 89.617188 98.882812 88.5625 C 99.742188 86.53125 99.632812 83.945312 98.183594 82.203125 C 96.789062 80.527344 93.96875 80.152344 92.128906 81.28125 C 90.839844 82.113281 89.976562 83.460938 89.765625 84.980469 C 89.511719 86.28125 89.613281 87.625 90.0625 88.871094 C 90.582031 90.28125 91.785156 91.332031 93.253906 91.660156 C 94.304688 91.882812 94.757812 90.265625 93.699219 90.042969 Z M 93.699219 90.042969 "/>
<path style=" stroke:none;fill-rule:nonzero;fill:rgb(12.941177%,9.019608%,8.235294%);fill-opacity:1;" d="M 94.1875 87.640625 C 94.039062 87.613281 93.902344 87.554688 93.777344 87.46875 C 93.242188 87.085938 93.195312 86.316406 93.335938 85.722656 C 93.410156 85.382812 93.625 85.09375 93.925781 84.925781 C 94.230469 84.753906 94.585938 84.722656 94.914062 84.832031 C 95.628906 85.027344 95.84375 85.820312 95.71875 86.476562 C 95.582031 87.183594 95.03125 87.800781 94.1875 87.640625 Z M 94.1875 87.640625 "/>
<path style=" stroke:none;fill-rule:nonzero;fill:rgb(12.941177%,9.019608%,8.235294%);fill-opacity:1;" d="M 66.867188 56.410156 C 64.558594 57.289062 62.878906 59.5 61.835938 61.65625 C 61.15625 63.125 60.675781 64.675781 60.414062 66.273438 C 60.101562 67.984375 59.746094 69.683594 59.410156 71.390625 C 59.238281 72.273438 59.167969 73.25 58.84375 74.085938 C 58.574219 74.785156 58.335938 75.5 58.125 76.21875 C 57.679688 77.742188 57.328125 79.292969 57.066406 80.863281 C 56.628906 83.46875 56.308594 86.183594 56.5 88.832031 C 56.742188 92.234375 57.484375 95.910156 59.328125 98.832031 C 59.90625 99.742188 61.355469 98.902344 60.777344 97.984375 C 59.246094 95.558594 58.558594 92.558594 58.257812 89.734375 C 58.039062 87.285156 58.125 84.816406 58.515625 82.386719 C 58.730469 80.890625 59.019531 79.410156 59.390625 77.945312 C 59.574219 77.226562 59.777344 76.511719 60.007812 75.804688 C 60.292969 75.070312 60.527344 74.316406 60.707031 73.546875 C 61.015625 71.851562 61.367188 70.160156 61.699219 68.46875 C 62.007812 66.90625 62.21875 65.320312 62.746094 63.8125 C 63.21875 62.429688 63.933594 61.140625 64.855469 60.011719 C 65.246094 59.535156 65.683594 59.101562 66.160156 58.714844 C 66.355469 58.566406 66.5625 58.429688 66.773438 58.300781 C 66.875 58.242188 66.984375 58.179688 67.09375 58.128906 C 67.140625 58.105469 67.1875 58.082031 67.238281 58.058594 C 67.402344 57.984375 67.132812 58.097656 67.316406 58.03125 C 67.753906 57.894531 68.011719 57.441406 67.902344 57 C 67.773438 56.554688 67.316406 56.292969 66.867188 56.410156 Z M 66.867188 56.410156 "/>
<path style=" stroke:none;fill-rule:nonzero;fill:rgb(12.941177%,9.019608%,8.235294%);fill-opacity:1;" d="M 64.054688 96.808594 C 62.695312 94.507812 62.128906 91.691406 61.703125 89.082031 C 61.683594 88.953125 61.664062 88.824219 61.644531 88.695312 C 61.640625 88.671875 61.589844 88.328125 61.609375 88.484375 C 61.578125 88.222656 61.558594 87.953125 61.550781 87.6875 C 61.527344 87.105469 61.546875 86.523438 61.578125 85.945312 C 61.65625 84.640625 61.8125 83.339844 62.011719 82.050781 C 62.199219 80.835938 62.414062 79.621094 62.707031 78.425781 L 61.171875 78.625 C 62.078125 80.257812 62.753906 82.050781 63.496094 83.761719 C 64.433594 85.917969 65.527344 88.066406 66.199219 90.324219 C 66.585938 91.625 66.804688 92.988281 66.390625 94.308594 C 66.046875 95.417969 65.527344 95.917969 64.558594 96.414062 C 64 96.730469 63.386719 96.941406 62.753906 97.039062 C 61.925781 97.078125 61.109375 97.257812 60.339844 97.5625 C 58.972656 98.210938 58.578125 99.832031 59.035156 101.195312 C 59.496094 102.558594 60.777344 103.65625 62.28125 103.304688 C 63.0625 103.125 63.6875 102.550781 64.390625 102.195312 C 65.105469 101.835938 65.847656 101.542969 66.566406 101.195312 C 67.878906 100.566406 69.175781 99.796875 70.097656 98.644531 C 71.113281 97.371094 71.789062 95.859375 72.058594 94.25 C 72.300781 92.652344 72.023438 91.03125 71.628906 89.480469 C 71.226562 87.980469 70.707031 86.515625 70.070312 85.097656 C 68.859375 82.316406 67.335938 79.6875 66.070312 76.933594 C 65.773438 76.285156 65.488281 75.628906 65.234375 74.957031 C 65.125 74.710938 65.03125 74.457031 64.957031 74.195312 C 64.933594 73.964844 64.929688 73.734375 64.949219 73.503906 C 64.96875 72.382812 65.058594 71.269531 65.210938 70.160156 C 65.515625 67.613281 66.082031 65.097656 66.894531 62.664062 C 67.058594 62.171875 67.25 61.691406 67.464844 61.21875 C 67.6875 60.816406 67.554688 60.3125 67.164062 60.070312 C 66.765625 59.839844 66.253906 59.972656 66.015625 60.371094 C 64.976562 62.621094 64.386719 65.078125 63.941406 67.507812 C 63.710938 68.765625 63.527344 70.03125 63.402344 71.304688 C 63.285156 72.277344 63.242188 73.253906 63.28125 74.234375 C 63.324219 74.910156 63.691406 75.613281 63.949219 76.238281 C 64.246094 76.953125 64.558594 77.65625 64.890625 78.355469 C 65.523438 79.6875 66.207031 80.996094 66.875 82.308594 C 68.210938 84.929688 69.5 87.601562 70.144531 90.484375 C 70.464844 91.929688 70.636719 93.367188 70.21875 94.8125 C 69.839844 96.234375 69.035156 97.503906 67.914062 98.457031 C 66.808594 99.34375 65.449219 99.875 64.167969 100.453125 C 63.824219 100.609375 63.480469 100.769531 63.15625 100.957031 C 62.820312 101.148438 62.515625 101.398438 62.167969 101.570312 C 61.753906 101.804688 61.226562 101.683594 60.960938 101.289062 C 60.648438 100.898438 60.496094 100.402344 60.535156 99.902344 C 60.578125 99.335938 60.949219 99.066406 61.484375 98.914062 C 62.183594 98.714844 62.917969 98.734375 63.628906 98.589844 C 64.292969 98.414062 64.933594 98.152344 65.527344 97.800781 C 66.5 97.332031 67.277344 96.53125 67.714844 95.542969 C 68.289062 94.179688 68.4375 92.675781 68.144531 91.226562 C 67.699219 88.710938 66.4375 86.375 65.433594 84.042969 C 64.640625 82.195312 63.847656 80.34375 62.992188 78.527344 C 62.875 78.273438 62.757812 78.023438 62.621094 77.78125 C 62.445312 77.496094 62.121094 77.339844 61.789062 77.382812 C 61.460938 77.425781 61.183594 77.660156 61.089844 77.980469 C 60.5 80.445312 60.113281 82.953125 59.933594 85.480469 C 59.828125 86.671875 59.855469 87.867188 60.011719 89.050781 C 60.210938 90.390625 60.480469 91.71875 60.824219 93.03125 C 61.203125 94.644531 61.804688 96.203125 62.605469 97.652344 C 63.15625 98.582031 64.605469 97.738281 64.054688 96.808594 Z M 64.054688 96.808594 "/>
<path style=" stroke:none;fill-rule:nonzero;fill:rgb(12.941177%,9.019608%,8.235294%);fill-opacity:1;" d="M 57.554688 89.699219 C 58.59375 89.636719 59.632812 89.546875 60.664062 89.429688 C 60.886719 89.421875 61.097656 89.335938 61.257812 89.183594 C 61.414062 89.023438 61.503906 88.8125 61.503906 88.589844 C 61.484375 88.179688 61.132812 87.699219 60.664062 87.75 C 59.632812 87.867188 58.59375 87.957031 57.554688 88.019531 C 57.09375 88.019531 56.71875 88.398438 56.71875 88.859375 C 56.71875 89.324219 57.09375 89.699219 57.554688 89.699219 Z M 57.554688 89.699219 "/>
<path style=" stroke:none;fill-rule:nonzero;fill:rgb(12.941177%,9.019608%,8.235294%);fill-opacity:1;" d="M 66.691406 88.359375 C 66.734375 88.339844 66.777344 88.320312 66.820312 88.300781 L 66.617188 88.386719 C 67.386719 88.066406 68.179688 87.808594 68.992188 87.621094 C 69.433594 87.496094 69.695312 87.035156 69.578125 86.589844 C 69.445312 86.148438 68.988281 85.890625 68.542969 86.003906 C 67.617188 86.222656 66.714844 86.527344 65.84375 86.910156 C 65.652344 87.019531 65.515625 87.199219 65.457031 87.410156 C 65.398438 87.628906 65.429688 87.859375 65.542969 88.058594 C 65.652344 88.246094 65.832031 88.382812 66.042969 88.441406 L 66.265625 88.472656 C 66.414062 88.472656 66.5625 88.433594 66.691406 88.355469 Z M 66.691406 88.359375 "/>
<path style=" stroke:none;fill-rule:nonzero;fill:rgb(12.941177%,9.019608%,8.235294%);fill-opacity:1;" d="M 97.40625 81.980469 C 98.105469 78.09375 98.582031 74.125 98.214844 70.171875 C 97.910156 66.890625 97.300781 63.5 95.644531 60.613281 C 94.59375 58.78125 93.15625 57.054688 91.164062 56.230469 C 90.71875 56.109375 90.257812 56.371094 90.132812 56.816406 C 90.019531 57.261719 90.277344 57.714844 90.71875 57.847656 C 92.167969 58.449219 93.273438 59.917969 94.0625 61.238281 C 94.90625 62.671875 95.507812 64.234375 95.839844 65.863281 C 96.484375 68.738281 96.75 71.683594 96.628906 74.625 C 96.503906 76.945312 96.222656 79.253906 95.789062 81.539062 C 95.679688 81.984375 95.9375 82.4375 96.375 82.570312 C 96.824219 82.6875 97.28125 82.425781 97.410156 81.984375 Z M 97.40625 81.980469 "/>
<path style=" stroke:none;fill-rule:nonzero;fill:rgb(12.941177%,9.019608%,8.235294%);fill-opacity:1;" d="M 62.171875 98.488281 C 62.472656 99.222656 62.683594 99.992188 62.789062 100.777344 L 62.761719 100.554688 C 62.792969 100.792969 62.816406 101.03125 62.832031 101.273438 C 62.832031 101.734375 63.207031 102.113281 63.667969 102.113281 C 64.132812 102.113281 64.507812 101.734375 64.507812 101.273438 C 64.449219 100.164062 64.207031 99.070312 63.789062 98.039062 C 63.726562 97.832031 63.589844 97.65625 63.40625 97.539062 C 63.003906 97.304688 62.492188 97.441406 62.257812 97.839844 C 62.140625 98.035156 62.109375 98.269531 62.171875 98.488281 Z M 62.171875 98.488281 "/>
<path style=" stroke:none;fill-rule:nonzero;fill:rgb(12.941177%,9.019608%,8.235294%);fill-opacity:1;" d="M 67.445312 101.066406 C 67.507812 101.089844 67.5625 101.125 67.621094 101.15625 C 67.746094 101.222656 67.550781 101.074219 67.640625 101.171875 C 67.691406 101.226562 67.742188 101.273438 67.789062 101.328125 C 67.683594 101.203125 67.785156 101.332031 67.804688 101.363281 C 67.84375 101.429688 67.878906 101.492188 67.914062 101.558594 C 67.988281 101.699219 67.890625 101.460938 67.929688 101.597656 C 67.949219 101.667969 67.972656 101.738281 67.988281 101.8125 C 68.007812 101.894531 68.003906 101.953125 68 101.835938 C 68 101.902344 68 101.972656 68.003906 102.039062 C 68.011719 102.191406 68.042969 101.917969 68.003906 102.046875 C 67.945312 102.246094 68.078125 101.960938 67.988281 102.109375 C 67.957031 102.164062 67.925781 102.222656 67.890625 102.277344 C 67.964844 102.164062 67.816406 102.355469 67.792969 102.375 C 67.769531 102.398438 67.644531 102.503906 67.738281 102.433594 C 67.605469 102.527344 67.460938 102.613281 67.3125 102.679688 C 67.269531 102.699219 67.273438 102.699219 67.328125 102.675781 C 67.285156 102.691406 67.246094 102.707031 67.203125 102.722656 C 67.132812 102.75 67.058594 102.773438 66.984375 102.792969 C 66.902344 102.816406 66.820312 102.835938 66.738281 102.855469 C 66.6875 102.867188 66.636719 102.878906 66.582031 102.886719 C 66.628906 102.882812 66.625 102.882812 66.574219 102.886719 C 66.484375 102.894531 66.394531 102.894531 66.304688 102.894531 C 66.210938 102.886719 66.199219 102.886719 66.269531 102.894531 C 66.234375 102.886719 66.203125 102.878906 66.171875 102.871094 C 66.136719 102.863281 65.9375 102.785156 66.054688 102.839844 C 65.984375 102.804688 65.914062 102.765625 65.847656 102.726562 C 65.820312 102.707031 65.792969 102.691406 65.765625 102.667969 C 65.816406 102.710938 65.808594 102.707031 65.746094 102.652344 C 65.679688 102.601562 65.625 102.550781 65.570312 102.492188 C 65.472656 102.394531 65.386719 102.289062 65.316406 102.171875 C 65.117188 101.847656 64.941406 101.511719 64.792969 101.164062 C 64.597656 100.832031 64.167969 100.71875 63.835938 100.914062 C 63.511719 101.117188 63.402344 101.535156 63.585938 101.871094 C 63.84375 102.550781 64.253906 103.164062 64.78125 103.664062 C 65.066406 103.914062 65.402344 104.097656 65.765625 104.210938 C 66.179688 104.316406 66.613281 104.316406 67.03125 104.21875 C 67.71875 104.105469 68.351562 103.78125 68.847656 103.296875 C 69.320312 102.800781 69.507812 102.101562 69.339844 101.4375 C 69.203125 100.757812 68.765625 100.175781 68.148438 99.855469 C 67.816406 99.671875 67.394531 99.785156 67.191406 100.109375 C 67.003906 100.441406 67.113281 100.867188 67.445312 101.0625 Z M 67.445312 101.066406 "/>
<path style=" stroke:none;fill-rule:nonzero;fill:rgb(12.941177%,9.019608%,8.235294%);fill-opacity:1;" d="M 95.660156 40.300781 C 95.613281 41.070312 95.472656 41.828125 95.234375 42.558594 C 95.148438 42.835938 95.058594 43.113281 94.964844 43.386719 C 94.933594 43.480469 94.902344 43.578125 94.867188 43.671875 C 94.847656 43.734375 94.742188 43.964844 94.851562 43.722656 C 94.515625 44.457031 94.125 45.164062 93.691406 45.84375 C 92.421875 47.925781 90.820312 49.785156 88.957031 51.355469 C 87.925781 52.230469 86.726562 52.886719 85.433594 53.285156 C 84.398438 53.582031 84.839844 55.203125 85.878906 54.902344 C 88.558594 54.136719 90.789062 52.210938 92.582031 50.144531 C 94.054688 48.507812 95.289062 46.671875 96.246094 44.6875 C 96.886719 43.308594 97.257812 41.820312 97.335938 40.300781 C 97.371094 39.21875 95.695312 39.222656 95.660156 40.300781 Z M 95.660156 40.300781 "/>
<path style=" stroke:none;fill-rule:nonzero;fill:rgb(12.941177%,9.019608%,8.235294%);fill-opacity:1;" d="M 59.9375 40.324219 C 60.9375 45.679688 63.796875 50.820312 68.585938 53.65625 C 69.863281 54.425781 71.273438 54.945312 72.746094 55.179688 C 73.191406 55.289062 73.644531 55.03125 73.78125 54.59375 C 73.898438 54.148438 73.636719 53.691406 73.191406 53.5625 C 68.082031 52.785156 64.171875 48.15625 62.515625 43.503906 C 62.101562 42.324219 61.78125 41.109375 61.554688 39.878906 C 61.429688 39.433594 60.96875 39.171875 60.523438 39.292969 C 60.082031 39.421875 59.824219 39.878906 59.9375 40.324219 Z M 59.9375 40.324219 "/>
<path style=" stroke:none;fill-rule:nonzero;fill:rgb(12.941177%,9.019608%,8.235294%);fill-opacity:1;" d="M 98.191406 31.234375 C 98.992188 30.582031 100.167969 30.679688 100.847656 31.457031 C 101.226562 31.9375 101.261719 32.621094 101.285156 33.203125 C 101.320312 33.878906 101.285156 34.554688 101.179688 35.222656 C 100.972656 36.570312 100.496094 37.859375 99.78125 39.019531 C 99.246094 39.875 98.355469 41.03125 97.222656 40.71875 C 96.179688 40.433594 95.734375 42.050781 96.773438 42.335938 C 99.691406 43.140625 101.605469 39.691406 102.367188 37.40625 C 102.828125 36.027344 103.027344 34.578125 102.957031 33.125 C 102.886719 31.722656 102.515625 30.386719 101.238281 29.625 C 99.878906 28.84375 98.175781 29.011719 97 30.050781 C 96.679688 30.378906 96.679688 30.90625 97 31.234375 C 97.332031 31.554688 97.855469 31.554688 98.1875 31.234375 Z M 98.191406 31.234375 "/>
<path style=" stroke:none;fill-rule:nonzero;fill:rgb(12.941177%,9.019608%,8.235294%);fill-opacity:1;" d="M 60.546875 30.050781 C 59.480469 29.109375 57.96875 28.875 56.667969 29.445312 C 55.324219 30.039062 54.761719 31.277344 54.625 32.667969 C 54.34375 35.5 55.195312 38.664062 57.042969 40.855469 C 58.035156 42.027344 59.464844 42.96875 61.046875 42.597656 C 62.097656 42.355469 61.65625 40.734375 60.601562 40.980469 C 59.5 41.238281 58.425781 40.015625 57.886719 39.203125 C 57.132812 38.042969 56.625 36.738281 56.398438 35.375 C 56.28125 34.710938 56.238281 34.035156 56.261719 33.359375 C 56.277344 32.769531 56.289062 32.066406 56.632812 31.5625 C 56.945312 31.148438 57.414062 30.878906 57.929688 30.816406 C 58.441406 30.753906 58.960938 30.90625 59.363281 31.234375 C 59.695312 31.550781 60.214844 31.550781 60.546875 31.234375 C 60.871094 30.90625 60.871094 30.378906 60.546875 30.050781 Z M 60.546875 30.050781 "/>
<path style=" stroke:none;fill-rule:nonzero;fill:rgb(12.941177%,9.019608%,8.235294%);fill-opacity:1;" d="M 90.664062 57.746094 C 90.285156 60.273438 89.769531 62.78125 89.121094 65.253906 C 88.605469 67.242188 87.941406 69.167969 87.242188 71.09375 C 85.695312 75.382812 84.175781 79.703125 82.394531 83.902344 C 80.15625 89.175781 77.34375 94.128906 74.523438 99.101562 C 73.851562 100.265625 73.242188 101.460938 72.699219 102.6875 C 72.230469 103.65625 71.851562 104.664062 71.558594 105.703125 C 71.148438 107.421875 71.085938 109.246094 71.035156 111.003906 C 70.90625 115.210938 71.101562 119.414062 71.203125 123.621094 C 71.210938 123.980469 71.21875 124.339844 71.222656 124.699219 C 71.238281 125.777344 72.917969 125.78125 72.902344 124.699219 C 72.847656 120.6875 72.636719 116.679688 72.679688 112.664062 C 72.691406 111.625 72.714844 110.585938 72.773438 109.546875 C 72.800781 109.082031 72.832031 108.621094 72.875 108.160156 C 72.894531 107.957031 72.914062 107.753906 72.9375 107.550781 C 72.949219 107.441406 72.960938 107.328125 72.976562 107.21875 C 72.957031 107.375 73 107.085938 73.003906 107.050781 C 73.316406 105.039062 74.261719 103.101562 75.207031 101.320312 C 76.523438 98.832031 77.996094 96.425781 79.351562 93.957031 C 80.695312 91.503906 81.957031 89.011719 83.101562 86.457031 C 85.089844 82.003906 86.742188 77.402344 88.398438 72.820312 C 89.023438 71.097656 89.683594 69.382812 90.207031 67.628906 C 90.957031 65.0625 91.5625 62.457031 92.019531 59.824219 C 92.113281 59.28125 92.203125 58.738281 92.28125 58.191406 C 92.390625 57.746094 92.132812 57.292969 91.695312 57.15625 C 91.25 57.039062 90.792969 57.300781 90.664062 57.742188 Z M 90.664062 57.746094 "/>
<path style=" stroke:none;fill-rule:nonzero;fill:rgb(12.941177%,9.019608%,8.235294%);fill-opacity:1;" d="M 66.023438 57.796875 C 66.457031 62.976562 67.484375 68.089844 69.085938 73.035156 C 70.621094 77.6875 72.414062 82.25 74.449219 86.703125 C 75.527344 89.140625 76.632812 91.5625 77.707031 94 C 77.945312 94.398438 78.453125 94.53125 78.855469 94.300781 C 79.246094 94.058594 79.378906 93.554688 79.15625 93.152344 C 75.308594 84.414062 71.125 75.777344 69.015625 66.40625 C 68.371094 63.574219 67.933594 60.695312 67.703125 57.796875 C 67.691406 57.339844 67.324219 56.96875 66.863281 56.957031 C 66.402344 56.960938 66.027344 57.335938 66.023438 57.796875 Z M 66.023438 57.796875 "/>
<path style=" stroke:none;fill-rule:nonzero;fill:rgb(12.941177%,9.019608%,8.235294%);fill-opacity:1;" d="M 85.992188 68.039062 C 87.714844 66.023438 89.21875 63.832031 90.488281 61.503906 C 90.796875 60.929688 91.085938 60.351562 91.367188 59.765625 C 91.539062 59.460938 91.683594 59.144531 91.804688 58.816406 C 91.917969 58.398438 91.644531 58.023438 91.460938 57.671875 C 90.894531 56.566406 90.144531 55.566406 89.246094 54.707031 C 89.058594 54.53125 88.804688 54.445312 88.546875 54.480469 C 88.292969 54.511719 88.066406 54.660156 87.929688 54.878906 C 86.523438 56.742188 84.113281 58.234375 81.964844 59.304688 C 81.269531 59.65625 80.535156 59.921875 79.835938 60.261719 C 79.105469 60.613281 78.679688 61.304688 79.195312 62.054688 C 79.742188 62.851562 80.546875 63.488281 81.195312 64.195312 C 82.382812 65.488281 83.671875 66.695312 84.808594 68.039062 C 85.136719 68.363281 85.664062 68.363281 85.992188 68.039062 C 86.3125 67.710938 86.3125 67.183594 85.992188 66.851562 C 84.925781 65.589844 83.71875 64.453125 82.597656 63.242188 C 82.113281 62.71875 81.628906 62.203125 81.125 61.703125 C 80.988281 61.566406 80.855469 61.429688 80.71875 61.296875 C 80.664062 61.242188 80.542969 61.066406 80.714844 61.3125 C 80.695312 61.28125 80.582031 61.089844 80.597656 61.144531 L 80.597656 61.59375 L 80.621094 61.496094 L 80.40625 61.867188 C 80.320312 61.964844 80.492188 61.804688 80.554688 61.773438 C 80.621094 61.738281 80.6875 61.707031 80.753906 61.675781 C 81.035156 61.546875 81.328125 61.4375 81.609375 61.316406 C 82.109375 61.097656 82.601562 60.863281 83.085938 60.617188 C 83.976562 60.160156 84.839844 59.648438 85.667969 59.085938 C 87.078125 58.175781 88.332031 57.042969 89.378906 55.726562 L 88.058594 55.894531 C 88.976562 56.796875 89.722656 57.851562 90.269531 59.015625 L 90.269531 58.167969 C 88.84375 61.292969 87.007812 64.214844 84.808594 66.855469 C 84.492188 67.1875 84.492188 67.710938 84.808594 68.042969 C 85.136719 68.363281 85.664062 68.363281 85.992188 68.039062 Z M 85.992188 68.039062 "/>
<path style=" stroke:none;fill-rule:nonzero;fill:rgb(12.941177%,9.019608%,8.235294%);fill-opacity:1;" d="M 73.195312 66.851562 C 70.992188 64.214844 69.15625 61.292969 67.734375 58.167969 L 67.734375 59.015625 C 68.28125 57.851562 69.027344 56.796875 69.941406 55.894531 L 68.625 55.726562 C 69.667969 57.042969 70.921875 58.175781 72.335938 59.085938 C 73.164062 59.648438 74.023438 60.160156 74.914062 60.617188 C 75.375 60.851562 75.84375 61.074219 76.320312 61.285156 C 76.601562 61.410156 76.890625 61.523438 77.175781 61.644531 C 77.269531 61.6875 77.355469 61.726562 77.445312 61.773438 C 77.503906 61.804688 77.699219 61.984375 77.597656 61.867188 L 77.382812 61.496094 L 77.40625 61.59375 L 77.40625 61.144531 C 77.417969 61.089844 77.308594 61.28125 77.285156 61.3125 C 77.460938 61.066406 77.339844 61.242188 77.285156 61.296875 C 77.148438 61.429688 77.011719 61.566406 76.878906 61.703125 C 76.371094 62.203125 75.890625 62.722656 75.40625 63.242188 C 74.28125 64.453125 73.074219 65.589844 72.007812 66.851562 C 71.691406 67.1875 71.691406 67.707031 72.007812 68.042969 C 72.335938 68.363281 72.867188 68.363281 73.195312 68.042969 C 74.191406 66.859375 75.316406 65.789062 76.375 64.664062 C 76.867188 64.140625 77.347656 63.609375 77.851562 63.101562 C 78.097656 62.855469 78.363281 62.621094 78.585938 62.355469 C 79.066406 61.78125 79.28125 61.015625 78.578125 60.5 C 78 60.082031 77.242188 59.878906 76.597656 59.574219 C 75.265625 58.957031 73.992188 58.214844 72.792969 57.363281 C 71.773438 56.667969 70.859375 55.832031 70.074219 54.878906 C 69.941406 54.660156 69.714844 54.511719 69.457031 54.480469 C 69.203125 54.445312 68.945312 54.53125 68.757812 54.707031 C 67.859375 55.566406 67.109375 56.566406 66.546875 57.671875 C 66.375 57.992188 66.136719 58.324219 66.1875 58.703125 C 66.277344 59.054688 66.417969 59.386719 66.605469 59.699219 C 66.898438 60.304688 67.199219 60.90625 67.515625 61.503906 C 68.785156 63.832031 70.289062 66.019531 72.011719 68.039062 C 72.339844 68.363281 72.867188 68.363281 73.195312 68.039062 C 73.515625 67.707031 73.511719 67.183594 73.195312 66.851562 Z M 73.195312 66.851562 "/>
<path style=" stroke:none;fill-rule:nonzero;fill:rgb(12.941177%,9.019608%,8.235294%);fill-opacity:1;" d="M 90.5 60.84375 C 90.632812 60.984375 90.535156 60.863281 90.613281 60.972656 C 90.675781 61.0625 90.734375 61.160156 90.792969 61.253906 C 90.949219 61.511719 91.085938 61.777344 91.21875 62.046875 C 91.457031 62.535156 91.664062 63.035156 91.835938 63.550781 C 93.050781 67.535156 93.585938 71.699219 93.414062 75.859375 C 93.324219 77.625 93.117188 79.378906 92.855469 81.125 C 92.746094 81.570312 93.003906 82.023438 93.441406 82.15625 C 93.886719 82.277344 94.347656 82.015625 94.472656 81.570312 C 94.9375 78.457031 95.269531 75.308594 95.09375 72.15625 C 94.925781 69.144531 94.394531 66.164062 93.515625 63.28125 C 93.296875 62.605469 93.03125 61.945312 92.71875 61.308594 C 92.464844 60.707031 92.117188 60.152344 91.6875 59.65625 C 90.941406 58.875 89.757812 60.0625 90.5 60.84375 Z M 90.5 60.84375 "/>
<path style=" stroke:none;fill-rule:nonzero;fill:rgb(100%,100%,100%);fill-opacity:1;" d="M 30.742188 67.410156 C 29.714844 64.945312 28.910156 63.433594 27.585938 60.878906 C 27.503906 60.71875 26.914062 59.898438 26.359375 59.738281 C 25.851562 59.585938 25.300781 59.726562 24.925781 60.105469 C 24.5625 60.453125 24.351562 60.929688 24.34375 61.433594 C 24.347656 63.171875 24.613281 64.898438 25.125 66.558594 C 22.15625 66.160156 16.210938 63.335938 13.039062 61.660156 C 12.277344 61.257812 11.519531 60.796875 10.664062 60.675781 C 9.78125 60.546875 8.21875 61.15625 7.910156 62.003906 C 6.707031 61.421875 6.050781 61.433594 5.300781 61.71875 C 4.410156 62.058594 4.148438 62.414062 3.972656 62.917969 C 3.753906 63.480469 3.785156 64.109375 4.050781 64.652344 C 4.09375 64.726562 4.121094 64.808594 4.128906 64.894531 C 4.121094 64.980469 4.09375 65.066406 4.042969 65.136719 C 3.546875 66.207031 3.800781 67.476562 4.671875 68.269531 C 4.339844 68.828125 4.40625 69.53125 4.832031 70.019531 C 7.128906 72.625 15.328125 77.410156 20.015625 79.21875 C 20.277344 79.296875 20.523438 79.425781 20.734375 79.601562 C 20.953125 79.839844 21.113281 80.125 21.203125 80.4375 C 21.492188 81.234375 21.710938 81.800781 21.953125 82.519531 C 24.078125 81.929688 29.171875 80.488281 32.023438 79.425781 C 31.769531 78.605469 31.582031 77.773438 31.457031 76.925781 L 31.402344 76.289062 C 31.910156 73.519531 32.097656 70.769531 31.042969 68.144531 C 30.9375 67.890625 30.839844 67.648438 30.742188 67.410156 Z M 30.742188 67.410156 "/>
<path style=" stroke:none;fill-rule:nonzero;fill:rgb(12.941177%,9.019608%,8.235294%);fill-opacity:1;" d="M 24.421875 65.570312 C 22.050781 64.996094 19.777344 63.988281 17.574219 62.96875 C 16.441406 62.441406 15.320312 61.894531 14.207031 61.324219 C 13.035156 60.71875 11.800781 59.847656 10.4375 59.820312 C 9.117188 59.796875 7.621094 60.535156 7.101562 61.78125 L 8.335938 61.277344 C 7.675781 60.914062 6.933594 60.714844 6.179688 60.6875 C 5.503906 60.71875 4.84375 60.925781 4.269531 61.28125 C 3.746094 61.605469 3.351562 62.105469 3.164062 62.695312 C 3.023438 63.09375 2.96875 63.515625 3.003906 63.9375 C 3.085938 64.335938 3.191406 64.730469 3.320312 65.117188 L 3.320312 64.671875 C 3.257812 64.957031 3.082031 65.222656 3.027344 65.519531 C 2.953125 65.878906 2.933594 66.246094 2.972656 66.609375 C 3.058594 67.386719 3.386719 68.117188 3.914062 68.699219 C 4.628906 69.507812 5.8125 68.316406 5.097656 67.511719 C 4.703125 67.058594 4.542969 66.445312 4.667969 65.859375 C 4.757812 65.457031 5.039062 65.125 4.9375 64.671875 C 4.847656 64.246094 4.605469 63.925781 4.6875 63.472656 C 4.703125 63.386719 4.726562 63.300781 4.757812 63.214844 C 4.757812 63.203125 4.847656 62.980469 4.792969 63.097656 C 4.832031 63.023438 4.875 62.949219 4.929688 62.882812 C 5.140625 62.691406 5.394531 62.550781 5.667969 62.472656 C 6.289062 62.269531 6.847656 62.425781 7.484375 62.726562 C 7.710938 62.851562 7.980469 62.867188 8.21875 62.769531 C 8.460938 62.671875 8.640625 62.472656 8.71875 62.226562 C 8.6875 62.296875 8.769531 62.175781 8.773438 62.171875 C 8.832031 62.109375 8.890625 62.050781 8.957031 61.996094 C 9.125 61.871094 9.308594 61.769531 9.503906 61.691406 C 9.910156 61.5 10.371094 61.449219 10.808594 61.554688 C 11.902344 61.835938 12.914062 62.546875 13.917969 63.054688 C 16.074219 64.144531 18.269531 65.164062 20.519531 66.046875 C 21.640625 66.503906 22.796875 66.882812 23.972656 67.183594 C 25.019531 67.4375 25.46875 65.820312 24.417969 65.566406 Z M 24.421875 65.570312 "/>
<path style=" stroke:none;fill-rule:nonzero;fill:rgb(12.941177%,9.019608%,8.235294%);fill-opacity:1;" d="M 5.34375 68.8125 C 5.351562 68.753906 5.378906 68.695312 5.328125 68.769531 C 5.292969 68.816406 5.246094 68.742188 5.398438 68.734375 C 5.484375 68.714844 5.570312 68.699219 5.65625 68.691406 C 5.996094 68.699219 6.382812 68.992188 6.679688 69.140625 C 7.542969 69.570312 8.398438 70.011719 9.261719 70.441406 C 10.921875 71.316406 12.652344 72.039062 14.4375 72.609375 C 15.476562 72.914062 15.917969 71.292969 14.882812 70.992188 C 12.828125 70.390625 10.910156 69.402344 9.011719 68.4375 C 8.539062 68.199219 8.066406 67.960938 7.597656 67.722656 C 7.132812 67.441406 6.636719 67.222656 6.117188 67.070312 C 5.203125 66.878906 3.875 67.296875 3.730469 68.367188 C 3.621094 68.808594 3.878906 69.261719 4.316406 69.398438 C 4.761719 69.519531 5.222656 69.257812 5.347656 68.8125 Z M 5.34375 68.8125 "/>
<path style=" stroke:none;fill-rule:nonzero;fill:rgb(12.941177%,9.019608%,8.235294%);fill-opacity:1;" d="M 4.894531 65.378906 C 5.121094 65.238281 5.40625 65.214844 5.652344 65.316406 C 6.085938 65.5 6.511719 65.707031 6.933594 65.910156 C 7.949219 66.398438 8.964844 66.875 9.996094 67.328125 C 11.835938 68.136719 13.65625 69 15.515625 69.757812 C 15.964844 69.878906 16.425781 69.617188 16.550781 69.171875 C 16.660156 68.726562 16.402344 68.273438 15.964844 68.140625 C 14.109375 67.386719 12.148438 66.453125 10.253906 65.625 C 9.09375 65.117188 7.972656 64.535156 6.820312 64.011719 C 6.355469 63.753906 5.835938 63.609375 5.308594 63.578125 C 4.710938 63.550781 4.128906 63.773438 3.707031 64.191406 C 3.390625 64.523438 3.390625 65.046875 3.707031 65.378906 C 4.035156 65.703125 4.5625 65.703125 4.890625 65.378906 Z M 4.894531 65.378906 "/>
<path style=" stroke:none;fill-rule:nonzero;fill:rgb(12.941177%,9.019608%,8.235294%);fill-opacity:1;" d="M 3.726562 68.367188 C 3.28125 70.003906 4.613281 71.09375 5.75 72.003906 C 6.945312 72.953125 8.1875 73.832031 9.476562 74.640625 C 12.296875 76.457031 15.25 78.054688 18.316406 79.414062 C 18.71875 79.589844 19.125 79.761719 19.53125 79.925781 C 19.910156 80.074219 20.171875 80.136719 20.34375 80.527344 C 20.765625 81.546875 21.125 82.589844 21.429688 83.648438 C 21.738281 84.679688 23.359375 84.242188 23.046875 83.203125 C 22.769531 82.285156 22.441406 81.386719 22.109375 80.488281 C 21.984375 80.0625 21.796875 79.652344 21.554688 79.277344 C 21.1875 78.84375 20.699219 78.53125 20.152344 78.375 C 18.792969 77.832031 17.464844 77.21875 16.167969 76.539062 C 13.246094 75.070312 10.445312 73.375 7.789062 71.46875 C 7.238281 71.074219 6.707031 70.648438 6.203125 70.195312 C 5.800781 69.835938 5.179688 69.410156 5.34375 68.808594 C 5.625 67.765625 4.007812 67.320312 3.726562 68.363281 Z M 3.726562 68.367188 "/>
<path style=" stroke:none;fill-rule:nonzero;fill:rgb(12.941177%,9.019608%,8.235294%);fill-opacity:1;" d="M 32.03125 77.445312 C 32.457031 75.34375 32.800781 73.175781 32.582031 71.03125 C 32.363281 68.925781 31.527344 67.027344 30.652344 65.121094 C 30.292969 64.335938 29.910156 63.5625 29.519531 62.792969 C 29.113281 61.996094 28.746094 61.136719 28.265625 60.382812 C 27.859375 59.738281 27.222656 59.066406 26.453125 58.898438 C 25.441406 58.699219 24.414062 59.167969 23.902344 60.0625 C 23.308594 60.988281 23.5 62.210938 23.605469 63.246094 C 23.722656 64.480469 23.96875 65.695312 24.339844 66.871094 C 24.667969 67.898438 26.289062 67.460938 25.957031 66.425781 C 25.671875 65.542969 25.464844 64.632812 25.335938 63.714844 C 25.285156 63.335938 25.253906 62.957031 25.226562 62.578125 C 25.167969 62.152344 25.152344 61.722656 25.183594 61.292969 C 25.261719 60.808594 25.777344 60.335938 26.210938 60.59375 C 26.71875 60.894531 26.890625 61.367188 27.160156 61.886719 C 27.882812 63.277344 28.605469 64.667969 29.257812 66.089844 C 29.957031 67.621094 30.675781 69.1875 30.882812 70.875 C 31.136719 72.921875 30.816406 74.992188 30.410156 77 C 30.300781 77.445312 30.558594 77.898438 30.996094 78.03125 C 31.445312 78.148438 31.902344 77.886719 32.03125 77.445312 Z M 32.03125 77.445312 "/>
<path style=" stroke:none;fill-rule:nonzero;fill:rgb(12.941177%,9.019608%,8.235294%);fill-opacity:1;" d="M 7.488281 62.726562 C 9 63.4375 10.449219 64.277344 11.957031 64.996094 C 13.71875 65.839844 15.425781 66.792969 17.160156 67.691406 C 18.117188 68.191406 18.964844 66.742188 18.007812 66.246094 C 16.273438 65.34375 14.566406 64.390625 12.804688 63.546875 C 11.296875 62.828125 9.847656 61.988281 8.335938 61.28125 C 7.933594 61.058594 7.429688 61.191406 7.1875 61.582031 C 6.957031 61.980469 7.089844 62.492188 7.488281 62.726562 Z M 7.488281 62.726562 "/>
<path style=" stroke:none;fill-rule:nonzero;fill:rgb(12.941177%,9.019608%,8.235294%);fill-opacity:1;" d="M 18.210938 66.734375 C 16.539062 68.128906 14.9375 69.601562 13.402344 71.148438 C 13.082031 71.476562 13.082031 72.003906 13.410156 72.332031 C 13.734375 72.65625 14.261719 72.660156 14.589844 72.335938 C 16.121094 70.789062 17.722656 69.316406 19.398438 67.921875 C 19.726562 67.59375 19.726562 67.0625 19.398438 66.734375 C 19.066406 66.417969 18.542969 66.417969 18.210938 66.734375 Z M 18.210938 66.734375 "/>
<path style=" stroke:none;fill-rule:nonzero;fill:rgb(12.941177%,9.019608%,8.235294%);fill-opacity:1;" d="M 15.15625 72.777344 C 16.054688 72.796875 16.949219 72.835938 17.84375 72.90625 C 18.632812 72.933594 19.414062 73.039062 20.183594 73.214844 C 21.394531 73.558594 22.394531 74.410156 22.929688 75.546875 C 23.167969 75.941406 23.679688 76.074219 24.078125 75.847656 C 24.472656 75.605469 24.605469 75.101562 24.378906 74.699219 C 23.664062 73.265625 22.40625 72.175781 20.882812 71.675781 C 20 71.429688 19.09375 71.289062 18.175781 71.253906 C 17.171875 71.171875 16.164062 71.121094 15.15625 71.097656 C 14.074219 71.078125 14.074219 72.753906 15.15625 72.777344 Z M 15.15625 72.777344 "/>
<path style=" stroke:none;fill-rule:nonzero;fill:rgb(12.941177%,9.019608%,8.235294%);fill-opacity:1;" d="M 30.617188 76.925781 C 30.738281 78.234375 31.175781 79.503906 31.523438 80.765625 C 31.648438 81.210938 32.109375 81.472656 32.554688 81.351562 C 33.003906 81.226562 33.265625 80.765625 33.140625 80.320312 C 32.976562 79.714844 32.800781 79.109375 32.640625 78.5 C 32.558594 78.183594 32.476562 77.867188 32.40625 77.546875 C 32.375 77.402344 32.347656 77.261719 32.324219 77.121094 C 32.304688 77.054688 32.292969 76.984375 32.292969 76.917969 C 32.292969 76.921875 32.316406 77.144531 32.308594 77.027344 C 32.304688 76.992188 32.300781 76.960938 32.296875 76.925781 C 32.296875 76.460938 31.921875 76.085938 31.457031 76.085938 C 30.992188 76.085938 30.617188 76.460938 30.617188 76.925781 Z M 30.617188 76.925781 "/>
<path style=" stroke:none;fill-rule:nonzero;fill:rgb(100%,100%,100%);fill-opacity:1;" d="M 21.464844 82.652344 C 23.3125 82.144531 29.902344 80.308594 32.734375 79.144531 C 33.007812 79.828125 33.558594 81.496094 33.90625 82.394531 L 33.984375 82.589844 C 30.402344 83.984375 25.566406 85.597656 22.046875 86.21875 L 22.023438 86.148438 C 21.679688 85.050781 21.183594 83.089844 21.066406 82.761719 Z M 21.464844 82.652344 "/>
<path style=" stroke:none;fill-rule:nonzero;fill:rgb(12.941177%,9.019608%,8.235294%);fill-opacity:1;" d="M 22.835938 85.925781 C 22.488281 84.808594 22.253906 83.648438 21.878906 82.539062 L 21.292969 83.570312 C 24.332031 82.734375 27.367188 81.875 30.363281 80.886719 C 31.238281 80.597656 32.105469 80.300781 32.957031 79.953125 L 31.925781 79.367188 C 32.347656 80.4375 32.6875 81.542969 33.097656 82.617188 C 33.234375 83.058594 33.6875 83.3125 34.132812 83.203125 C 34.574219 83.078125 34.835938 82.617188 34.71875 82.171875 C 34.304688 81.097656 33.96875 79.992188 33.542969 78.921875 C 33.394531 78.539062 32.96875 78.148438 32.511719 78.335938 C 29.222656 79.675781 25.734375 80.589844 22.320312 81.546875 C 21.828125 81.683594 21.335938 81.820312 20.84375 81.953125 C 20.398438 82.082031 20.136719 82.539062 20.257812 82.988281 C 20.632812 84.097656 20.867188 85.253906 21.214844 86.375 C 21.535156 87.402344 23.152344 86.964844 22.832031 85.929688 Z M 22.835938 85.925781 "/>
<path style=" stroke:none;fill-rule:nonzero;fill:rgb(12.941177%,9.019608%,8.235294%);fill-opacity:1;" d="M 41.148438 98.601562 C 39.285156 93.078125 37.632812 87.484375 35.976562 81.894531 C 35.851562 81.453125 35.390625 81.191406 34.945312 81.308594 C 32.601562 82.261719 30.21875 83.117188 27.804688 83.875 C 25.546875 84.582031 23.148438 85.285156 20.839844 85.558594 C 20.578125 85.566406 20.335938 85.6875 20.179688 85.894531 C 20.023438 86.101562 19.96875 86.367188 20.03125 86.621094 C 20.863281 90.667969 21.652344 94.722656 22.625 98.738281 C 23.519531 102.425781 24.46875 106.195312 26.058594 109.652344 C 27.378906 112.507812 29.378906 115.1875 32.289062 116.554688 C 35.777344 118.195312 39.824219 118.152344 43.277344 116.433594 C 44.964844 115.589844 46.429688 114.328125 47.796875 113.042969 C 49.152344 111.777344 50.417969 110.421875 51.703125 109.089844 C 52.453125 108.3125 51.269531 107.121094 50.519531 107.902344 C 48.355469 110.140625 46.238281 112.59375 43.613281 114.304688 C 40.667969 116.222656 36.980469 116.609375 33.703125 115.34375 C 30.941406 114.3125 29.058594 111.949219 27.785156 109.378906 C 27.109375 107.96875 26.542969 106.507812 26.09375 105.011719 C 25.484375 103.085938 24.949219 101.140625 24.460938 99.179688 C 23.386719 94.875 22.546875 90.519531 21.648438 86.175781 L 20.839844 87.238281 C 23.3125 86.894531 25.746094 86.324219 28.117188 85.535156 C 30.574219 84.769531 33 83.902344 35.390625 82.929688 L 34.359375 82.34375 C 36.015625 87.933594 37.664062 93.523438 39.53125 99.050781 C 39.875 100.066406 41.496094 99.632812 41.148438 98.605469 Z M 41.148438 98.601562 "/>
<path style=" stroke:none;fill-rule:nonzero;fill:rgb(12.941177%,9.019608%,8.235294%);fill-opacity:1;" d="M 76.382812 31.476562 C 76.382812 31.523438 76.390625 31.566406 76.386719 31.613281 L 78.035156 31.390625 C 77.941406 30.664062 77.542969 30.011719 76.945312 29.59375 C 76.351562 29.214844 75.691406 28.945312 75.003906 28.789062 C 73.53125 28.429688 72.011719 28.300781 70.5 28.410156 C 68.96875 28.445312 67.457031 28.734375 66.019531 29.261719 C 65.328125 29.511719 64.753906 30.011719 64.410156 30.664062 C 64.136719 31.324219 64.015625 32.039062 64.054688 32.753906 C 64.039062 34.078125 64.394531 35.386719 65.082031 36.523438 C 65.796875 37.59375 67 38.171875 68.191406 38.554688 C 69.324219 38.898438 70.511719 39.019531 71.691406 38.917969 C 72.964844 38.875 74.222656 38.601562 75.402344 38.117188 C 78.007812 36.960938 78.40625 33.75 78.03125 31.253906 C 77.902344 30.808594 77.445312 30.546875 76.996094 30.667969 C 76.558594 30.800781 76.300781 31.253906 76.410156 31.699219 C 76.640625 33.210938 76.53125 35.316406 75.1875 36.320312 C 74.496094 36.832031 73.480469 37.058594 72.640625 37.167969 C 71.730469 37.304688 70.808594 37.328125 69.894531 37.238281 C 68.890625 37.117188 67.929688 36.761719 67.085938 36.203125 C 66.320312 35.691406 66.019531 34.742188 65.847656 33.875 C 65.757812 33.40625 65.71875 32.929688 65.734375 32.453125 C 65.75 31.972656 65.769531 31.40625 66.171875 31.082031 C 66.558594 30.820312 67 30.640625 67.460938 30.5625 C 68.113281 30.382812 68.78125 30.253906 69.453125 30.175781 C 70.847656 29.992188 72.261719 30.003906 73.648438 30.210938 C 74.3125 30.308594 74.960938 30.488281 75.578125 30.746094 C 75.800781 30.824219 76.003906 30.949219 76.171875 31.109375 C 76.320312 31.324219 76.402344 31.574219 76.417969 31.832031 C 76.59375 32.800781 78.027344 32.511719 78.066406 31.609375 C 78.066406 31.566406 78.058594 31.519531 78.0625 31.476562 C 78.101562 30.398438 76.421875 30.398438 76.382812 31.476562 Z M 76.382812 31.476562 "/>
<path style=" stroke:none;fill-rule:nonzero;fill:rgb(12.941177%,9.019608%,8.235294%);fill-opacity:1;" d="M 80.558594 31.476562 C 80.558594 31.523438 80.550781 31.566406 80.550781 31.613281 C 80.558594 32.027344 80.867188 32.378906 81.28125 32.4375 C 81.695312 32.496094 82.089844 32.238281 82.199219 31.835938 C 82.214844 31.382812 82.492188 30.984375 82.90625 30.8125 C 83.417969 30.574219 83.957031 30.402344 84.511719 30.300781 C 85.726562 30.066406 86.964844 29.996094 88.199219 30.09375 C 89.460938 30.136719 90.710938 30.371094 91.90625 30.785156 C 92.335938 30.902344 92.667969 31.234375 92.792969 31.660156 C 92.902344 32.160156 92.925781 32.679688 92.863281 33.1875 C 92.796875 34.078125 92.5625 35.152344 91.960938 35.847656 C 91.328125 36.566406 90.320312 36.867188 89.449219 37.089844 C 87.628906 37.417969 85.757812 37.265625 84.015625 36.648438 C 82.160156 35.867188 81.945312 33.429688 82.207031 31.699219 C 82.3125 31.253906 82.058594 30.800781 81.621094 30.664062 C 81.171875 30.546875 80.714844 30.808594 80.585938 31.25 C 80.242188 33.539062 80.503906 36.277344 82.539062 37.734375 C 83.5 38.421875 84.820312 38.714844 85.976562 38.84375 C 87.136719 39.007812 88.3125 38.992188 89.464844 38.804688 C 90.753906 38.589844 91.964844 38.035156 92.972656 37.203125 C 93.902344 36.371094 94.308594 34.992188 94.472656 33.796875 C 94.65625 32.476562 94.6875 30.800781 93.585938 29.851562 C 93.003906 29.402344 92.324219 29.089844 91.605469 28.941406 C 90.828125 28.742188 90.039062 28.59375 89.242188 28.503906 C 87.546875 28.285156 85.820312 28.339844 84.140625 28.664062 C 83.355469 28.808594 82.59375 29.074219 81.890625 29.453125 C 81.175781 29.855469 80.691406 30.574219 80.582031 31.386719 L 82.230469 31.609375 C 82.226562 31.5625 82.238281 31.519531 82.234375 31.472656 C 82.195312 30.402344 80.519531 30.394531 80.558594 31.476562 Z M 80.558594 31.476562 "/>
<path style=" stroke:none;fill-rule:nonzero;fill:rgb(12.941177%,9.019608%,8.235294%);fill-opacity:1;" d="M 77.859375 32.824219 C 78.011719 32.785156 78.164062 32.75 78.316406 32.722656 C 78.382812 32.710938 78.449219 32.699219 78.515625 32.691406 C 78.738281 32.65625 78.332031 32.707031 78.558594 32.683594 C 78.847656 32.65625 79.136719 32.644531 79.425781 32.644531 C 79.558594 32.648438 79.695312 32.652344 79.828125 32.664062 C 79.90625 32.667969 79.984375 32.675781 80.058594 32.6875 C 80.09375 32.691406 80.125 32.691406 80.160156 32.699219 C 80.046875 32.683594 80.039062 32.679688 80.136719 32.695312 C 80.421875 32.742188 80.707031 32.808594 80.988281 32.882812 C 81.433594 33.007812 81.894531 32.746094 82.019531 32.296875 C 82.140625 31.851562 81.878906 31.390625 81.433594 31.265625 C 80.121094 30.894531 78.734375 30.875 77.414062 31.203125 C 76.96875 31.332031 76.707031 31.789062 76.828125 32.234375 C 76.957031 32.675781 77.414062 32.9375 77.859375 32.824219 Z M 77.859375 32.824219 "/>
<path style=" stroke:none;fill-rule:nonzero;fill:rgb(12.941177%,9.019608%,8.235294%);fill-opacity:1;" d="M 65.101562 30.828125 C 64.527344 30.695312 63.9375 30.636719 63.347656 30.652344 C 63.125 30.65625 62.910156 30.742188 62.753906 30.898438 C 62.511719 31.136719 62.4375 31.5 62.570312 31.8125 C 62.699219 32.125 63.007812 32.332031 63.347656 32.332031 C 63.683594 32.320312 64.019531 32.335938 64.351562 32.382812 L 64.128906 32.351562 C 64.308594 32.375 64.480469 32.40625 64.65625 32.445312 C 64.875 32.5 65.105469 32.472656 65.300781 32.363281 C 65.703125 32.128906 65.835938 31.613281 65.601562 31.214844 C 65.492188 31.027344 65.3125 30.886719 65.101562 30.828125 Z M 65.101562 30.828125 "/>
<path style=" stroke:none;fill-rule:nonzero;fill:rgb(12.941177%,9.019608%,8.235294%);fill-opacity:1;" d="M 93.980469 32.445312 C 94.15625 32.40625 94.332031 32.375 94.503906 32.351562 L 94.28125 32.378906 C 94.617188 32.335938 94.953125 32.320312 95.289062 32.328125 C 95.753906 32.328125 96.128906 31.953125 96.128906 31.492188 C 96.128906 31.269531 96.039062 31.054688 95.882812 30.898438 C 95.722656 30.746094 95.511719 30.65625 95.289062 30.652344 C 94.699219 30.636719 94.109375 30.695312 93.535156 30.828125 C 93.207031 30.917969 92.96875 31.191406 92.925781 31.527344 C 92.878906 31.863281 93.042969 32.191406 93.332031 32.359375 C 93.53125 32.46875 93.761719 32.496094 93.980469 32.445312 Z M 93.980469 32.445312 "/>
<path style=" stroke:none;fill-rule:nonzero;fill:rgb(12.941177%,9.019608%,8.235294%);fill-opacity:1;" d="M 75.183594 45.320312 C 76.238281 46.351562 77.910156 46.652344 79.324219 46.652344 C 80.738281 46.652344 82.410156 46.355469 83.464844 45.324219 C 84.238281 44.566406 83.054688 43.378906 82.28125 44.136719 C 82.246094 44.171875 82.070312 44.320312 82.175781 44.234375 C 82.273438 44.160156 82.046875 44.320312 81.996094 44.355469 C 81.902344 44.410156 81.808594 44.460938 81.710938 44.511719 C 81.644531 44.542969 81.582031 44.574219 81.515625 44.601562 C 81.628906 44.554688 81.511719 44.601562 81.457031 44.621094 C 80.773438 44.863281 80.050781 44.980469 79.324219 44.972656 C 78.613281 44.984375 77.902344 44.867188 77.230469 44.632812 C 77.21875 44.628906 76.976562 44.527344 77.136719 44.597656 C 77.082031 44.574219 77.027344 44.546875 76.972656 44.519531 C 76.863281 44.46875 76.757812 44.410156 76.65625 44.347656 C 76.578125 44.300781 76.503906 44.246094 76.429688 44.195312 C 76.644531 44.339844 76.421875 44.179688 76.371094 44.128906 C 75.597656 43.375 74.410156 44.558594 75.183594 45.316406 Z M 75.183594 45.320312 "/>
<path style=" stroke:none;fill-rule:nonzero;fill:rgb(12.941177%,9.019608%,8.235294%);fill-opacity:1;" d="M 78.898438 37.519531 C 79.0625 38.121094 79.195312 38.730469 79.296875 39.347656 L 79.265625 39.125 C 79.277344 39.207031 79.28125 39.292969 79.273438 39.375 L 79.300781 39.152344 C 79.296875 39.191406 79.289062 39.230469 79.273438 39.265625 L 79.359375 39.066406 C 79.347656 39.089844 79.335938 39.117188 79.320312 39.136719 L 79.449219 38.96875 C 79.433594 38.992188 79.414062 39.011719 79.390625 39.027344 L 79.558594 38.894531 C 79.515625 38.925781 79.464844 38.949219 79.414062 38.972656 L 79.617188 38.886719 C 79.539062 38.921875 79.457031 38.945312 79.371094 38.957031 L 79.59375 38.929688 C 79.519531 38.9375 79.441406 38.9375 79.363281 38.929688 L 79.589844 38.957031 C 79.5 38.945312 79.417969 38.925781 79.332031 38.914062 C 79.113281 38.863281 78.882812 38.890625 78.683594 38.996094 C 78.285156 39.230469 78.148438 39.746094 78.382812 40.144531 C 78.492188 40.335938 78.671875 40.476562 78.886719 40.53125 C 79.074219 40.554688 79.253906 40.605469 79.445312 40.613281 C 79.726562 40.613281 80.007812 40.546875 80.257812 40.417969 C 80.582031 40.277344 80.820312 39.996094 80.90625 39.65625 C 80.964844 39.378906 80.960938 39.09375 80.898438 38.820312 C 80.800781 38.230469 80.664062 37.648438 80.515625 37.074219 C 80.390625 36.625 79.929688 36.363281 79.480469 36.488281 C 79.035156 36.609375 78.773438 37.074219 78.894531 37.519531 Z M 78.898438 37.519531 "/>
<path style=" stroke:none;fill-rule:nonzero;fill:rgb(12.941177%,9.019608%,8.235294%);fill-opacity:1;" d="M 69.5625 32.453125 C 69.277344 33.382812 69.460938 35.523438 71.222656 35.707031 C 73.554688 35.695312 73.679688 33.105469 72.894531 31.890625 C 72.253906 30.894531 70.367188 30.476562 69.5625 32.453125 Z M 69.5625 32.453125 "/>
<path style=" stroke:none;fill-rule:nonzero;fill:rgb(12.941177%,9.019608%,8.235294%);fill-opacity:1;" d="M 88.765625 32.464844 C 89.054688 33.394531 88.863281 35.535156 87.101562 35.714844 C 84.773438 35.699219 84.648438 33.113281 85.433594 31.894531 C 86.078125 30.902344 87.964844 30.488281 88.765625 32.464844 Z M 88.765625 32.464844 "/>
</g>
</svg>
