<?xml version="1.0" encoding="UTF-8"?>
<svg xmlns="http://www.w3.org/2000/svg" xmlns:xlink="http://www.w3.org/1999/xlink" width="127px" height="126px" viewBox="0 0 126 126" version="1.1">
<g id="surface1">
<path style=" stroke:none;fill-rule:nonzero;fill:rgb(12.941177%,9.019608%,8.235294%);fill-opacity:1;" d="M 23.511719 40.574219 C 23.382812 40.5625 23.253906 40.554688 23.125 40.542969 C 23.121094 44.136719 23.105469 51.632812 23.105469 53.3125 L 23.105469 53.449219 C 24.066406 53.574219 25.003906 53.84375 25.882812 54.246094 C 26.089844 54.34375 26.285156 54.441406 26.457031 54.539062 C 26.457031 52.789062 26.472656 44.273438 26.476562 40.554688 C 25.957031 40.597656 25.421875 40.621094 24.875 40.621094 C 24.410156 40.621094 23.957031 40.605469 23.511719 40.574219 Z M 23.511719 40.574219 "/>
<path style=" stroke:none;fill-rule:nonzero;fill:rgb(100%,100%,100%);fill-opacity:1;" d="M 18.820312 58.03125 C 18.800781 58.15625 18.828125 58.285156 18.898438 58.386719 L 19.769531 59.402344 L 19.523438 59.253906 C 18.835938 58.789062 17.933594 58.804688 17.261719 59.285156 C 16.640625 59.753906 16.027344 60.898438 16.566406 61.457031 C 16.996094 61.902344 17.324219 62.339844 17.695312 62.738281 C 16.78125 61.277344 14.851562 62.375 14.75 63.539062 C 14.691406 64.21875 14.890625 64.898438 15.3125 65.441406 C 15.890625 67.59375 16.894531 69.609375 18.257812 71.375 C 18.613281 71.832031 18.992188 72.273438 19.332031 72.75 C 19.886719 73.53125 20.320312 74.394531 20.613281 75.308594 C 20.71875 75.996094 20.765625 76.695312 20.746094 77.394531 C 23.070312 77.191406 27.777344 76.746094 30.636719 76.265625 C 30.695312 75.496094 30.820312 74.4375 30.914062 73.808594 C 32.78125 68.320312 32.835938 63.824219 32.292969 62.222656 C 31.585938 60.144531 30.238281 58.964844 30.304688 56.929688 C 30.347656 55.511719 30.078125 53.570312 28.671875 53.128906 C 27.742188 52.835938 27.269531 53.480469 27.035156 53.875 C 27.035156 53.875 26.867188 54.15625 26.59375 54.621094 C 26.367188 54.484375 26.128906 54.359375 25.886719 54.246094 C 23.527344 53.171875 20.6875 53.039062 20.277344 54.296875 C 20.039062 54.824219 20.027344 55.355469 20.195312 56.234375 C 20.003906 56.285156 19.828125 56.371094 19.667969 56.488281 C 19.21875 56.890625 18.917969 57.4375 18.820312 58.03125 Z M 18.820312 58.03125 "/>
<path style=" stroke:none;fill-rule:nonzero;fill:rgb(100%,100%,100%);fill-opacity:1;" d="M 115.199219 125.085938 C 113.488281 101.472656 110.875 80.890625 108.714844 73.6875 C 108.25 72.023438 107.28125 70.539062 105.945312 69.441406 C 104.746094 68.550781 103.460938 67.78125 102.109375 67.144531 C 98.21875 65.265625 91.988281 62.769531 88 61.105469 C 88 61.105469 85.960938 60.359375 84.183594 59.710938 C 83.636719 62.78125 82.703125 66.789062 81.683594 69.570312 C 80.847656 71.847656 78.109375 79.59375 76.246094 84.019531 C 74.84375 87.347656 73.261719 90.59375 71.503906 93.75 C 66.957031 83.394531 61.441406 72.625 60.035156 59.632812 L 55.890625 61.257812 C 51.90625 62.921875 45.417969 65.507812 41.527344 67.386719 C 40.320312 67.933594 39.214844 68.679688 38.257812 69.59375 C 37.199219 70.59375 36.363281 71.804688 35.796875 73.144531 C 34.878906 75.546875 34.230469 77.542969 33.671875 79.40625 C 29.421875 80.292969 22.558594 81.320312 18.550781 81.039062 C 18.675781 87.472656 18.675781 94.359375 19.550781 101.023438 C 20.160156 105.65625 21.515625 110.199219 25.519531 112.605469 C 28.542969 114.484375 32.265625 114.867188 35.605469 113.632812 C 38.449219 112.605469 42.039062 109.886719 44.257812 108.308594 L 44.945312 107.820312 C 45.105469 110.246094 45.058594 112.613281 45.058594 115.195312 C 45.058594 118.671875 44.855469 121.242188 44.851562 125.1875 Z M 115.199219 125.085938 "/>
<path style=" stroke:none;fill-rule:nonzero;fill:rgb(12.941177%,9.019608%,8.235294%);fill-opacity:1;" d="M 18.890625 65.417969 C 18.878906 65.394531 18.832031 65.230469 18.863281 65.363281 C 18.878906 65.433594 18.847656 65.414062 18.867188 65.363281 C 18.890625 65.296875 18.867188 65.300781 18.863281 65.363281 C 18.859375 65.398438 18.859375 65.441406 18.859375 65.480469 C 18.859375 65.605469 18.878906 65.457031 18.867188 65.4375 C 18.863281 65.46875 18.855469 65.5 18.84375 65.53125 C 18.835938 65.558594 18.828125 65.589844 18.820312 65.621094 C 18.820312 65.625 18.753906 65.820312 18.796875 65.707031 C 18.832031 65.605469 18.796875 65.707031 18.785156 65.726562 C 18.765625 65.765625 18.746094 65.804688 18.726562 65.839844 C 18.691406 65.90625 18.640625 65.96875 18.605469 66.03125 C 18.566406 66.113281 18.632812 66 18.644531 65.988281 C 18.617188 66.015625 18.589844 66.050781 18.5625 66.078125 C 18.542969 66.097656 18.523438 66.117188 18.5 66.140625 C 18.375 66.273438 18.507812 66.113281 18.523438 66.128906 C 18.53125 66.136719 18.277344 66.242188 18.417969 66.191406 C 18.519531 66.152344 18.292969 66.226562 18.265625 66.230469 C 18.199219 66.25 18.0625 66.269531 18.210938 66.25 C 18.113281 66.261719 18.019531 66.269531 17.921875 66.269531 C 17.824219 66.269531 17.726562 66.261719 17.628906 66.253906 C 17.78125 66.269531 17.632812 66.25 17.566406 66.234375 C 17.488281 66.214844 17.410156 66.1875 17.332031 66.164062 C 17.21875 66.128906 17.441406 66.234375 17.347656 66.167969 C 17.304688 66.136719 17.253906 66.117188 17.210938 66.089844 C 17.128906 66.042969 17.054688 65.992188 16.976562 65.941406 C 16.957031 65.925781 16.851562 65.84375 16.953125 65.925781 C 16.921875 65.902344 16.890625 65.875 16.859375 65.847656 C 16.707031 65.71875 16.558594 65.578125 16.417969 65.429688 C 16.285156 65.292969 16.160156 65.152344 16.035156 65.011719 C 16.035156 65.011719 15.945312 64.90625 15.996094 64.96875 C 16.050781 65.039062 15.949219 64.902344 15.9375 64.886719 C 15.878906 64.800781 15.824219 64.707031 15.773438 64.609375 C 15.753906 64.574219 15.738281 64.539062 15.71875 64.503906 C 15.78125 64.621094 15.71875 64.511719 15.710938 64.484375 C 15.679688 64.394531 15.652344 64.308594 15.628906 64.21875 C 15.601562 64.128906 15.585938 64.039062 15.570312 63.949219 C 15.59375 64.109375 15.570312 63.820312 15.570312 63.777344 C 15.570312 63.738281 15.570312 63.699219 15.574219 63.660156 C 15.578125 63.621094 15.613281 63.460938 15.574219 63.59375 C 15.539062 63.730469 15.605469 63.511719 15.609375 63.484375 C 15.648438 63.34375 15.539062 63.601562 15.617188 63.472656 C 15.660156 63.402344 15.703125 63.335938 15.742188 63.269531 C 15.636719 63.4375 15.765625 63.25 15.8125 63.203125 C 15.84375 63.175781 15.875 63.148438 15.90625 63.117188 C 16.011719 63.011719 15.824219 63.160156 15.90625 63.113281 C 15.980469 63.074219 16.050781 63.023438 16.121094 62.980469 C 16.148438 62.964844 16.179688 62.953125 16.207031 62.9375 C 16.117188 62.984375 16.109375 62.96875 16.210938 62.9375 C 16.289062 62.910156 16.371094 62.898438 16.449219 62.871094 C 16.546875 62.839844 16.371094 62.886719 16.378906 62.882812 C 16.402344 62.859375 16.503906 62.878906 16.53125 62.875 C 16.5625 62.871094 16.59375 62.875 16.625 62.878906 C 16.511719 62.863281 16.488281 62.859375 16.550781 62.871094 C 16.570312 62.875 16.59375 62.878906 16.613281 62.886719 C 16.640625 62.894531 16.671875 62.902344 16.699219 62.910156 C 16.890625 62.960938 16.554688 62.832031 16.730469 62.929688 C 17.132812 63.160156 17.644531 63.027344 17.878906 62.628906 C 18.113281 62.226562 17.976562 61.714844 17.578125 61.480469 C 16.617188 61.003906 15.457031 61.191406 14.695312 61.953125 C 13.921875 62.707031 13.675781 63.847656 14.066406 64.851562 C 14.484375 65.917969 15.230469 66.820312 16.195312 67.433594 C 17.128906 68.058594 18.328125 68.125 19.324219 67.605469 C 20.300781 67.027344 20.828125 65.605469 20.335938 64.570312 C 20.101562 64.171875 19.589844 64.039062 19.1875 64.269531 C 18.796875 64.511719 18.664062 65.015625 18.886719 65.417969 Z M 18.890625 65.417969 "/>
<path style=" stroke:none;fill-rule:nonzero;fill:rgb(12.941177%,9.019608%,8.235294%);fill-opacity:1;" d="M 19.945312 58.527344 C 19.25 58.101562 18.414062 57.976562 17.628906 58.179688 C 16.960938 58.390625 16.390625 58.832031 16.015625 59.425781 C 15.613281 59.964844 15.453125 60.648438 15.566406 61.3125 C 15.667969 61.660156 15.863281 61.972656 16.128906 62.21875 C 16.375 62.480469 16.597656 62.761719 16.832031 63.03125 C 17.152344 63.402344 17.515625 63.71875 17.847656 64.074219 C 18.164062 64.410156 18.464844 64.753906 18.785156 65.085938 C 19.097656 65.441406 19.460938 65.753906 19.859375 66.011719 C 20.441406 66.300781 21.109375 66.382812 21.746094 66.246094 C 22.460938 66.128906 23.085938 65.691406 23.433594 65.050781 C 23.847656 64.257812 23.84375 63.3125 23.425781 62.519531 C 23.1875 62.125 22.675781 61.992188 22.277344 62.21875 C 21.886719 62.460938 21.753906 62.964844 21.976562 63.367188 C 22.058594 63.53125 22.09375 63.714844 22.078125 63.898438 C 22.070312 64.042969 22.101562 63.800781 22.074219 63.9375 C 22.0625 63.980469 22.050781 64.023438 22.042969 64.066406 C 22.011719 64.203125 22.019531 64.144531 22.039062 64.097656 C 22.011719 64.15625 21.980469 64.214844 21.945312 64.273438 C 21.933594 64.292969 21.839844 64.425781 21.902344 64.34375 C 21.953125 64.277344 21.878906 64.367188 21.871094 64.375 C 21.835938 64.40625 21.804688 64.441406 21.773438 64.476562 C 21.738281 64.507812 21.664062 64.542969 21.765625 64.480469 C 21.71875 64.507812 21.675781 64.535156 21.625 64.558594 C 21.644531 64.550781 21.726562 64.519531 21.632812 64.550781 C 21.582031 64.566406 21.527344 64.585938 21.46875 64.59375 C 21.445312 64.601562 21.265625 64.628906 21.390625 64.613281 C 21.289062 64.625 21.1875 64.628906 21.082031 64.625 C 21.0625 64.625 20.882812 64.613281 20.976562 64.625 C 21.058594 64.632812 20.925781 64.617188 20.921875 64.613281 C 20.882812 64.609375 20.628906 64.570312 20.613281 64.53125 C 20.605469 64.503906 20.816406 64.664062 20.707031 64.5625 C 20.679688 64.542969 20.65625 64.527344 20.625 64.511719 C 20.445312 64.402344 20.675781 64.566406 20.578125 64.476562 C 20.523438 64.429688 20.464844 64.378906 20.410156 64.332031 C 20.269531 64.203125 20.132812 64.066406 20 63.929688 C 19.535156 63.453125 19.113281 62.9375 18.625 62.484375 C 18.242188 62.101562 17.878906 61.703125 17.539062 61.28125 C 17.453125 61.183594 17.367188 61.085938 17.277344 60.992188 C 17.238281 60.949219 17.195312 60.910156 17.15625 60.863281 C 17.292969 61.027344 17.15625 60.859375 17.167969 60.863281 L 17.203125 60.9375 L 17.1875 60.871094 L 17.191406 60.910156 C 17.199219 60.976562 17.203125 60.964844 17.199219 60.878906 C 17.191406 60.875 17.214844 60.738281 17.199219 60.839844 C 17.183594 60.949219 17.226562 60.738281 17.234375 60.71875 C 17.292969 60.554688 17.371094 60.398438 17.476562 60.257812 C 17.582031 60.125 17.703125 60.007812 17.84375 59.90625 C 17.925781 59.851562 18.023438 59.8125 18.121094 59.789062 C 18.136719 59.789062 18.324219 59.753906 18.246094 59.761719 C 18.210938 59.765625 18.414062 59.761719 18.421875 59.761719 C 18.664062 59.78125 18.894531 59.855469 19.101562 59.980469 C 19.5 60.214844 20.015625 60.082031 20.25 59.679688 C 20.484375 59.28125 20.347656 58.765625 19.949219 58.53125 Z M 19.945312 58.527344 "/>
<path style=" stroke:none;fill-rule:nonzero;fill:rgb(12.941177%,9.019608%,8.235294%);fill-opacity:1;" d="M 22.582031 61.535156 C 21.761719 60.574219 20.972656 59.585938 20.171875 58.605469 C 20.019531 58.421875 19.867188 58.234375 19.710938 58.050781 C 19.671875 57.992188 19.625 57.9375 19.574219 57.890625 C 19.496094 57.84375 19.625 57.996094 19.644531 58.042969 C 19.652344 58.0625 19.65625 58.257812 19.65625 58.101562 C 19.65625 57.9375 19.597656 58.246094 19.664062 58.058594 C 19.703125 57.875 19.777344 57.699219 19.875 57.539062 C 19.902344 57.492188 20.078125 57.242188 20 57.335938 C 20.035156 57.292969 20.066406 57.257812 20.101562 57.21875 C 20.121094 57.203125 20.277344 57.089844 20.167969 57.15625 C 20.550781 56.9375 21.023438 56.964844 21.378906 57.222656 C 21.914062 57.59375 22.398438 58.039062 22.8125 58.542969 C 23.207031 58.988281 23.554688 59.476562 23.851562 59.992188 C 24.152344 60.449219 24.328125 60.980469 24.355469 61.53125 C 24.367188 61.394531 24.273438 61.789062 24.304688 61.714844 C 24.257812 61.824219 24.195312 61.925781 24.117188 62.015625 C 23.976562 62.191406 23.78125 62.320312 23.5625 62.375 C 23.660156 62.347656 23.542969 62.375 23.515625 62.371094 C 23.65625 62.386719 23.421875 62.335938 23.394531 62.324219 C 23.507812 62.375 23.148438 62.148438 23.226562 62.210938 C 22.988281 62.007812 22.773438 61.78125 22.582031 61.535156 C 22.253906 61.214844 21.722656 61.214844 21.394531 61.535156 C 21.078125 61.867188 21.078125 62.390625 21.394531 62.722656 C 21.875 63.285156 22.445312 63.871094 23.203125 64.007812 C 24.148438 64.183594 25.019531 63.625 25.554688 62.882812 C 26.632812 61.390625 25.625 59.492188 24.683594 58.210938 C 24.179688 57.515625 23.597656 56.882812 22.945312 56.328125 C 22.226562 55.726562 21.449219 55.257812 20.472656 55.34375 C 19.648438 55.410156 18.910156 55.871094 18.492188 56.582031 C 18.117188 57.171875 17.765625 58.0625 18.125 58.734375 C 18.335938 59.054688 18.578125 59.351562 18.847656 59.628906 C 19.09375 59.921875 19.332031 60.222656 19.570312 60.519531 C 20.171875 61.261719 20.777344 61.996094 21.394531 62.722656 C 21.722656 63.046875 22.253906 63.046875 22.582031 62.722656 C 22.902344 62.390625 22.902344 61.867188 22.582031 61.535156 Z M 22.582031 61.535156 "/>
<path style=" stroke:none;fill-rule:nonzero;fill:rgb(12.941177%,9.019608%,8.235294%);fill-opacity:1;" d="M 27.757812 54.296875 C 27.871094 54.109375 27.972656 53.925781 28.175781 53.894531 C 28.429688 53.886719 28.671875 53.996094 28.832031 54.191406 C 29.230469 54.609375 29.390625 55.355469 29.441406 55.964844 C 29.511719 56.847656 29.425781 57.710938 29.683594 58.574219 C 30.007812 59.464844 30.417969 60.324219 30.902344 61.140625 C 31.242188 61.746094 31.488281 62.398438 31.632812 63.078125 C 31.644531 63.132812 31.652344 63.191406 31.664062 63.25 C 31.6875 63.390625 31.640625 63.039062 31.667969 63.28125 C 31.683594 63.414062 31.695312 63.546875 31.707031 63.679688 C 31.734375 64.015625 31.746094 64.351562 31.746094 64.6875 C 31.734375 66.46875 31.523438 68.246094 31.117188 69.980469 C 30.980469 70.59375 30.824219 71.207031 30.652344 71.8125 C 30.476562 72.429688 30.207031 73.054688 30.085938 73.683594 C 29.914062 74.671875 29.804688 75.667969 29.761719 76.667969 C 29.695312 77.75 31.375 77.746094 31.4375 76.667969 C 31.449219 75.726562 31.558594 74.789062 31.773438 73.867188 C 32.125 72.671875 32.5 71.496094 32.765625 70.277344 C 33.207031 68.382812 33.429688 66.4375 33.421875 64.492188 C 33.417969 63.800781 33.347656 63.113281 33.214844 62.441406 C 32.988281 61.582031 32.640625 60.757812 32.1875 59.996094 C 31.761719 59.199219 31.257812 58.390625 31.152344 57.476562 C 31.101562 57.050781 31.152344 56.613281 31.128906 56.1875 C 31.105469 55.703125 31.039062 55.222656 30.925781 54.753906 C 30.667969 53.734375 30.089844 52.792969 29.082031 52.390625 C 27.945312 51.9375 26.90625 52.457031 26.304688 53.449219 C 25.746094 54.375 27.195312 55.21875 27.753906 54.296875 Z M 27.757812 54.296875 "/>
<path style=" stroke:none;fill-rule:nonzero;fill:rgb(12.941177%,9.019608%,8.235294%);fill-opacity:1;" d="M 24.59375 57.820312 C 24.550781 58.574219 24.59375 59.332031 24.726562 60.074219 C 24.808594 60.710938 24.777344 61.355469 24.625 61.980469 C 24.238281 63.359375 24.1875 64.8125 24.472656 66.214844 C 24.714844 67.265625 26.332031 66.820312 26.089844 65.769531 C 25.800781 64.511719 26.027344 63.355469 26.316406 62.128906 C 26.46875 61.429688 26.496094 60.710938 26.394531 60.003906 C 26.265625 59.285156 26.226562 58.550781 26.269531 57.820312 C 26.269531 57.359375 25.894531 56.984375 25.433594 56.980469 C 24.972656 56.992188 24.605469 57.363281 24.59375 57.820312 Z M 24.59375 57.820312 "/>
<path style=" stroke:none;fill-rule:nonzero;fill:rgb(12.941177%,9.019608%,8.235294%);fill-opacity:1;" d="M 23.753906 58 C 24.875 58.480469 26.375 59.019531 27.574219 58.476562 C 28.160156 58.191406 28.589844 57.664062 28.753906 57.03125 C 28.917969 56.398438 28.800781 55.726562 28.425781 55.191406 C 27.582031 53.953125 26.050781 53.300781 24.65625 52.910156 C 23.457031 52.574219 21.972656 52.332031 20.769531 52.796875 C 20.453125 52.910156 20.164062 53.085938 19.921875 53.320312 C 19.808594 53.429688 19.710938 53.558594 19.632812 53.695312 C 19.546875 53.839844 19.480469 53.996094 19.429688 54.160156 C 19.136719 54.917969 19.246094 55.734375 19.390625 56.511719 C 19.519531 56.957031 19.976562 57.214844 20.425781 57.097656 C 20.863281 56.964844 21.121094 56.511719 21.007812 56.066406 C 20.914062 55.65625 20.902344 55.234375 20.976562 54.820312 C 20.992188 54.75 21.015625 54.683594 21.042969 54.617188 C 21.15625 54.304688 21.050781 54.703125 21.066406 54.570312 C 21.078125 54.539062 21.09375 54.511719 21.117188 54.484375 C 21.003906 54.585938 21.105469 54.5 21.15625 54.460938 C 21.019531 54.5625 21.226562 54.421875 21.28125 54.394531 C 21.410156 54.324219 21.222656 54.40625 21.367188 54.359375 C 21.464844 54.332031 21.558594 54.308594 21.65625 54.285156 C 21.832031 54.25 22.015625 54.234375 22.195312 54.238281 C 22.667969 54.230469 23.144531 54.277344 23.609375 54.378906 C 24.664062 54.558594 25.667969 54.976562 26.539062 55.601562 C 26.632812 55.675781 26.726562 55.761719 26.808594 55.847656 C 26.832031 55.871094 26.972656 56.023438 26.925781 55.964844 C 26.980469 56.035156 27.027344 56.105469 27.070312 56.183594 C 27.097656 56.230469 27.121094 56.277344 27.144531 56.328125 C 27.109375 56.25 27.121094 56.273438 27.136719 56.339844 C 27.171875 56.46875 27.152344 56.277344 27.15625 56.441406 C 27.160156 56.503906 27.160156 56.566406 27.152344 56.625 C 27.15625 56.601562 27.164062 56.535156 27.140625 56.625 C 27.132812 56.738281 27.070312 56.839844 26.972656 56.902344 C 26.742188 57.011719 26.480469 57.046875 26.230469 57 C 26.128906 56.988281 25.753906 56.914062 25.554688 56.863281 C 25.230469 56.785156 24.910156 56.679688 24.601562 56.550781 C 24.199219 56.332031 23.695312 56.464844 23.453125 56.851562 C 23.222656 57.25 23.355469 57.761719 23.753906 58 Z M 23.753906 58 "/>
<path style=" stroke:none;fill-rule:nonzero;fill:rgb(12.941177%,9.019608%,8.235294%);fill-opacity:1;" d="M 14.644531 66.171875 C 15.3125 68.320312 16.367188 70.328125 17.761719 72.089844 C 18.453125 72.898438 19.039062 73.789062 19.507812 74.742188 C 19.945312 75.726562 19.894531 76.71875 19.910156 77.777344 C 19.925781 78.855469 21.605469 78.859375 21.589844 77.777344 C 21.574219 76.675781 21.628906 75.554688 21.21875 74.511719 C 20.777344 73.433594 20.179688 72.425781 19.445312 71.523438 C 18.027344 69.808594 16.949219 67.84375 16.261719 65.726562 C 15.945312 64.699219 14.324219 65.136719 14.644531 66.171875 Z M 14.644531 66.171875 "/>
<path style=" stroke:none;fill-rule:nonzero;fill:rgb(100%,100%,100%);fill-opacity:1;" d="M 90.59375 30.640625 C 91.203125 30.113281 92.015625 29.875 92.816406 29.992188 C 93.601562 30.101562 94.296875 30.5625 94.703125 31.246094 C 94.9375 31.710938 95.070312 32.21875 95.09375 32.738281 C 95.261719 34.769531 94.871094 36.808594 93.960938 38.628906 C 93.53125 39.550781 92.90625 40.371094 92.132812 41.027344 C 91.386719 41.625 90.636719 41.910156 89.398438 41.28125 C 89.226562 42.171875 88.984375 43.046875 88.671875 43.894531 C 88.085938 45.460938 85.015625 50.589844 81.027344 53.03125 C 81.03125 54.289062 81.101562 55.601562 81.519531 56.640625 C 82.421875 58.875 87.292969 61.6875 87.628906 61.832031 C 87.628906 61.832031 84.867188 72.289062 71.816406 72.289062 C 58.769531 72.289062 57.050781 61.832031 57.050781 61.832031 C 57.386719 61.6875 61.492188 59.265625 62.398438 57.035156 C 62.824219 55.984375 62.886719 54.667969 62.890625 53.40625 C 60.960938 52.417969 59.253906 51.035156 57.886719 49.351562 C 56.050781 47.125 54.753906 44.507812 54.089844 41.699219 C 52.941406 42.160156 52.085938 41.566406 51.414062 41.03125 C 50.640625 40.371094 50.015625 39.554688 49.585938 38.632812 C 48.675781 36.808594 48.285156 34.769531 48.453125 32.738281 C 48.476562 32.21875 48.609375 31.710938 48.839844 31.246094 C 49.25 30.566406 49.941406 30.101562 50.730469 29.992188 C 51.53125 29.875 52.339844 30.113281 52.953125 30.644531 C 52.953125 30.644531 51.699219 12.476562 70.417969 12.476562 C 91.9375 12.476562 90.59375 30.640625 90.59375 30.640625 Z M 90.59375 30.640625 "/>
<path style=" stroke:none;fill-rule:nonzero;fill:rgb(12.941177%,9.019608%,8.235294%);fill-opacity:1;" d="M 57.472656 62.558594 C 57.957031 62.3125 58.417969 62.03125 58.855469 61.710938 C 59.6875 61.160156 60.480469 60.546875 61.222656 59.878906 C 61.972656 59.25 62.59375 58.480469 63.050781 57.617188 C 63.671875 56.3125 63.722656 54.808594 63.730469 53.390625 C 63.734375 52.3125 62.054688 52.308594 62.050781 53.390625 C 62.0625 54.0625 62.027344 54.734375 61.949219 55.402344 C 61.882812 55.929688 61.742188 56.441406 61.523438 56.925781 C 61.09375 57.660156 60.535156 58.304688 59.875 58.839844 C 59.238281 59.390625 58.566406 59.902344 57.863281 60.359375 C 57.46875 60.640625 57.058594 60.890625 56.625 61.109375 C 56.226562 61.34375 56.09375 61.855469 56.324219 62.257812 C 56.566406 62.648438 57.070312 62.78125 57.472656 62.558594 Z M 57.472656 62.558594 "/>
<path style=" stroke:none;fill-rule:nonzero;fill:rgb(12.941177%,9.019608%,8.235294%);fill-opacity:1;" d="M 80.191406 53.378906 C 80.214844 54.796875 80.296875 56.382812 81.082031 57.609375 C 81.667969 58.464844 82.386719 59.222656 83.207031 59.851562 C 84.023438 60.519531 84.878906 61.136719 85.769531 61.703125 C 86.226562 62.023438 86.707031 62.308594 87.207031 62.558594 C 87.609375 62.777344 88.109375 62.644531 88.351562 62.257812 C 88.582031 61.855469 88.449219 61.34375 88.050781 61.109375 C 87.601562 60.882812 87.167969 60.628906 86.753906 60.34375 C 85.996094 59.871094 85.261719 59.351562 84.554688 58.796875 C 84.152344 58.480469 83.765625 58.140625 83.398438 57.78125 C 83.117188 57.507812 82.859375 57.214844 82.625 56.902344 C 82.503906 56.726562 82.394531 56.542969 82.300781 56.351562 C 82.394531 56.546875 82.234375 56.171875 82.230469 56.15625 C 82.171875 55.972656 82.121094 55.789062 82.078125 55.601562 C 81.933594 54.871094 81.863281 54.125 81.871094 53.378906 C 81.851562 52.300781 80.171875 52.296875 80.191406 53.378906 Z M 80.191406 53.378906 "/>
<path style=" stroke:none;fill-rule:nonzero;fill:rgb(100%,100%,100%);fill-opacity:1;" d="M 83.425781 57.535156 C 82.960938 56.695312 82.363281 55.941406 81.648438 55.300781 C 80.300781 57.113281 77.21875 59.378906 73.527344 60.867188 C 73.261719 60.953125 73.019531 61.089844 72.808594 61.273438 C 72.71875 61.4375 72.890625 61.582031 72.972656 61.710938 C 73.152344 61.925781 73.34375 62.128906 73.550781 62.320312 C 72.390625 62.320312 71.527344 62.324219 70.4375 62.324219 C 70.648438 62.132812 70.84375 61.929688 71.023438 61.710938 C 71.101562 61.582031 71.277344 61.4375 71.1875 61.273438 C 70.976562 61.089844 70.734375 60.953125 70.46875 60.867188 C 66.777344 59.378906 63.695312 57.113281 62.34375 55.300781 C 61.128906 56.417969 60.671875 57.308594 59.9375 58.71875 C 61.179688 72.121094 66.851562 83.152344 71.503906 93.75 C 73.261719 90.59375 74.84375 87.347656 76.246094 84.019531 C 78.109375 79.59375 80.847656 71.847656 81.683594 69.570312 C 82.765625 66.617188 83.75 62.285156 84.28125 59.152344 C 83.957031 58.53125 83.695312 58.007812 83.425781 57.535156 Z M 83.425781 57.535156 "/>
<path style=" stroke:none;fill-rule:nonzero;fill:rgb(100%,100%,100%);fill-opacity:1;" d="M 56.824219 98.199219 L 56.324219 97.230469 C 54.890625 94.84375 54.078125 90.710938 53.777344 88.566406 C 53.414062 85.953125 54.375 80.324219 54.894531 78.203125 C 55.371094 79.050781 57.472656 83.910156 58.054688 85.285156 C 59.164062 87.890625 61.070312 91.4375 60.261719 94.3125 C 59.652344 96.488281 58.667969 96.765625 57.4375 97.417969 C 56.128906 98.109375 54.917969 97.71875 53.6875 98.320312 C 52.777344 98.769531 52.601562 99.632812 52.71875 100.476562 C 52.875 101.582031 53.816406 102.78125 55.054688 102.5 C 55.617188 102.371094 56.070312 101.96875 56.574219 101.683594 C 57.242188 101.304688 58.070312 100.976562 58.765625 100.652344 C 60.355469 99.910156 61.851562 99.101562 62.820312 97.601562 C 63.871094 95.984375 64.492188 94.160156 64.28125 92.246094 C 63.566406 85.722656 59.113281 80.203125 57.121094 74.34375 C 56.945312 71.351562 58.058594 64.382812 59.738281 60.792969 C 59.738281 60.792969 59.890625 60.621094 60.113281 60.355469 C 59.992188 59.359375 59.898438 58.347656 59.828125 57.324219 C 57.714844 58.277344 55.097656 61.480469 54.308594 65.992188 C 53.875 68.480469 53.292969 71.050781 52.769531 74 C 50.820312 78.859375 50.109375 85.476562 50.324219 88.707031 C 50.535156 91.84375 51.402344 95.835938 53.050781 98.410156 L 53.523438 99.480469 Z M 56.824219 98.199219 "/>
<path style=" stroke:none;fill-rule:nonzero;fill:rgb(100%,100%,100%);fill-opacity:1;" d="M 91.539062 86.59375 C 91.746094 84.792969 91.179688 82.808594 89.554688 81.957031 C 91.066406 73.753906 90.546875 69.726562 89.527344 65.105469 C 88.929688 62.386719 86.996094 58.742188 84.554688 57.339844 C 84.449219 58.15625 84.292969 59.152344 84.089844 60.25 C 84.652344 60.8125 85.507812 62.773438 85.761719 63.707031 C 87.53125 70.273438 87.710938 74.46875 86.625 81.570312 C 84.675781 82 83.863281 83.863281 83.691406 84.582031 C 83.230469 86.519531 83.386719 89.035156 85.136719 90.285156 C 85.535156 90.570312 85.992188 90.761719 86.472656 90.851562 C 89.234375 91.375 91.03125 89.355469 91.472656 87.050781 C 91.5 86.898438 91.523438 86.746094 91.539062 86.59375 Z M 91.539062 86.59375 "/>
<path style=" stroke:none;fill-rule:nonzero;fill:rgb(62.7451%,62.7451%,62.7451%);fill-opacity:1;" d="M 61.699219 101.859375 C 61.660156 101.265625 61.316406 100.738281 60.792969 100.460938 L 59.953125 100.0625 C 59.566406 100.269531 59.167969 100.460938 58.765625 100.648438 C 58.253906 100.890625 57.667969 101.128906 57.128906 101.390625 C 57.332031 101.894531 57.597656 102.371094 57.917969 102.808594 C 58.21875 103.207031 58.65625 103.484375 59.148438 103.578125 C 59.457031 103.613281 59.773438 103.582031 60.074219 103.492188 C 60.703125 103.328125 61.347656 102.996094 61.621094 102.402344 C 61.691406 102.230469 61.71875 102.042969 61.699219 101.859375 Z M 61.699219 101.859375 "/>
<path style=" stroke:none;fill-rule:nonzero;fill:rgb(62.7451%,62.7451%,62.7451%);fill-opacity:1;" d="M 52.691406 100.164062 C 52.59375 99.398438 52.996094 98.660156 53.6875 98.320312 C 54.359375 98.046875 55.074219 97.894531 55.800781 97.871094 C 56.355469 99.046875 56.652344 100.328125 56.675781 101.628906 C 56.640625 101.644531 56.605469 101.664062 56.570312 101.683594 C 56.070312 101.96875 55.617188 102.371094 55.050781 102.5 C 53.8125 102.78125 52.871094 101.582031 52.71875 100.476562 C 52.703125 100.371094 52.695312 100.269531 52.691406 100.164062 Z M 52.691406 100.164062 "/>
<path style=" stroke:none;fill-rule:nonzero;fill:rgb(56.470591%,54.509807%,54.11765%);fill-opacity:1;" d="M 57.15625 6.007812 C 58.703125 4.058594 61.292969 2.53125 63.894531 1.871094 C 66.84375 1.035156 69.917969 0.703125 72.980469 0.886719 C 79.296875 1.433594 85.480469 4.394531 89.453125 9.339844 C 93.949219 14.9375 94.691406 23.757812 92.464844 29.964844 C 91.785156 29.949219 91.121094 30.1875 90.605469 30.628906 C 90.226562 28.347656 89.121094 25.03125 88.308594 22.820312 C 88.203125 22.4375 87.988281 22.09375 87.691406 21.832031 C 87.300781 21.585938 86.859375 21.433594 86.398438 21.386719 C 83.5 20.898438 81.84375 20.542969 78.882812 20.398438 C 75.699219 20.242188 73.398438 21.742188 70.339844 21.019531 C 68.542969 20.597656 64.523438 18.558594 63.152344 17.542969 C 62.785156 17.273438 62.453125 17.011719 62.148438 16.808594 C 61.78125 16.5625 61.296875 16.328125 60.90625 16.535156 C 60.832031 16.578125 60.757812 16.628906 60.691406 16.6875 C 60.484375 16.855469 60.179688 17.097656 59.988281 17.269531 C 55.707031 20.90625 53.285156 25.996094 53.4375 31.066406 L 53.4375 31.082031 L 52.949219 30.640625 C 52.335938 30.113281 51.523438 29.875 50.722656 29.992188 C 50.4375 30.035156 50.15625 30.125 49.898438 30.257812 C 48.421875 25.707031 48.648438 19.117188 49.675781 15.660156 L 49.949219 14.730469 C 51.015625 11.558594 52.769531 9.21875 54.800781 8.070312 Z M 57.15625 6.007812 "/>
<path style=" stroke:none;fill-rule:nonzero;fill:rgb(32.549021%,58.039218%,81.176472%);fill-opacity:1;" d="M 67.480469 82.484375 L 67.484375 82.4375 C 68.21875 76.40625 69.230469 69.011719 69.230469 68.800781 C 69.214844 68.421875 69.15625 68.050781 69.050781 67.691406 C 69.007812 67.519531 68.964844 67.359375 68.929688 67.1875 C 68.703125 66.230469 68.5625 65.5625 68.359375 64.507812 C 68.648438 64.207031 68.933594 63.902344 69.207031 63.601562 C 69.722656 63.035156 70.132812 62.621094 70.4375 62.324219 C 71.527344 62.324219 72.390625 62.320312 73.550781 62.320312 C 73.851562 62.617188 74.265625 63.03125 74.785156 63.601562 C 75.140625 63.992188 75.515625 64.382812 75.890625 64.773438 C 75.773438 65.238281 75.707031 65.5 75.707031 65.5 C 75.59375 65.957031 75.46875 66.433594 75.296875 66.953125 C 75.054688 67.582031 74.910156 68.246094 74.863281 68.921875 C 74.859375 69.265625 75.839844 75.753906 76.769531 81.964844 C 76.769531 81.964844 76.800781 82.183594 76.851562 82.542969 C 76.640625 83.066406 76.4375 83.558594 76.242188 84.019531 C 74.84375 87.347656 73.257812 90.59375 71.503906 93.75 C 70.160156 90.691406 68.734375 87.601562 67.355469 84.425781 C 67.414062 83.5 67.46875 82.679688 67.480469 82.484375 Z M 67.480469 82.484375 "/>
<path style=" stroke:none;fill-rule:nonzero;fill:rgb(100%,100%,100%);fill-opacity:1;" d="M 78.398438 67.445312 C 80.679688 64.78125 82.566406 61.796875 83.992188 58.589844 C 83.296875 57.253906 82.832031 56.386719 81.648438 55.300781 C 80.300781 57.113281 77.21875 59.378906 73.527344 60.867188 C 73.261719 60.953125 73.019531 61.089844 72.808594 61.273438 C 72.71875 61.4375 72.890625 61.582031 72.972656 61.710938 C 73.097656 61.914062 73.722656 62.4375 74.785156 63.601562 C 75.988281 64.921875 77.398438 66.253906 78.398438 67.445312 Z M 78.398438 67.445312 "/>
<path style=" stroke:none;fill-rule:nonzero;fill:rgb(100%,100%,100%);fill-opacity:1;" d="M 65.597656 67.445312 C 63.3125 64.78125 61.429688 61.796875 60.003906 58.589844 C 60.699219 57.253906 61.164062 56.386719 62.347656 55.300781 C 63.695312 57.113281 66.777344 59.378906 70.472656 60.867188 C 70.734375 60.953125 70.980469 61.089844 71.1875 61.273438 C 71.277344 61.4375 71.105469 61.582031 71.023438 61.710938 C 70.898438 61.914062 70.273438 62.4375 69.210938 63.601562 C 68.003906 64.921875 66.59375 66.253906 65.597656 67.445312 Z M 65.597656 67.445312 "/>
<path style=" stroke:none;fill-rule:nonzero;fill:rgb(12.941177%,9.019608%,8.235294%);fill-opacity:1;" d="M 34.292969 80.25 C 34.875 78.273438 35.511719 76.316406 36.226562 74.382812 C 36.566406 73.355469 37.058594 72.382812 37.6875 71.5 C 38.3125 70.652344 39.066406 69.90625 39.917969 69.285156 C 41.4375 68.210938 43.21875 67.5 44.914062 66.753906 C 46.707031 65.964844 48.515625 65.207031 50.328125 64.457031 C 52.253906 63.65625 54.1875 62.871094 56.113281 62.070312 C 56.550781 61.933594 56.808594 61.480469 56.699219 61.035156 C 56.574219 60.589844 56.113281 60.332031 55.667969 60.449219 C 51.960938 61.996094 48.230469 63.484375 44.550781 65.09375 C 42.785156 65.863281 40.921875 66.597656 39.3125 67.671875 C 37.417969 68.917969 35.929688 70.699219 35.042969 72.785156 C 34.121094 75.074219 33.375 77.441406 32.675781 79.804688 C 32.367188 80.84375 33.988281 81.285156 34.292969 80.25 Z M 34.292969 80.25 "/>
<path style=" stroke:none;fill-rule:nonzero;fill:rgb(12.941177%,9.019608%,8.235294%);fill-opacity:1;" d="M 87.777344 61.914062 C 92.449219 63.859375 97.191406 65.683594 101.742188 67.898438 C 103.933594 68.964844 106.128906 70.1875 107.300781 72.414062 C 108.015625 73.765625 108.324219 75.359375 108.652344 76.84375 C 109.480469 80.5625 110.0625 84.339844 110.601562 88.113281 C 111.34375 93.316406 111.949219 98.542969 112.496094 103.773438 C 113.148438 110.03125 113.707031 116.300781 114.171875 122.578125 C 114.234375 123.414062 114.296875 124.25 114.359375 125.085938 C 114.367188 125.542969 114.738281 125.914062 115.195312 125.921875 C 115.660156 125.921875 116.03125 125.546875 116.035156 125.085938 C 115.566406 118.609375 115.011719 112.144531 114.367188 105.683594 C 113.8125 100.171875 113.183594 94.664062 112.429688 89.175781 C 111.878906 85.167969 111.277344 81.15625 110.441406 77.199219 C 110.183594 75.835938 109.84375 74.488281 109.429688 73.167969 C 109.007812 71.875 108.324219 70.683594 107.414062 69.671875 C 106.527344 68.761719 105.503906 67.996094 104.382812 67.398438 C 102.164062 66.117188 99.761719 65.125 97.410156 64.121094 C 94.886719 63.042969 92.351562 62 89.816406 60.953125 C 89.285156 60.734375 88.753906 60.515625 88.222656 60.292969 C 87.777344 60.171875 87.316406 60.433594 87.191406 60.878906 C 87.078125 61.324219 87.335938 61.777344 87.777344 61.910156 Z M 87.777344 61.914062 "/>
<path style=" stroke:none;fill-rule:nonzero;fill:rgb(12.941177%,9.019608%,8.235294%);fill-opacity:1;" d="M 99.472656 125.191406 C 99.46875 121.984375 99.277344 118.78125 99.265625 115.578125 C 99.25 112.054688 99.15625 108.492188 99.664062 105 C 99.90625 103.304688 100.25 101.621094 100.535156 99.933594 C 100.824219 98.238281 101.101562 96.542969 101.367188 94.84375 C 101.910156 91.390625 102.410156 87.929688 102.875 84.464844 C 103.367188 80.820312 103.8125 77.167969 104.214844 73.511719 C 104.210938 73.050781 103.839844 72.675781 103.375 72.671875 C 102.917969 72.683594 102.546875 73.050781 102.535156 73.511719 C 101.816406 80.175781 100.933594 86.824219 99.898438 93.449219 C 99.375 96.820312 98.796875 100.179688 98.207031 103.542969 C 97.585938 107.09375 97.574219 110.671875 97.585938 114.265625 C 97.59375 117.910156 97.789062 121.546875 97.792969 125.191406 C 97.792969 126.269531 99.472656 126.273438 99.472656 125.191406 Z M 99.472656 125.191406 "/>
<path style=" stroke:none;fill-rule:nonzero;fill:rgb(12.941177%,9.019608%,8.235294%);fill-opacity:1;" d="M 39.367188 74.464844 C 40.09375 81.09375 40.980469 87.703125 42.027344 94.292969 C 42.554688 97.671875 43.179688 101.035156 43.730469 104.410156 C 44.285156 107.808594 44.226562 111.257812 44.21875 114.6875 C 44.214844 118.1875 44.015625 121.6875 44.011719 125.191406 C 44.007812 126.269531 45.6875 126.269531 45.6875 125.191406 C 45.695312 122.109375 45.871094 119.03125 45.894531 115.949219 C 45.921875 112.53125 45.996094 109.085938 45.589844 105.683594 C 45.382812 103.953125 45.039062 102.242188 44.742188 100.527344 C 44.449219 98.839844 44.171875 97.15625 43.898438 95.464844 C 43.351562 92.0625 42.847656 88.648438 42.378906 85.230469 C 41.886719 81.648438 41.441406 78.0625 41.042969 74.464844 C 41.03125 74.007812 40.664062 73.640625 40.203125 73.625 C 39.742188 73.628906 39.367188 74.003906 39.367188 74.464844 Z M 39.367188 74.464844 "/>
<path style=" stroke:none;fill-rule:nonzero;fill:rgb(12.941177%,9.019608%,8.235294%);fill-opacity:1;" d="M 50.535156 29.460938 C 49.65625 26.320312 49.527344 22.957031 49.8125 19.722656 C 50.039062 17.101562 50.675781 14.460938 52.015625 12.171875 C 52.773438 10.785156 53.882812 9.621094 55.230469 8.792969 C 56.164062 8.253906 55.320312 6.800781 54.382812 7.34375 C 51.570312 8.964844 49.878906 12.035156 48.980469 15.054688 C 48.179688 17.957031 47.863281 20.972656 48.042969 23.976562 C 48.105469 25.980469 48.398438 27.96875 48.914062 29.90625 C 49.207031 30.941406 50.824219 30.5 50.535156 29.457031 Z M 50.535156 29.460938 "/>
<path style=" stroke:none;fill-rule:nonzero;fill:rgb(12.941177%,9.019608%,8.235294%);fill-opacity:1;" d="M 57.75 6.597656 C 60.179688 3.589844 64.019531 2.445312 67.707031 1.921875 C 71.445312 1.382812 75.257812 1.746094 78.824219 2.988281 C 82.289062 4.164062 85.410156 6.171875 87.917969 8.839844 C 90.234375 11.414062 91.785156 14.585938 92.402344 17.996094 C 93.164062 21.734375 92.964844 25.605469 91.824219 29.25 C 91.492188 30.277344 93.109375 30.71875 93.441406 29.695312 C 94.527344 26.1875 94.796875 22.476562 94.238281 18.847656 C 93.714844 15.171875 92.347656 11.59375 90.003906 8.691406 C 85.011719 2.515625 76.632812 -0.660156 68.800781 0.113281 C 64.363281 0.554688 59.492188 1.78125 56.5625 5.414062 C 56.25 5.746094 56.25 6.265625 56.5625 6.597656 C 56.894531 6.925781 57.421875 6.925781 57.75 6.597656 Z M 57.75 6.597656 "/>
<path style=" stroke:none;fill-rule:nonzero;fill:rgb(12.941177%,9.019608%,8.235294%);fill-opacity:1;" d="M 54.277344 31.066406 C 54.234375 27.542969 55.335938 24.101562 57.425781 21.261719 C 58.476562 19.777344 59.746094 18.460938 61.191406 17.355469 C 61.351562 17.238281 61.191406 17.296875 61.339844 17.320312 C 61.523438 17.382812 61.695312 17.484375 61.839844 17.613281 C 62.214844 17.867188 62.5625 18.152344 62.933594 18.410156 C 63.4375 18.757812 63.972656 19.066406 64.511719 19.363281 C 65.855469 20.113281 67.246094 20.777344 68.675781 21.347656 C 70.136719 21.949219 71.730469 22.164062 73.296875 21.972656 C 75.144531 21.746094 76.929688 21.164062 78.808594 21.234375 C 80.664062 21.328125 82.511719 21.542969 84.335938 21.878906 L 86.011719 22.167969 C 86.40625 22.238281 87.027344 22.261719 87.296875 22.613281 C 87.5 22.960938 87.652344 23.335938 87.746094 23.726562 C 87.910156 24.183594 88.070312 24.640625 88.226562 25.101562 C 88.898438 26.976562 89.425781 28.898438 89.796875 30.855469 C 89.925781 31.296875 90.382812 31.558594 90.832031 31.441406 C 91.269531 31.308594 91.527344 30.851562 91.417969 30.40625 C 91.0625 28.542969 90.566406 26.707031 89.929688 24.917969 C 89.660156 24.101562 89.386719 23.28125 89.074219 22.476562 C 88.921875 22.003906 88.648438 21.574219 88.285156 21.238281 C 87.839844 20.898438 87.316406 20.679688 86.761719 20.601562 C 84.824219 20.238281 82.863281 19.902344 80.902344 19.707031 C 79.832031 19.570312 78.75 19.527344 77.675781 19.574219 C 76.667969 19.667969 75.664062 19.828125 74.675781 20.046875 C 73.011719 20.382812 71.410156 20.542969 69.773438 19.976562 C 68.351562 19.453125 66.972656 18.820312 65.652344 18.078125 C 65.046875 17.75 64.445312 17.410156 63.875 17.023438 C 63.105469 16.507812 62.375 15.722656 61.40625 15.632812 C 60.429688 15.542969 59.628906 16.457031 58.957031 17.0625 C 58.210938 17.734375 57.515625 18.460938 56.875 19.238281 C 54.152344 22.566406 52.492188 26.734375 52.601562 31.066406 C 52.628906 32.144531 54.304688 32.148438 54.277344 31.066406 Z M 54.277344 31.066406 "/>
<path style=" stroke:none;fill-rule:nonzero;fill:rgb(12.941177%,9.019608%,8.235294%);fill-opacity:1;" d="M 69.488281 69.585938 C 71.226562 69.585938 72.960938 69.550781 74.699219 69.546875 C 75.164062 69.546875 75.539062 69.171875 75.539062 68.710938 C 75.539062 68.246094 75.164062 67.871094 74.699219 67.871094 C 72.960938 67.871094 71.226562 67.910156 69.488281 67.910156 C 69.023438 67.910156 68.648438 68.285156 68.648438 68.75 C 68.648438 69.210938 69.023438 69.585938 69.488281 69.585938 Z M 69.488281 69.585938 "/>
<path style=" stroke:none;fill-rule:nonzero;fill:rgb(12.941177%,9.019608%,8.235294%);fill-opacity:1;" d="M 67.632812 65.148438 C 67.78125 65.90625 67.945312 66.660156 68.121094 67.410156 C 68.28125 67.882812 68.371094 68.375 68.386719 68.875 C 68.351562 69.394531 68.257812 69.914062 68.191406 70.429688 C 67.878906 72.800781 67.566406 75.171875 67.261719 77.542969 C 67.050781 79.171875 66.84375 80.804688 66.644531 82.4375 C 66.648438 82.902344 67.019531 83.273438 67.484375 83.277344 C 67.941406 83.265625 68.3125 82.898438 68.324219 82.4375 C 68.667969 79.601562 69.035156 76.765625 69.40625 73.933594 C 69.625 72.269531 69.921875 70.59375 70.058594 68.917969 C 70.066406 68.398438 69.992188 67.878906 69.839844 67.382812 C 69.617188 66.496094 69.425781 65.597656 69.25 64.703125 C 69.125 64.257812 68.664062 63.992188 68.21875 64.117188 C 67.769531 64.238281 67.507812 64.703125 67.632812 65.148438 Z M 67.632812 65.148438 "/>
<path style=" stroke:none;fill-rule:nonzero;fill:rgb(12.941177%,9.019608%,8.235294%);fill-opacity:1;" d="M 73.453125 61.480469 L 70.359375 61.488281 C 69.898438 61.488281 69.523438 61.863281 69.523438 62.324219 C 69.523438 62.789062 69.898438 63.164062 70.359375 63.164062 L 73.453125 63.15625 C 73.914062 63.15625 74.289062 62.78125 74.289062 62.320312 C 74.289062 61.855469 73.914062 61.480469 73.453125 61.480469 Z M 73.453125 61.480469 "/>
<path style=" stroke:none;fill-rule:nonzero;fill:rgb(12.941177%,9.019608%,8.235294%);fill-opacity:1;" d="M 77.578125 81.742188 C 77.175781 79.035156 76.769531 76.324219 76.363281 73.617188 C 76.214844 72.609375 76.066406 71.601562 75.921875 70.59375 C 75.871094 70.234375 75.820312 69.875 75.769531 69.515625 C 75.761719 69.453125 75.789062 69.671875 75.769531 69.5 C 75.761719 69.445312 75.753906 69.394531 75.75 69.34375 C 75.738281 69.25 75.722656 69.160156 75.714844 69.066406 C 75.699219 68.679688 75.753906 68.292969 75.875 67.921875 C 76.078125 67.1875 76.332031 66.464844 76.519531 65.722656 C 76.78125 64.675781 75.164062 64.230469 74.902344 65.277344 C 74.601562 66.460938 73.980469 67.722656 74.027344 68.960938 C 74.046875 69.476562 74.15625 70 74.226562 70.515625 C 74.542969 72.753906 74.882812 74.988281 75.21875 77.226562 C 75.464844 78.878906 75.714844 80.535156 75.960938 82.1875 C 76.085938 82.632812 76.546875 82.894531 76.992188 82.773438 C 77.433594 82.644531 77.691406 82.1875 77.578125 81.742188 Z M 77.578125 81.742188 "/>
<path style=" stroke:none;fill-rule:nonzero;fill:rgb(12.941177%,9.019608%,8.235294%);fill-opacity:1;" d="M 80.546875 92.25 C 78.695312 94.03125 76.8125 95.785156 74.882812 97.480469 C 74.554688 97.808594 74.554688 98.339844 74.882812 98.667969 C 75.210938 98.992188 75.742188 98.992188 76.070312 98.667969 C 78.003906 96.972656 79.882812 95.214844 81.734375 93.433594 C 82.054688 93.105469 82.054688 92.578125 81.726562 92.253906 C 81.402344 91.925781 80.875 91.925781 80.546875 92.25 Z M 80.546875 92.25 "/>
<path style=" stroke:none;fill-rule:nonzero;fill:rgb(12.941177%,9.019608%,8.235294%);fill-opacity:1;" d="M 72.609375 105.617188 C 72.703125 105.703125 72.777344 105.804688 72.871094 105.886719 C 72.785156 105.777344 72.765625 105.753906 72.816406 105.824219 C 72.832031 105.847656 72.847656 105.871094 72.863281 105.894531 C 72.890625 105.933594 72.914062 105.976562 72.9375 106.019531 C 72.972656 106.085938 73.007812 106.230469 72.929688 105.980469 C 72.945312 106.03125 72.964844 106.078125 72.980469 106.128906 C 73.007812 106.222656 73.03125 106.320312 73.042969 106.417969 L 73.015625 106.195312 C 73.039062 106.371094 73.039062 106.550781 73.015625 106.726562 L 73.046875 106.5 C 73.03125 106.601562 73.011719 106.699219 72.984375 106.792969 C 72.972656 106.835938 72.960938 106.875 72.945312 106.917969 C 72.933594 106.957031 72.867188 107.121094 72.933594 106.960938 C 73.003906 106.796875 72.933594 106.953125 72.917969 106.992188 C 72.898438 107.03125 72.878906 107.0625 72.855469 107.097656 C 72.835938 107.132812 72.816406 107.164062 72.796875 107.195312 C 72.707031 107.328125 72.941406 107.027344 72.84375 107.132812 C 72.808594 107.171875 72.667969 107.359375 72.621094 107.351562 C 72.625 107.351562 72.8125 107.214844 72.683594 107.296875 C 72.664062 107.3125 72.644531 107.324219 72.625 107.339844 C 72.578125 107.367188 72.527344 107.394531 72.476562 107.421875 C 72.457031 107.433594 72.433594 107.441406 72.410156 107.453125 C 72.292969 107.511719 72.585938 107.386719 72.492188 107.417969 C 72.441406 107.433594 72.398438 107.453125 72.347656 107.464844 C 72.234375 107.5 72.117188 107.527344 72 107.542969 L 72.222656 107.511719 C 72.011719 107.539062 71.796875 107.542969 71.585938 107.515625 L 71.8125 107.542969 C 71.644531 107.515625 71.480469 107.476562 71.320312 107.417969 C 71.574219 107.5 71.460938 107.480469 71.394531 107.449219 C 71.351562 107.425781 71.3125 107.40625 71.273438 107.382812 C 71.246094 107.363281 71.21875 107.34375 71.1875 107.328125 C 71.074219 107.253906 71.367188 107.480469 71.234375 107.363281 C 71.15625 107.292969 71.085938 107.222656 71.015625 107.144531 C 70.917969 107.035156 71.136719 107.320312 71.015625 107.140625 C 70.992188 107.105469 70.96875 107.070312 70.949219 107.03125 C 70.929688 106.996094 70.910156 106.960938 70.894531 106.921875 C 70.828125 106.796875 70.96875 107.140625 70.90625 106.941406 C 70.878906 106.855469 70.859375 106.765625 70.84375 106.675781 L 70.875 106.898438 C 70.855469 106.75 70.855469 106.597656 70.875 106.445312 L 70.84375 106.667969 C 70.859375 106.5625 70.882812 106.457031 70.914062 106.355469 C 70.929688 106.304688 70.949219 106.257812 70.964844 106.207031 C 71.023438 106.046875 70.878906 106.382812 70.957031 106.230469 C 71.003906 106.132812 71.058594 106.035156 71.117188 105.941406 C 71.144531 105.898438 71.175781 105.855469 71.207031 105.8125 C 71.21875 105.789062 71.234375 105.769531 71.25 105.75 C 71.226562 105.769531 71.113281 105.914062 71.207031 105.8125 C 71.238281 105.777344 71.265625 105.742188 71.300781 105.707031 C 71.335938 105.671875 71.464844 105.570312 71.335938 105.667969 C 71.210938 105.765625 71.351562 105.660156 71.386719 105.640625 C 71.429688 105.609375 71.480469 105.582031 71.53125 105.558594 C 71.539062 105.550781 71.589844 105.523438 71.597656 105.523438 C 71.597656 105.523438 71.390625 105.605469 71.503906 105.566406 C 71.550781 105.546875 71.597656 105.53125 71.648438 105.515625 C 71.761719 105.480469 71.875 105.457031 71.992188 105.441406 L 71.769531 105.472656 C 71.953125 105.449219 72.136719 105.449219 72.320312 105.472656 L 72.097656 105.441406 C 72.175781 105.453125 72.253906 105.46875 72.328125 105.488281 C 72.359375 105.496094 72.390625 105.507812 72.421875 105.515625 C 72.453125 105.527344 72.597656 105.585938 72.449219 105.523438 C 72.3125 105.460938 72.425781 105.511719 72.457031 105.527344 C 72.488281 105.542969 72.527344 105.5625 72.558594 105.585938 C 72.59375 105.605469 72.625 105.628906 72.660156 105.648438 C 72.777344 105.726562 72.496094 105.515625 72.613281 105.617188 C 72.773438 105.769531 72.984375 105.855469 73.207031 105.859375 C 73.546875 105.859375 73.851562 105.65625 73.984375 105.34375 C 74.113281 105.027344 74.042969 104.667969 73.800781 104.425781 C 73.324219 104.011719 72.71875 103.78125 72.085938 103.773438 C 71.53125 103.761719 70.980469 103.910156 70.507812 104.207031 C 69.527344 104.878906 69.035156 106.0625 69.25 107.230469 C 69.40625 107.855469 69.785156 108.394531 70.316406 108.753906 C 70.976562 109.171875 71.773438 109.308594 72.535156 109.136719 C 73.292969 108.964844 73.953125 108.496094 74.367188 107.835938 C 74.625 107.351562 74.742188 106.808594 74.703125 106.265625 C 74.648438 105.558594 74.324219 104.902344 73.800781 104.425781 C 73.472656 104.105469 72.945312 104.105469 72.621094 104.429688 C 72.292969 104.757812 72.292969 105.285156 72.613281 105.613281 Z M 72.609375 105.617188 "/>
<path style=" stroke:none;fill-rule:nonzero;fill:rgb(12.941177%,9.019608%,8.235294%);fill-opacity:1;" d="M 86.695312 90.042969 C 84.71875 89.625 84.195312 87.625 84.332031 85.847656 C 84.359375 85.46875 84.421875 85.097656 84.519531 84.730469 C 84.539062 84.65625 84.5625 84.585938 84.585938 84.515625 C 84.601562 84.464844 84.621094 84.417969 84.640625 84.367188 C 84.683594 84.242188 84.5625 84.515625 84.667969 84.300781 C 84.867188 83.828125 85.164062 83.402344 85.542969 83.054688 C 85.738281 82.867188 85.960938 82.714844 86.203125 82.601562 C 86.503906 82.457031 86.832031 82.367188 87.164062 82.332031 C 88.003906 82.242188 88.851562 82.457031 89.542969 82.9375 C 90.765625 83.890625 90.9375 85.765625 90.589844 87.160156 C 90.132812 88.976562 88.660156 90.386719 86.695312 90.042969 C 86.25 89.933594 85.796875 90.191406 85.664062 90.628906 C 85.542969 91.074219 85.804688 91.535156 86.25 91.660156 C 87.4375 91.914062 88.679688 91.71875 89.738281 91.117188 C 90.703125 90.511719 91.449219 89.617188 91.878906 88.5625 C 92.738281 86.53125 92.628906 83.945312 91.179688 82.203125 C 89.785156 80.527344 86.964844 80.152344 85.125 81.28125 C 83.835938 82.113281 82.972656 83.460938 82.761719 84.980469 C 82.507812 86.28125 82.609375 87.625 83.058594 88.871094 C 83.578125 90.28125 84.78125 91.332031 86.25 91.660156 C 87.300781 91.882812 87.753906 90.265625 86.695312 90.042969 Z M 86.695312 90.042969 "/>
<path style=" stroke:none;fill-rule:nonzero;fill:rgb(12.941177%,9.019608%,8.235294%);fill-opacity:1;" d="M 87.183594 87.640625 C 87.035156 87.613281 86.898438 87.554688 86.773438 87.46875 C 86.238281 87.085938 86.191406 86.316406 86.332031 85.722656 C 86.40625 85.382812 86.625 85.09375 86.925781 84.925781 C 87.226562 84.753906 87.585938 84.722656 87.914062 84.832031 C 88.625 85.027344 88.839844 85.820312 88.71875 86.476562 C 88.578125 87.183594 88.027344 87.800781 87.183594 87.640625 Z M 87.183594 87.640625 "/>
<path style=" stroke:none;fill-rule:nonzero;fill:rgb(12.941177%,9.019608%,8.235294%);fill-opacity:1;" d="M 59.863281 56.410156 C 57.554688 57.289062 55.875 59.5 54.832031 61.65625 C 54.152344 63.125 53.671875 64.675781 53.410156 66.273438 C 53.101562 67.984375 52.742188 69.683594 52.40625 71.390625 C 52.234375 72.273438 52.164062 73.25 51.839844 74.085938 C 51.570312 74.785156 51.332031 75.5 51.121094 76.21875 C 50.675781 77.742188 50.324219 79.292969 50.066406 80.863281 C 49.625 83.46875 49.304688 86.183594 49.496094 88.832031 C 49.738281 92.234375 50.480469 95.910156 52.324219 98.832031 C 52.902344 99.742188 54.355469 98.902344 53.773438 97.984375 C 52.242188 95.558594 51.554688 92.558594 51.253906 89.734375 C 51.035156 87.285156 51.121094 84.816406 51.511719 82.386719 C 51.726562 80.890625 52.015625 79.410156 52.386719 77.945312 C 52.570312 77.226562 52.773438 76.511719 53.007812 75.804688 C 53.289062 75.070312 53.523438 74.316406 53.703125 73.546875 C 54.011719 71.851562 54.363281 70.160156 54.695312 68.46875 C 55.003906 66.90625 55.214844 65.320312 55.742188 63.8125 C 56.214844 62.429688 56.925781 61.140625 57.851562 60.011719 C 58.242188 59.539062 58.679688 59.101562 59.15625 58.714844 C 59.351562 58.566406 59.554688 58.429688 59.765625 58.304688 C 59.871094 58.242188 59.980469 58.183594 60.089844 58.128906 C 60.136719 58.105469 60.183594 58.082031 60.230469 58.0625 C 60.394531 57.984375 60.128906 58.097656 60.308594 58.03125 C 60.746094 57.898438 61.003906 57.445312 60.894531 57 C 60.765625 56.554688 60.308594 56.292969 59.859375 56.414062 Z M 59.863281 56.410156 "/>
<path style=" stroke:none;fill-rule:nonzero;fill:rgb(12.941177%,9.019608%,8.235294%);fill-opacity:1;" d="M 57.050781 96.808594 C 55.691406 94.507812 55.125 91.691406 54.699219 89.082031 C 54.679688 88.953125 54.660156 88.824219 54.640625 88.695312 C 54.636719 88.671875 54.585938 88.328125 54.605469 88.484375 C 54.574219 88.222656 54.554688 87.953125 54.546875 87.6875 C 54.523438 87.105469 54.542969 86.523438 54.574219 85.945312 C 54.652344 84.640625 54.808594 83.339844 55.007812 82.050781 C 55.195312 80.835938 55.410156 79.621094 55.703125 78.425781 L 54.167969 78.625 C 55.074219 80.257812 55.75 82.050781 56.492188 83.761719 C 57.429688 85.917969 58.523438 88.066406 59.195312 90.324219 C 59.582031 91.625 59.800781 92.988281 59.390625 94.308594 C 59.042969 95.417969 58.523438 95.917969 57.554688 96.414062 C 56.996094 96.730469 56.382812 96.941406 55.75 97.039062 C 54.921875 97.078125 54.105469 97.257812 53.335938 97.5625 C 51.96875 98.210938 51.574219 99.832031 52.03125 101.195312 C 52.492188 102.558594 53.773438 103.65625 55.277344 103.304688 C 56.058594 103.125 56.683594 102.550781 57.386719 102.195312 C 58.101562 101.835938 58.84375 101.542969 59.5625 101.195312 C 60.875 100.566406 62.171875 99.796875 63.09375 98.644531 C 64.109375 97.371094 64.785156 95.859375 65.054688 94.25 C 65.300781 92.652344 65.019531 91.03125 64.625 89.480469 C 64.222656 87.976562 63.703125 86.511719 63.066406 85.09375 C 61.855469 82.316406 60.332031 79.6875 59.066406 76.929688 C 58.769531 76.28125 58.484375 75.625 58.230469 74.957031 C 58.121094 74.707031 58.027344 74.453125 57.953125 74.195312 C 57.929688 73.964844 57.925781 73.730469 57.941406 73.5 C 57.964844 72.382812 58.054688 71.265625 58.207031 70.160156 C 58.511719 67.609375 59.078125 65.097656 59.890625 62.660156 C 60.058594 62.171875 60.246094 61.6875 60.460938 61.214844 C 60.683594 60.8125 60.550781 60.308594 60.160156 60.066406 C 59.761719 59.835938 59.25 59.972656 59.015625 60.367188 C 57.972656 62.617188 57.382812 65.074219 56.9375 67.503906 C 56.707031 68.761719 56.523438 70.027344 56.398438 71.300781 C 56.28125 72.273438 56.238281 73.253906 56.277344 74.230469 C 56.320312 74.910156 56.6875 75.613281 56.945312 76.238281 C 57.242188 76.949219 57.554688 77.652344 57.886719 78.351562 C 58.519531 79.683594 59.203125 80.992188 59.871094 82.308594 C 61.207031 84.925781 62.496094 87.597656 63.140625 90.480469 C 63.464844 91.925781 63.632812 93.363281 63.214844 94.808594 C 62.835938 96.230469 62.03125 97.503906 60.914062 98.457031 C 59.804688 99.339844 58.445312 99.871094 57.164062 100.453125 C 56.820312 100.605469 56.480469 100.765625 56.152344 100.957031 C 55.816406 101.148438 55.511719 101.398438 55.164062 101.566406 C 54.75 101.800781 54.226562 101.679688 53.957031 101.285156 C 53.644531 100.894531 53.492188 100.398438 53.53125 99.902344 C 53.574219 99.332031 53.945312 99.066406 54.480469 98.914062 C 55.179688 98.714844 55.917969 98.734375 56.625 98.585938 C 57.292969 98.414062 57.929688 98.148438 58.523438 97.800781 C 59.496094 97.328125 60.273438 96.527344 60.710938 95.539062 C 61.285156 94.175781 61.433594 92.675781 61.140625 91.226562 C 60.699219 88.707031 59.433594 86.371094 58.429688 84.039062 C 57.636719 82.195312 56.84375 80.34375 55.988281 78.523438 C 55.871094 78.273438 55.753906 78.019531 55.617188 77.777344 C 55.445312 77.492188 55.117188 77.339844 54.789062 77.382812 C 54.457031 77.425781 54.183594 77.65625 54.085938 77.976562 C 53.496094 80.441406 53.109375 82.953125 52.929688 85.480469 C 52.824219 86.667969 52.851562 87.867188 53.011719 89.050781 C 53.207031 90.390625 53.476562 91.71875 53.820312 93.027344 C 54.199219 94.644531 54.800781 96.199219 55.601562 97.652344 C 56.152344 98.582031 57.601562 97.738281 57.050781 96.804688 Z M 57.050781 96.808594 "/>
<path style=" stroke:none;fill-rule:nonzero;fill:rgb(12.941177%,9.019608%,8.235294%);fill-opacity:1;" d="M 50.550781 89.699219 C 51.589844 89.636719 52.625 89.546875 53.660156 89.429688 C 53.882812 89.421875 54.09375 89.335938 54.253906 89.183594 C 54.410156 89.023438 54.496094 88.8125 54.5 88.589844 C 54.480469 88.179688 54.125 87.699219 53.660156 87.75 C 52.625 87.867188 51.589844 87.957031 50.550781 88.019531 C 50.085938 88.019531 49.710938 88.398438 49.710938 88.859375 C 49.710938 89.324219 50.085938 89.699219 50.550781 89.699219 Z M 50.550781 89.699219 "/>
<path style=" stroke:none;fill-rule:nonzero;fill:rgb(12.941177%,9.019608%,8.235294%);fill-opacity:1;" d="M 59.6875 88.359375 C 59.730469 88.339844 59.773438 88.320312 59.816406 88.300781 L 59.617188 88.386719 C 60.382812 88.066406 61.175781 87.808594 61.988281 87.621094 C 62.429688 87.496094 62.691406 87.035156 62.574219 86.589844 C 62.441406 86.148438 61.984375 85.890625 61.539062 86.003906 C 60.613281 86.222656 59.710938 86.527344 58.839844 86.910156 C 58.648438 87.019531 58.511719 87.199219 58.453125 87.410156 C 58.394531 87.628906 58.425781 87.859375 58.539062 88.058594 C 58.648438 88.246094 58.828125 88.382812 59.039062 88.441406 L 59.261719 88.472656 C 59.410156 88.472656 59.558594 88.433594 59.6875 88.355469 Z M 59.6875 88.359375 "/>
<path style=" stroke:none;fill-rule:nonzero;fill:rgb(12.941177%,9.019608%,8.235294%);fill-opacity:1;" d="M 90.402344 81.980469 C 91.101562 78.09375 91.574219 74.125 91.210938 70.171875 C 90.90625 66.890625 90.292969 63.5 88.636719 60.613281 C 87.585938 58.78125 86.148438 57.054688 84.15625 56.230469 C 83.710938 56.109375 83.25 56.371094 83.125 56.816406 C 83.015625 57.261719 83.273438 57.714844 83.710938 57.847656 C 85.164062 58.449219 86.269531 59.917969 87.058594 61.238281 C 87.902344 62.671875 88.503906 64.234375 88.835938 65.863281 C 89.476562 68.738281 89.742188 71.683594 89.625 74.625 C 89.496094 76.945312 89.21875 79.253906 88.785156 81.539062 C 88.675781 81.984375 88.933594 82.4375 89.371094 82.570312 C 89.816406 82.6875 90.277344 82.425781 90.402344 81.984375 Z M 90.402344 81.980469 "/>
<path style=" stroke:none;fill-rule:nonzero;fill:rgb(12.941177%,9.019608%,8.235294%);fill-opacity:1;" d="M 55.164062 98.488281 C 55.46875 99.222656 55.675781 99.992188 55.785156 100.777344 L 55.753906 100.554688 C 55.789062 100.792969 55.808594 101.03125 55.824219 101.273438 C 55.824219 101.734375 56.203125 102.113281 56.664062 102.113281 C 57.128906 102.113281 57.503906 101.734375 57.503906 101.273438 C 57.445312 100.164062 57.203125 99.070312 56.785156 98.039062 C 56.71875 97.832031 56.582031 97.65625 56.398438 97.539062 C 56 97.304688 55.484375 97.441406 55.253906 97.839844 C 55.136719 98.035156 55.105469 98.269531 55.167969 98.488281 Z M 55.164062 98.488281 "/>
<path style=" stroke:none;fill-rule:nonzero;fill:rgb(12.941177%,9.019608%,8.235294%);fill-opacity:1;" d="M 60.441406 101.066406 C 60.503906 101.089844 60.558594 101.125 60.617188 101.15625 C 60.742188 101.222656 60.546875 101.074219 60.636719 101.171875 C 60.6875 101.226562 60.738281 101.273438 60.785156 101.328125 C 60.679688 101.203125 60.78125 101.332031 60.800781 101.363281 C 60.84375 101.429688 60.875 101.492188 60.910156 101.558594 C 60.984375 101.699219 60.886719 101.460938 60.925781 101.597656 C 60.945312 101.667969 60.96875 101.738281 60.984375 101.8125 C 61.003906 101.894531 61 101.953125 60.996094 101.835938 C 61 101.902344 61 101.972656 61 102.039062 C 61.007812 102.191406 61.039062 101.917969 61 102.046875 C 60.941406 102.246094 61.074219 101.960938 60.984375 102.109375 C 60.953125 102.164062 60.921875 102.222656 60.886719 102.277344 C 60.960938 102.164062 60.8125 102.355469 60.789062 102.375 C 60.765625 102.398438 60.640625 102.503906 60.734375 102.433594 C 60.601562 102.527344 60.457031 102.613281 60.308594 102.679688 C 60.265625 102.699219 60.269531 102.699219 60.324219 102.675781 C 60.28125 102.691406 60.242188 102.707031 60.199219 102.722656 C 60.128906 102.75 60.054688 102.773438 59.980469 102.792969 C 59.898438 102.816406 59.816406 102.835938 59.734375 102.855469 C 59.683594 102.867188 59.628906 102.878906 59.578125 102.886719 C 59.625 102.882812 59.621094 102.882812 59.570312 102.886719 C 59.480469 102.894531 59.390625 102.894531 59.300781 102.894531 C 59.207031 102.886719 59.195312 102.886719 59.265625 102.894531 C 59.230469 102.886719 59.199219 102.878906 59.167969 102.871094 C 59.132812 102.863281 58.933594 102.785156 59.050781 102.839844 C 58.980469 102.804688 58.910156 102.765625 58.84375 102.726562 C 58.816406 102.707031 58.789062 102.691406 58.757812 102.667969 C 58.808594 102.710938 58.804688 102.707031 58.742188 102.652344 C 58.675781 102.601562 58.621094 102.550781 58.566406 102.492188 C 58.46875 102.394531 58.382812 102.289062 58.3125 102.171875 C 58.113281 101.847656 57.9375 101.511719 57.789062 101.164062 C 57.59375 100.832031 57.164062 100.71875 56.832031 100.914062 C 56.507812 101.113281 56.398438 101.535156 56.582031 101.871094 C 56.839844 102.550781 57.25 103.164062 57.777344 103.664062 C 58.0625 103.914062 58.398438 104.097656 58.761719 104.210938 C 59.175781 104.316406 59.609375 104.316406 60.027344 104.21875 C 60.714844 104.105469 61.347656 103.78125 61.84375 103.296875 C 62.316406 102.804688 62.503906 102.101562 62.335938 101.4375 C 62.199219 100.757812 61.761719 100.175781 61.144531 99.855469 C 60.8125 99.671875 60.390625 99.785156 60.1875 100.109375 C 60 100.441406 60.109375 100.867188 60.441406 101.0625 Z M 60.441406 101.066406 "/>
<path style=" stroke:none;fill-rule:nonzero;fill:rgb(12.941177%,9.019608%,8.235294%);fill-opacity:1;" d="M 88.652344 40.300781 C 88.609375 41.070312 88.464844 41.828125 88.226562 42.558594 C 88.144531 42.835938 88.050781 43.113281 87.960938 43.386719 C 87.925781 43.480469 87.894531 43.578125 87.863281 43.671875 C 87.839844 43.734375 87.738281 43.964844 87.84375 43.722656 C 87.507812 44.457031 87.121094 45.164062 86.6875 45.84375 C 85.417969 47.925781 83.816406 49.785156 81.949219 51.355469 C 80.917969 52.230469 79.722656 52.886719 78.429688 53.285156 C 77.394531 53.582031 77.835938 55.203125 78.875 54.902344 C 81.554688 54.136719 83.785156 52.210938 85.574219 50.144531 C 87.050781 48.507812 88.285156 46.671875 89.242188 44.6875 C 89.882812 43.308594 90.25 41.820312 90.332031 40.300781 C 90.367188 39.21875 88.6875 39.222656 88.652344 40.300781 Z M 88.652344 40.300781 "/>
<path style=" stroke:none;fill-rule:nonzero;fill:rgb(12.941177%,9.019608%,8.235294%);fill-opacity:1;" d="M 52.933594 40.324219 C 53.933594 45.679688 56.792969 50.820312 61.582031 53.65625 C 62.859375 54.425781 64.273438 54.945312 65.742188 55.179688 C 66.1875 55.289062 66.640625 55.03125 66.777344 54.59375 C 66.894531 54.148438 66.632812 53.691406 66.191406 53.5625 C 61.078125 52.785156 57.167969 48.15625 55.511719 43.503906 C 55.097656 42.324219 54.777344 41.109375 54.550781 39.878906 C 54.425781 39.433594 53.964844 39.171875 53.519531 39.292969 C 53.078125 39.421875 52.820312 39.878906 52.933594 40.324219 Z M 52.933594 40.324219 "/>
<path style=" stroke:none;fill-rule:nonzero;fill:rgb(12.941177%,9.019608%,8.235294%);fill-opacity:1;" d="M 91.1875 31.234375 C 91.988281 30.582031 93.164062 30.679688 93.84375 31.457031 C 94.222656 31.9375 94.257812 32.621094 94.28125 33.203125 C 94.316406 33.878906 94.28125 34.554688 94.175781 35.222656 C 93.96875 36.570312 93.492188 37.859375 92.777344 39.019531 C 92.242188 39.875 91.351562 41.03125 90.21875 40.71875 C 89.175781 40.433594 88.730469 42.050781 89.769531 42.335938 C 92.6875 43.140625 94.601562 39.691406 95.363281 37.40625 C 95.824219 36.027344 96.023438 34.578125 95.953125 33.125 C 95.886719 31.722656 95.511719 30.386719 94.234375 29.625 C 92.875 28.84375 91.171875 29.011719 90 30.050781 C 89.675781 30.378906 89.675781 30.90625 90 31.234375 C 90.328125 31.554688 90.851562 31.554688 91.183594 31.234375 Z M 91.1875 31.234375 "/>
<path style=" stroke:none;fill-rule:nonzero;fill:rgb(12.941177%,9.019608%,8.235294%);fill-opacity:1;" d="M 53.542969 30.050781 C 52.476562 29.109375 50.964844 28.875 49.664062 29.445312 C 48.320312 30.039062 47.757812 31.277344 47.621094 32.667969 C 47.339844 35.5 48.191406 38.664062 50.039062 40.855469 C 51.03125 42.027344 52.460938 42.96875 54.042969 42.597656 C 55.09375 42.355469 54.652344 40.734375 53.597656 40.980469 C 52.496094 41.238281 51.425781 40.015625 50.882812 39.203125 C 50.128906 38.042969 49.621094 36.738281 49.394531 35.375 C 49.277344 34.710938 49.234375 34.035156 49.257812 33.359375 C 49.273438 32.769531 49.285156 32.066406 49.628906 31.5625 C 49.941406 31.148438 50.410156 30.878906 50.921875 30.816406 C 51.4375 30.753906 51.957031 30.90625 52.355469 31.234375 C 52.6875 31.550781 53.210938 31.550781 53.542969 31.234375 C 53.867188 30.90625 53.867188 30.378906 53.542969 30.050781 Z M 53.542969 30.050781 "/>
<path style=" stroke:none;fill-rule:nonzero;fill:rgb(12.941177%,9.019608%,8.235294%);fill-opacity:1;" d="M 83.660156 57.746094 C 83.28125 60.273438 82.765625 62.78125 82.117188 65.253906 C 81.601562 67.242188 80.9375 69.167969 80.242188 71.09375 C 78.691406 75.382812 77.171875 79.703125 75.390625 83.902344 C 73.152344 89.175781 70.339844 94.128906 67.519531 99.101562 C 66.847656 100.265625 66.238281 101.460938 65.695312 102.6875 C 65.226562 103.65625 64.847656 104.664062 64.554688 105.703125 C 64.144531 107.421875 64.082031 109.246094 64.03125 111.003906 C 63.902344 115.210938 64.097656 119.414062 64.199219 123.621094 C 64.207031 123.980469 64.214844 124.339844 64.21875 124.699219 C 64.234375 125.777344 65.914062 125.78125 65.898438 124.699219 C 65.84375 120.6875 65.632812 116.679688 65.675781 112.664062 C 65.6875 111.625 65.710938 110.585938 65.769531 109.546875 C 65.796875 109.082031 65.828125 108.621094 65.871094 108.160156 C 65.886719 107.957031 65.910156 107.753906 65.933594 107.550781 C 65.945312 107.441406 65.957031 107.328125 65.972656 107.21875 C 65.953125 107.375 65.992188 107.085938 66 107.050781 C 66.3125 105.039062 67.257812 103.101562 68.203125 101.320312 C 69.519531 98.832031 70.992188 96.425781 72.347656 93.957031 C 73.691406 91.503906 74.953125 89.011719 76.09375 86.457031 C 78.085938 82.003906 79.738281 77.402344 81.394531 72.820312 C 82.019531 71.097656 82.679688 69.382812 83.203125 67.628906 C 83.953125 65.0625 84.558594 62.457031 85.015625 59.824219 C 85.109375 59.28125 85.199219 58.738281 85.277344 58.191406 C 85.386719 57.746094 85.128906 57.292969 84.691406 57.15625 C 84.246094 57.039062 83.785156 57.300781 83.660156 57.742188 Z M 83.660156 57.746094 "/>
<path style=" stroke:none;fill-rule:nonzero;fill:rgb(12.941177%,9.019608%,8.235294%);fill-opacity:1;" d="M 59.019531 57.796875 C 59.453125 62.976562 60.480469 68.089844 62.082031 73.035156 C 63.617188 77.6875 65.410156 82.25 67.445312 86.703125 C 68.523438 89.140625 69.628906 91.5625 70.703125 94 C 70.941406 94.398438 71.453125 94.53125 71.851562 94.300781 C 72.242188 94.058594 72.375 93.554688 72.152344 93.152344 C 68.304688 84.414062 64.121094 75.777344 62.011719 66.40625 C 61.367188 63.574219 60.929688 60.695312 60.699219 57.796875 C 60.6875 57.339844 60.320312 56.96875 59.859375 56.957031 C 59.398438 56.960938 59.023438 57.335938 59.019531 57.796875 Z M 59.019531 57.796875 "/>
<path style=" stroke:none;fill-rule:nonzero;fill:rgb(12.941177%,9.019608%,8.235294%);fill-opacity:1;" d="M 78.992188 68.039062 C 80.710938 66.023438 82.21875 63.832031 83.484375 61.503906 C 83.792969 60.929688 84.085938 60.351562 84.363281 59.765625 C 84.535156 59.460938 84.679688 59.144531 84.800781 58.816406 C 84.914062 58.398438 84.640625 58.023438 84.457031 57.671875 C 83.890625 56.566406 83.140625 55.566406 82.242188 54.707031 C 82.054688 54.53125 81.800781 54.445312 81.542969 54.480469 C 81.289062 54.511719 81.0625 54.660156 80.925781 54.878906 C 79.519531 56.742188 77.109375 58.234375 74.960938 59.304688 C 74.261719 59.65625 73.53125 59.921875 72.832031 60.261719 C 72.101562 60.613281 71.675781 61.304688 72.191406 62.054688 C 72.738281 62.851562 73.542969 63.488281 74.191406 64.195312 C 75.378906 65.488281 76.667969 66.695312 77.804688 68.039062 C 78.132812 68.363281 78.660156 68.363281 78.992188 68.039062 C 79.308594 67.710938 79.308594 67.183594 78.992188 66.851562 C 77.921875 65.589844 76.714844 64.453125 75.59375 63.242188 C 75.109375 62.71875 74.625 62.203125 74.121094 61.703125 C 73.984375 61.566406 73.851562 61.429688 73.714844 61.296875 C 73.660156 61.242188 73.539062 61.066406 73.710938 61.3125 C 73.691406 61.28125 73.578125 61.089844 73.59375 61.144531 L 73.59375 61.59375 L 73.617188 61.496094 L 73.402344 61.867188 C 73.316406 61.964844 73.488281 61.804688 73.550781 61.773438 C 73.617188 61.738281 73.683594 61.707031 73.75 61.675781 C 74.03125 61.546875 74.324219 61.4375 74.605469 61.316406 C 75.105469 61.097656 75.597656 60.863281 76.082031 60.617188 C 76.972656 60.160156 77.835938 59.648438 78.664062 59.085938 C 80.074219 58.175781 81.328125 57.042969 82.375 55.726562 L 81.058594 55.894531 C 81.972656 56.796875 82.71875 57.851562 83.265625 59.015625 L 83.265625 58.167969 C 81.84375 61.292969 80.003906 64.214844 77.804688 66.855469 C 77.488281 67.1875 77.488281 67.710938 77.804688 68.042969 C 78.132812 68.363281 78.660156 68.363281 78.992188 68.039062 Z M 78.992188 68.039062 "/>
<path style=" stroke:none;fill-rule:nonzero;fill:rgb(12.941177%,9.019608%,8.235294%);fill-opacity:1;" d="M 66.191406 66.851562 C 63.992188 64.214844 62.152344 61.292969 60.730469 58.167969 L 60.730469 59.015625 C 61.277344 57.851562 62.023438 56.796875 62.9375 55.894531 L 61.621094 55.726562 C 62.664062 57.042969 63.917969 58.175781 65.332031 59.085938 C 66.160156 59.648438 67.023438 60.160156 67.914062 60.617188 C 68.371094 60.851562 68.839844 61.074219 69.316406 61.285156 C 69.597656 61.410156 69.886719 61.523438 70.171875 61.644531 C 70.265625 61.6875 70.351562 61.726562 70.441406 61.773438 C 70.5 61.804688 70.695312 61.984375 70.59375 61.867188 L 70.378906 61.496094 L 70.402344 61.59375 L 70.402344 61.144531 C 70.414062 61.089844 70.304688 61.28125 70.28125 61.3125 C 70.457031 61.066406 70.335938 61.242188 70.28125 61.296875 C 70.144531 61.429688 70.007812 61.566406 69.875 61.703125 C 69.367188 62.203125 68.886719 62.722656 68.402344 63.242188 C 67.277344 64.453125 66.070312 65.589844 65.003906 66.851562 C 64.6875 67.1875 64.6875 67.707031 65.003906 68.042969 C 65.332031 68.363281 65.863281 68.363281 66.191406 68.042969 C 67.1875 66.859375 68.3125 65.789062 69.371094 64.664062 C 69.863281 64.140625 70.34375 63.609375 70.851562 63.101562 C 71.09375 62.855469 71.359375 62.621094 71.582031 62.355469 C 72.0625 61.78125 72.277344 61.015625 71.574219 60.5 C 70.996094 60.082031 70.238281 59.878906 69.59375 59.574219 C 68.261719 58.957031 66.984375 58.214844 65.785156 57.363281 C 64.765625 56.667969 63.851562 55.828125 63.070312 54.875 C 62.933594 54.65625 62.707031 54.511719 62.449219 54.476562 C 62.195312 54.445312 61.9375 54.527344 61.75 54.707031 C 60.851562 55.5625 60.105469 56.566406 59.539062 57.671875 C 59.371094 57.992188 59.128906 58.324219 59.179688 58.703125 C 59.269531 59.050781 59.414062 59.386719 59.601562 59.695312 C 59.890625 60.304688 60.191406 60.90625 60.507812 61.5 C 61.777344 63.828125 63.285156 66.019531 65.003906 68.039062 C 65.332031 68.363281 65.859375 68.363281 66.191406 68.039062 C 66.507812 67.707031 66.507812 67.183594 66.191406 66.851562 Z M 66.191406 66.851562 "/>
<path style=" stroke:none;fill-rule:nonzero;fill:rgb(12.941177%,9.019608%,8.235294%);fill-opacity:1;" d="M 83.496094 60.84375 C 83.628906 60.984375 83.53125 60.863281 83.609375 60.972656 C 83.671875 61.0625 83.730469 61.160156 83.789062 61.253906 C 83.945312 61.511719 84.082031 61.777344 84.214844 62.046875 C 84.453125 62.535156 84.660156 63.035156 84.835938 63.550781 C 86.046875 67.535156 86.582031 71.699219 86.414062 75.859375 C 86.320312 77.625 86.113281 79.378906 85.851562 81.125 C 85.742188 81.570312 86 82.023438 86.4375 82.15625 C 86.882812 82.277344 87.34375 82.015625 87.46875 81.570312 C 87.933594 78.457031 88.265625 75.308594 88.089844 72.15625 C 87.921875 69.144531 87.390625 66.164062 86.511719 63.28125 C 86.292969 62.605469 86.027344 61.945312 85.714844 61.308594 C 85.460938 60.707031 85.113281 60.152344 84.683594 59.65625 C 83.9375 58.875 82.753906 60.0625 83.496094 60.84375 Z M 83.496094 60.84375 "/>
<path style=" stroke:none;fill-rule:nonzero;fill:rgb(100%,100%,100%);fill-opacity:1;" d="M 19.761719 81.011719 C 19.625 79.867188 19.496094 77.847656 19.441406 77.507812 C 20.410156 77.425781 28.285156 76.773438 31.574219 76.089844 C 31.71875 76.808594 31.957031 78.550781 32.132812 79.5 "/>
<path style=" stroke:none;fill-rule:nonzero;fill:rgb(100%,100%,100%);fill-opacity:1;" d="M 19.957031 77.464844 L 19.441406 77.507812 C 19.496094 77.851562 19.625 79.871094 19.761719 81.011719 C 19.761719 81.011719 19.765625 81.039062 19.765625 81.085938 C 23.339844 81.121094 28.386719 80.417969 32.167969 79.707031 C 32.144531 79.578125 32.132812 79.5 32.132812 79.5 C 31.953125 78.554688 31.71875 76.8125 31.574219 76.089844 C 28.632812 76.699219 22.003906 77.289062 19.957031 77.464844 Z M 19.957031 77.464844 "/>
<path style=" stroke:none;fill-rule:nonzero;fill:rgb(12.941177%,9.019608%,8.235294%);fill-opacity:1;" d="M 20.601562 81.011719 C 20.457031 79.773438 20.429688 78.519531 20.253906 77.285156 L 19.441406 78.347656 C 22.640625 78.074219 25.84375 77.777344 29.023438 77.347656 C 29.953125 77.222656 30.882812 77.085938 31.800781 76.898438 L 30.765625 76.3125 C 30.984375 77.441406 31.117188 78.589844 31.324219 79.722656 C 31.449219 80.164062 31.910156 80.425781 32.355469 80.308594 C 32.796875 80.175781 33.054688 79.722656 32.941406 79.273438 C 32.734375 78.140625 32.605469 76.996094 32.386719 75.863281 C 32.253906 75.421875 31.796875 75.164062 31.351562 75.28125 C 27.957031 75.980469 24.441406 76.226562 20.96875 76.535156 C 20.460938 76.582031 19.949219 76.625 19.441406 76.667969 C 19.183594 76.675781 18.941406 76.800781 18.785156 77.003906 C 18.625 77.210938 18.570312 77.476562 18.632812 77.730469 C 18.605469 77.519531 18.617188 77.613281 18.632812 77.75 C 18.640625 77.867188 18.652344 77.988281 18.664062 78.105469 C 18.6875 78.410156 18.710938 78.714844 18.738281 79.019531 C 18.792969 79.683594 18.847656 80.347656 18.921875 81.011719 C 18.9375 81.46875 19.304688 81.835938 19.761719 81.847656 C 20.226562 81.847656 20.597656 81.472656 20.601562 81.011719 Z M 20.601562 81.011719 "/>
<path style=" stroke:none;fill-rule:nonzero;fill:rgb(12.941177%,9.019608%,8.235294%);fill-opacity:1;" d="M 36.25 96.605469 C 35.441406 90.910156 34.855469 85.183594 34.261719 79.457031 C 34.253906 79.199219 34.132812 78.957031 33.925781 78.800781 C 33.71875 78.640625 33.453125 78.585938 33.199219 78.648438 C 30.75 79.148438 28.277344 79.554688 25.792969 79.847656 C 23.394531 80.183594 20.96875 80.300781 18.550781 80.195312 C 18.089844 80.199219 17.714844 80.574219 17.710938 81.035156 C 17.792969 85.179688 17.824219 89.328125 18.042969 93.464844 C 18.15625 95.542969 18.3125 97.621094 18.550781 99.6875 C 18.722656 101.449219 19.015625 103.199219 19.433594 104.921875 C 20.242188 108.046875 21.765625 110.992188 24.441406 112.898438 C 27.5625 115.089844 31.511719 115.738281 35.171875 114.660156 C 36.96875 114.058594 38.671875 113.207031 40.234375 112.132812 C 41.753906 111.152344 43.207031 110.082031 44.679688 109.035156 C 45.070312 108.792969 45.203125 108.289062 44.980469 107.886719 C 44.746094 107.488281 44.234375 107.355469 43.832031 107.585938 C 41.289062 109.394531 38.75 111.421875 35.851562 112.644531 C 32.726562 113.953125 29.171875 113.730469 26.234375 112.046875 C 23.566406 110.535156 22.03125 107.917969 21.203125 105.039062 C 20.214844 101.605469 19.988281 97.941406 19.773438 94.394531 C 19.503906 89.945312 19.472656 85.492188 19.390625 81.039062 L 18.550781 81.875 C 21.015625 81.980469 23.488281 81.859375 25.929688 81.507812 C 28.515625 81.199219 31.089844 80.785156 33.644531 80.265625 L 32.582031 79.457031 C 33.195312 85.332031 33.800781 91.203125 34.632812 97.050781 C 34.757812 97.496094 35.21875 97.757812 35.664062 97.636719 C 36.101562 97.503906 36.359375 97.050781 36.25 96.605469 Z M 36.25 96.605469 "/>
<path style=" stroke:none;fill-rule:nonzero;fill:rgb(12.941177%,9.019608%,8.235294%);fill-opacity:1;" d="M 27.296875 54.539062 C 27.296875 50.894531 27.300781 47.246094 27.3125 43.601562 C 27.3125 42.585938 27.3125 41.570312 27.316406 40.554688 C 27.316406 39.476562 25.636719 39.476562 25.636719 40.554688 C 25.632812 44.542969 25.628906 48.527344 25.621094 52.511719 C 25.621094 53.1875 25.621094 53.863281 25.621094 54.539062 C 25.621094 55.617188 27.296875 55.621094 27.296875 54.539062 Z M 27.296875 54.539062 "/>
<path style=" stroke:none;fill-rule:nonzero;fill:rgb(12.941177%,9.019608%,8.235294%);fill-opacity:1;" d="M 23.945312 53.3125 C 23.945312 50.003906 23.949219 46.695312 23.960938 43.386719 C 23.960938 42.4375 23.960938 41.488281 23.960938 40.539062 C 23.960938 39.460938 22.285156 39.457031 22.285156 40.539062 C 22.28125 44.175781 22.277344 47.816406 22.269531 51.453125 C 22.269531 52.074219 22.269531 52.691406 22.269531 53.3125 C 22.269531 54.390625 23.945312 54.394531 23.945312 53.3125 Z M 23.945312 53.3125 "/>
<path style=" stroke:none;fill-rule:nonzero;fill:rgb(100%,100%,100%);fill-opacity:1;" d="M 24.875 12.410156 C 16.558594 12.410156 10.8125 18.847656 10.8125 26.382812 C 10.8125 35.105469 16.25 40.621094 24.875 40.621094 C 33.699219 40.621094 38.9375 35.105469 38.9375 26.382812 C 38.9375 18.796875 33.160156 12.410156 24.875 12.410156 Z M 24.875 12.410156 "/>
<path style=" stroke:none;fill-rule:nonzero;fill:rgb(12.941177%,9.019608%,8.235294%);fill-opacity:1;" d="M 24.875 11.570312 C 21.515625 11.550781 18.246094 12.648438 15.578125 14.6875 C 13.152344 16.597656 11.394531 19.226562 10.554688 22.199219 C 9.714844 25.3125 9.769531 28.59375 10.710938 31.675781 C 11.519531 34.445312 13.191406 36.882812 15.488281 38.632812 C 17.875 40.425781 20.839844 41.261719 23.789062 41.429688 C 26.875 41.601562 30.085938 41.097656 32.824219 39.613281 C 38.15625 36.722656 40.386719 30.332031 39.660156 24.523438 C 39.28125 21.359375 37.902344 18.398438 35.71875 16.078125 C 33.515625 13.78125 30.613281 12.269531 27.46875 11.78125 C 26.609375 11.644531 25.742188 11.574219 24.875 11.570312 C 23.792969 11.566406 23.792969 13.246094 24.875 13.25 C 27.820312 13.222656 30.695312 14.164062 33.058594 15.925781 C 35.273438 17.644531 36.867188 20.035156 37.605469 22.738281 C 38.324219 25.496094 38.277344 28.398438 37.46875 31.136719 C 36.824219 33.515625 35.4375 35.632812 33.511719 37.175781 C 31.390625 38.8125 28.757812 39.585938 26.09375 39.746094 C 23.339844 39.910156 20.46875 39.53125 18.027344 38.253906 C 15.804688 37.09375 14.027344 35.226562 12.976562 32.949219 C 11.816406 30.34375 11.394531 27.476562 11.753906 24.648438 C 12.09375 21.910156 13.289062 19.347656 15.167969 17.324219 C 17.148438 15.238281 19.757812 13.867188 22.597656 13.417969 C 23.351562 13.300781 24.113281 13.246094 24.875 13.246094 C 25.953125 13.242188 25.957031 11.566406 24.875 11.570312 Z M 24.875 11.570312 "/>
<path style=" stroke:none;fill-rule:nonzero;fill:rgb(94.901961%,38.82353%,37.254903%);fill-opacity:1;" d="M 24.875 18.3125 C 21.230469 18.292969 18.015625 20.695312 17 24.191406 C 16.101562 27.394531 17.085938 31.144531 19.777344 33.175781 C 22.367188 35.132812 26.425781 35.222656 29.234375 33.6875 C 32.101562 32.117188 33.378906 28.667969 32.996094 25.523438 C 32.789062 23.585938 31.894531 21.785156 30.476562 20.453125 C 28.9375 19.070312 26.941406 18.304688 24.875 18.3125 C 24.179688 18.3125 23.613281 18.875 23.613281 19.570312 C 23.613281 20.265625 24.179688 20.828125 24.875 20.828125 C 25.0625 20.828125 25.253906 20.835938 25.445312 20.851562 C 25.550781 20.859375 25.652344 20.867188 25.753906 20.878906 C 25.699219 20.875 25.535156 20.839844 25.785156 20.886719 C 26.15625 20.949219 26.523438 21.042969 26.878906 21.160156 C 26.972656 21.191406 27.0625 21.226562 27.15625 21.257812 C 27.195312 21.273438 27.375 21.355469 27.171875 21.265625 C 27.3125 21.328125 27.449219 21.394531 27.582031 21.464844 C 27.75 21.550781 27.910156 21.648438 28.070312 21.75 C 28.132812 21.789062 28.195312 21.832031 28.257812 21.875 C 28.300781 21.90625 28.5625 22.101562 28.359375 21.945312 C 28.605469 22.140625 28.839844 22.351562 29.054688 22.582031 C 29.167969 22.703125 29.273438 22.824219 29.378906 22.953125 C 29.234375 22.78125 29.359375 22.925781 29.386719 22.960938 C 29.449219 23.054688 29.511719 23.140625 29.574219 23.234375 C 29.753906 23.515625 29.914062 23.804688 30.058594 24.105469 C 30.082031 24.144531 30.15625 24.324219 30.066406 24.109375 C 30.09375 24.179688 30.121094 24.25 30.148438 24.320312 C 30.210938 24.496094 30.269531 24.675781 30.320312 24.855469 C 30.375 25.035156 30.417969 25.21875 30.453125 25.40625 C 30.46875 25.488281 30.523438 25.890625 30.496094 25.636719 C 30.535156 26.011719 30.546875 26.382812 30.535156 26.757812 C 30.53125 26.933594 30.523438 27.113281 30.507812 27.289062 C 30.5 27.367188 30.492188 27.445312 30.484375 27.523438 C 30.453125 27.886719 30.511719 27.367188 30.476562 27.582031 C 30.425781 27.925781 30.351562 28.265625 30.253906 28.597656 C 30.214844 28.734375 30.171875 28.867188 30.125 29 C 30.09375 29.082031 30.0625 29.164062 30.03125 29.242188 C 29.957031 29.433594 30.164062 28.980469 30.015625 29.273438 C 29.886719 29.542969 29.742188 29.804688 29.582031 30.058594 C 29.542969 30.121094 29.304688 30.441406 29.394531 30.328125 C 29.484375 30.21875 29.226562 30.519531 29.175781 30.574219 C 29.089844 30.667969 29 30.761719 28.902344 30.851562 C 28.84375 30.90625 28.785156 30.960938 28.722656 31.011719 C 28.695312 31.035156 28.441406 31.234375 28.582031 31.128906 C 28.71875 31.027344 28.546875 31.152344 28.511719 31.175781 C 28.441406 31.21875 28.378906 31.269531 28.308594 31.3125 C 28.195312 31.382812 28.082031 31.449219 27.964844 31.515625 C 27.832031 31.585938 27.695312 31.652344 27.558594 31.71875 C 27.375 31.804688 27.839844 31.617188 27.527344 31.730469 C 27.429688 31.765625 27.332031 31.804688 27.234375 31.839844 C 26.941406 31.9375 26.644531 32.015625 26.347656 32.078125 C 26.273438 32.089844 25.804688 32.167969 26.066406 32.132812 C 25.871094 32.160156 25.675781 32.175781 25.480469 32.1875 C 25.117188 32.210938 24.753906 32.210938 24.390625 32.195312 C 24.234375 32.1875 24.078125 32.167969 23.921875 32.160156 C 23.671875 32.140625 23.859375 32.152344 23.914062 32.160156 C 23.804688 32.144531 23.691406 32.128906 23.582031 32.105469 C 23.261719 32.046875 22.945312 31.964844 22.632812 31.863281 C 22.566406 31.84375 22.5 31.820312 22.433594 31.796875 C 22.433594 31.796875 22.113281 31.671875 22.292969 31.746094 C 22.445312 31.804688 22.242188 31.722656 22.207031 31.707031 C 22.113281 31.660156 22.023438 31.617188 21.933594 31.570312 C 21.683594 31.433594 21.441406 31.285156 21.207031 31.125 C 20.941406 30.945312 21.335938 31.238281 21.1875 31.109375 C 21.121094 31.058594 21.058594 31.003906 20.996094 30.949219 C 20.875 30.839844 20.753906 30.726562 20.640625 30.609375 C 20.550781 30.511719 20.46875 30.410156 20.378906 30.3125 C 20.167969 30.078125 20.476562 30.457031 20.363281 30.296875 C 20.324219 30.242188 20.285156 30.1875 20.246094 30.132812 C 20.066406 29.867188 19.90625 29.589844 19.765625 29.300781 C 19.734375 29.238281 19.707031 29.175781 19.679688 29.113281 C 19.789062 29.355469 19.691406 29.140625 19.667969 29.074219 C 19.613281 28.925781 19.558594 28.773438 19.511719 28.621094 C 19.417969 28.300781 19.351562 27.980469 19.289062 27.652344 C 19.21875 27.296875 19.300781 27.8125 19.277344 27.589844 C 19.265625 27.492188 19.253906 27.394531 19.246094 27.296875 C 19.230469 27.140625 19.222656 26.980469 19.214844 26.820312 C 19.203125 26.445312 19.214844 26.074219 19.25 25.699219 C 19.269531 25.480469 19.191406 25.996094 19.257812 25.636719 C 19.277344 25.523438 19.296875 25.414062 19.320312 25.300781 C 19.359375 25.117188 19.40625 24.933594 19.460938 24.753906 C 19.511719 24.574219 19.578125 24.402344 19.640625 24.226562 C 19.722656 23.996094 19.664062 24.171875 19.640625 24.21875 C 19.6875 24.117188 19.734375 24.015625 19.785156 23.917969 C 19.953125 23.589844 20.144531 23.273438 20.359375 22.972656 C 20.5625 22.683594 20.261719 23.085938 20.398438 22.921875 C 20.46875 22.835938 20.542969 22.753906 20.617188 22.671875 C 20.738281 22.535156 20.871094 22.402344 21.003906 22.277344 C 21.070312 22.214844 21.140625 22.152344 21.210938 22.09375 C 21.253906 22.058594 21.507812 21.859375 21.304688 22.011719 C 21.453125 21.898438 21.609375 21.792969 21.765625 21.695312 C 21.925781 21.597656 22.089844 21.503906 22.257812 21.417969 C 22.328125 21.382812 22.394531 21.351562 22.464844 21.316406 C 22.785156 21.152344 22.246094 21.386719 22.585938 21.261719 C 22.957031 21.125 23.335938 21.011719 23.722656 20.929688 C 23.820312 20.910156 23.917969 20.894531 24.019531 20.878906 C 24.109375 20.863281 24.101562 20.863281 23.988281 20.878906 C 24.050781 20.871094 24.113281 20.867188 24.175781 20.859375 C 24.410156 20.839844 24.640625 20.832031 24.875 20.828125 C 25.570312 20.828125 26.132812 20.265625 26.132812 19.570312 C 26.132812 18.875 25.570312 18.3125 24.875 18.3125 Z M 24.875 18.3125 "/>
<path style=" stroke:none;fill-rule:nonzero;fill:rgb(12.941177%,9.019608%,8.235294%);fill-opacity:1;" d="M 69.378906 31.476562 C 69.378906 31.523438 69.386719 31.566406 69.382812 31.613281 L 71.03125 31.390625 C 70.9375 30.664062 70.542969 30.011719 69.941406 29.59375 C 69.347656 29.214844 68.6875 28.945312 68 28.789062 C 66.527344 28.429688 65.007812 28.300781 63.496094 28.410156 C 61.964844 28.445312 60.453125 28.734375 59.015625 29.261719 C 58.324219 29.511719 57.75 30.011719 57.410156 30.664062 C 57.132812 31.324219 57.011719 32.039062 57.050781 32.753906 C 57.035156 34.078125 57.390625 35.386719 58.078125 36.523438 C 58.792969 37.59375 59.996094 38.171875 61.1875 38.554688 C 62.320312 38.898438 63.507812 39.019531 64.6875 38.917969 C 65.960938 38.875 67.21875 38.601562 68.398438 38.117188 C 71.003906 36.960938 71.402344 33.75 71.027344 31.253906 C 70.898438 30.808594 70.441406 30.546875 69.992188 30.667969 C 69.554688 30.796875 69.296875 31.253906 69.40625 31.699219 C 69.636719 33.210938 69.527344 35.316406 68.183594 36.320312 C 67.496094 36.832031 66.476562 37.058594 65.636719 37.167969 C 64.726562 37.304688 63.804688 37.328125 62.890625 37.238281 C 61.886719 37.117188 60.925781 36.761719 60.082031 36.203125 C 59.316406 35.691406 59.015625 34.742188 58.84375 33.875 C 58.753906 33.40625 58.71875 32.929688 58.730469 32.453125 C 58.746094 31.972656 58.765625 31.40625 59.167969 31.082031 C 59.554688 30.820312 59.996094 30.640625 60.457031 30.5625 C 61.109375 30.382812 61.777344 30.253906 62.453125 30.175781 C 63.84375 29.992188 65.257812 30.003906 66.644531 30.210938 C 67.308594 30.308594 67.957031 30.488281 68.574219 30.746094 C 68.796875 30.824219 69 30.949219 69.167969 31.113281 C 69.3125 31.324219 69.398438 31.574219 69.414062 31.835938 C 69.589844 32.800781 71.023438 32.515625 71.0625 31.609375 C 71.0625 31.566406 71.054688 31.519531 71.054688 31.476562 C 71.097656 30.398438 69.417969 30.398438 69.378906 31.476562 Z M 69.378906 31.476562 "/>
<path style=" stroke:none;fill-rule:nonzero;fill:rgb(12.941177%,9.019608%,8.235294%);fill-opacity:1;" d="M 73.554688 31.476562 C 73.554688 31.523438 73.546875 31.566406 73.546875 31.613281 C 73.554688 32.027344 73.863281 32.378906 74.277344 32.4375 C 74.691406 32.496094 75.085938 32.238281 75.195312 31.835938 C 75.210938 31.382812 75.484375 30.984375 75.902344 30.8125 C 76.414062 30.574219 76.953125 30.402344 77.507812 30.300781 C 78.722656 30.066406 79.960938 29.996094 81.195312 30.09375 C 82.457031 30.136719 83.707031 30.371094 84.902344 30.785156 C 85.328125 30.902344 85.664062 31.234375 85.789062 31.660156 C 85.894531 32.160156 85.917969 32.679688 85.859375 33.1875 C 85.792969 34.078125 85.558594 35.152344 84.953125 35.847656 C 84.324219 36.566406 83.316406 36.867188 82.445312 37.089844 C 80.625 37.417969 78.75 37.265625 77.007812 36.648438 C 75.15625 35.867188 74.9375 33.429688 75.199219 31.699219 C 75.308594 31.253906 75.050781 30.800781 74.613281 30.664062 C 74.167969 30.546875 73.707031 30.808594 73.582031 31.25 C 73.238281 33.539062 73.5 36.277344 75.535156 37.734375 C 76.496094 38.421875 77.816406 38.714844 78.972656 38.84375 C 80.132812 39.007812 81.304688 38.992188 82.460938 38.804688 C 83.75 38.589844 84.960938 38.035156 85.96875 37.203125 C 86.898438 36.371094 87.304688 34.992188 87.46875 33.796875 C 87.652344 32.476562 87.683594 30.800781 86.578125 29.851562 C 85.996094 29.402344 85.320312 29.089844 84.601562 28.941406 C 83.824219 28.742188 83.035156 28.59375 82.238281 28.503906 C 80.539062 28.285156 78.816406 28.339844 77.136719 28.664062 C 76.347656 28.808594 75.589844 29.074219 74.886719 29.453125 C 74.171875 29.855469 73.6875 30.574219 73.578125 31.386719 L 75.226562 31.609375 C 75.222656 31.5625 75.230469 31.519531 75.230469 31.472656 C 75.191406 30.402344 73.515625 30.394531 73.554688 31.476562 Z M 73.554688 31.476562 "/>
<path style=" stroke:none;fill-rule:nonzero;fill:rgb(12.941177%,9.019608%,8.235294%);fill-opacity:1;" d="M 70.855469 32.824219 C 71.007812 32.785156 71.160156 32.75 71.3125 32.722656 C 71.378906 32.710938 71.445312 32.699219 71.511719 32.691406 C 71.734375 32.65625 71.328125 32.707031 71.554688 32.683594 C 71.84375 32.65625 72.132812 32.644531 72.421875 32.644531 C 72.554688 32.648438 72.6875 32.652344 72.824219 32.664062 C 72.898438 32.667969 72.976562 32.675781 73.054688 32.6875 C 73.089844 32.691406 73.121094 32.691406 73.15625 32.699219 C 73.042969 32.683594 73.035156 32.679688 73.132812 32.695312 C 73.417969 32.742188 73.703125 32.808594 73.984375 32.882812 C 74.429688 33.007812 74.890625 32.746094 75.015625 32.296875 C 75.136719 31.851562 74.875 31.390625 74.429688 31.265625 C 73.117188 30.894531 71.730469 30.875 70.410156 31.203125 C 69.964844 31.332031 69.703125 31.789062 69.824219 32.234375 C 69.953125 32.675781 70.410156 32.9375 70.855469 32.824219 Z M 70.855469 32.824219 "/>
<path style=" stroke:none;fill-rule:nonzero;fill:rgb(12.941177%,9.019608%,8.235294%);fill-opacity:1;" d="M 58.097656 30.828125 C 57.523438 30.695312 56.933594 30.636719 56.34375 30.652344 C 56.121094 30.65625 55.910156 30.742188 55.75 30.898438 C 55.507812 31.136719 55.433594 31.5 55.566406 31.8125 C 55.695312 32.125 56.003906 32.332031 56.34375 32.332031 C 56.679688 32.320312 57.015625 32.335938 57.351562 32.382812 L 57.125 32.351562 C 57.304688 32.375 57.476562 32.40625 57.652344 32.445312 C 57.871094 32.5 58.101562 32.472656 58.296875 32.363281 C 58.699219 32.128906 58.832031 31.613281 58.597656 31.214844 C 58.488281 31.027344 58.308594 30.886719 58.097656 30.828125 Z M 58.097656 30.828125 "/>
<path style=" stroke:none;fill-rule:nonzero;fill:rgb(12.941177%,9.019608%,8.235294%);fill-opacity:1;" d="M 86.976562 32.445312 C 87.152344 32.40625 87.328125 32.375 87.503906 32.351562 L 87.28125 32.378906 C 87.613281 32.335938 87.949219 32.320312 88.285156 32.328125 C 88.625 32.332031 88.933594 32.125 89.0625 31.8125 C 89.195312 31.5 89.121094 31.136719 88.878906 30.898438 C 88.71875 30.746094 88.507812 30.65625 88.285156 30.652344 C 87.695312 30.636719 87.105469 30.695312 86.53125 30.828125 C 86.207031 30.917969 85.964844 31.191406 85.921875 31.527344 C 85.878906 31.863281 86.039062 32.191406 86.332031 32.359375 C 86.527344 32.46875 86.757812 32.496094 86.976562 32.445312 Z M 86.976562 32.445312 "/>
<path style=" stroke:none;fill-rule:nonzero;fill:rgb(12.941177%,9.019608%,8.235294%);fill-opacity:1;" d="M 68.179688 45.320312 C 69.234375 46.351562 70.90625 46.652344 72.320312 46.652344 C 73.734375 46.652344 75.40625 46.355469 76.460938 45.324219 C 77.234375 44.566406 76.050781 43.378906 75.277344 44.136719 C 75.242188 44.171875 75.066406 44.320312 75.171875 44.234375 C 75.269531 44.160156 75.042969 44.320312 74.992188 44.355469 C 74.898438 44.410156 74.804688 44.460938 74.707031 44.511719 C 74.640625 44.542969 74.578125 44.574219 74.511719 44.601562 C 74.625 44.554688 74.507812 44.601562 74.453125 44.621094 C 73.769531 44.863281 73.046875 44.980469 72.320312 44.972656 C 71.609375 44.984375 70.898438 44.867188 70.226562 44.632812 C 70.21875 44.628906 69.972656 44.527344 70.132812 44.597656 C 70.078125 44.574219 70.023438 44.546875 69.96875 44.519531 C 69.859375 44.46875 69.753906 44.410156 69.652344 44.347656 C 69.574219 44.300781 69.5 44.246094 69.425781 44.195312 C 69.640625 44.339844 69.417969 44.179688 69.367188 44.128906 C 68.59375 43.375 67.410156 44.558594 68.179688 45.316406 Z M 68.179688 45.320312 "/>
<path style=" stroke:none;fill-rule:nonzero;fill:rgb(12.941177%,9.019608%,8.235294%);fill-opacity:1;" d="M 71.894531 37.519531 C 72.058594 38.121094 72.191406 38.730469 72.292969 39.347656 L 72.261719 39.125 C 72.273438 39.207031 72.277344 39.292969 72.269531 39.375 L 72.296875 39.152344 C 72.292969 39.191406 72.285156 39.230469 72.269531 39.265625 L 72.355469 39.066406 C 72.34375 39.089844 72.332031 39.117188 72.316406 39.136719 L 72.445312 38.96875 C 72.429688 38.992188 72.410156 39.011719 72.386719 39.027344 L 72.558594 38.894531 C 72.511719 38.925781 72.460938 38.949219 72.410156 38.972656 L 72.613281 38.886719 C 72.535156 38.921875 72.453125 38.945312 72.367188 38.957031 L 72.589844 38.929688 C 72.515625 38.9375 72.4375 38.9375 72.363281 38.929688 L 72.585938 38.957031 C 72.5 38.945312 72.414062 38.925781 72.328125 38.914062 C 72.109375 38.863281 71.878906 38.890625 71.679688 38.996094 C 71.28125 39.230469 71.144531 39.746094 71.378906 40.144531 C 71.488281 40.335938 71.667969 40.476562 71.882812 40.53125 C 72.070312 40.554688 72.25 40.605469 72.441406 40.613281 C 72.726562 40.613281 73.003906 40.546875 73.257812 40.417969 C 73.578125 40.277344 73.816406 39.996094 73.90625 39.65625 C 73.960938 39.378906 73.960938 39.09375 73.898438 38.820312 C 73.796875 38.230469 73.660156 37.648438 73.511719 37.074219 C 73.390625 36.625 72.925781 36.363281 72.480469 36.488281 C 72.035156 36.609375 71.769531 37.074219 71.894531 37.519531 Z M 71.894531 37.519531 "/>
<path style=" stroke:none;fill-rule:nonzero;fill:rgb(12.941177%,9.019608%,8.235294%);fill-opacity:1;" d="M 62.558594 32.453125 C 62.273438 33.382812 62.457031 35.523438 64.21875 35.707031 C 66.550781 35.695312 66.675781 33.105469 65.890625 31.890625 C 65.25 30.894531 63.363281 30.476562 62.558594 32.453125 Z M 62.558594 32.453125 "/>
<path style=" stroke:none;fill-rule:nonzero;fill:rgb(12.941177%,9.019608%,8.235294%);fill-opacity:1;" d="M 81.761719 32.464844 C 82.050781 33.394531 81.863281 35.535156 80.097656 35.714844 C 77.769531 35.699219 77.644531 33.113281 78.429688 31.894531 C 79.074219 30.902344 80.960938 30.488281 81.761719 32.464844 Z M 81.761719 32.464844 "/>
</g>
</svg>
