<?xml version="1.0" encoding="UTF-8"?>
<svg xmlns="http://www.w3.org/2000/svg" xmlns:xlink="http://www.w3.org/1999/xlink" width="127px" height="126px" viewBox="0 0 126 126" version="1.1">
<g id="surface1">
<path style=" stroke:none;fill-rule:nonzero;fill:rgb(100%,100%,100%);fill-opacity:1;" d="M 46.617188 125.078125 C 47.015625 119.640625 47.988281 110.722656 47.992188 108.03125 L 47.292969 108.527344 C 45.132812 110.0625 41.644531 112.703125 38.878906 113.703125 C 35.632812 114.898438 32.011719 114.527344 29.074219 112.695312 C 25.183594 110.355469 23.867188 105.9375 23.273438 101.433594 C 22.425781 94.953125 22.421875 87.957031 22.304688 81.699219 C 26.242188 81.976562 33.023438 80.953125 37.144531 80.089844 C 37.734375 78.085938 38.398438 75.972656 39.410156 73.339844 C 39.90625 72.097656 40.640625 70.96875 41.574219 70.007812 C 42.535156 69.089844 43.652344 68.34375 44.875 67.808594 C 48.433594 66.085938 52.730469 64.878906 56.265625 63.070312 L 59.929688 61.664062 C 60.453125 64.816406 61.457031 69.25 62.558594 72.253906 C 63.398438 74.535156 66.144531 82.3125 68.015625 86.757812 C 69.425781 90.09375 71.011719 93.351562 72.773438 96.519531 C 77.394531 85.996094 83.015625 75.046875 84.335938 61.785156 L 89.148438 63.707031 C 92.070312 65.398438 96.328125 67.316406 99.609375 68.902344 C 100.882812 69.550781 102.085938 70.335938 103.199219 71.234375 C 104.5625 72.457031 105.554688 74.039062 106.054688 75.800781 C 108.207031 82.972656 109.191406 102.425781 110.332031 125.074219 "/>
<path style=" stroke:none;fill-rule:nonzero;fill:rgb(100%,100%,100%);fill-opacity:1;" d="M 23.863281 75.082031 C 23.910156 75.632812 24.003906 76.421875 24.015625 77.34375 C 24.015625 77.34375 24.019531 77.550781 24.019531 77.851562 C 25.84375 77.695312 30.460938 77.28125 33.46875 76.8125 L 33.535156 76.277344 C 33.6875 75.449219 33.78125 74.613281 33.808594 73.773438 C 33.808594 73.773438 33.808594 73.53125 33.808594 73.1875 C 34.917969 72.296875 35.882812 71.40625 36.484375 70.058594 C 37.234375 68.386719 37.5625 66.726562 37.984375 64.945312 C 38.292969 63.769531 38.5 62.570312 38.605469 61.363281 C 38.640625 60.882812 38.457031 60.417969 38.105469 60.089844 C 37.675781 59.929688 37.203125 59.917969 36.769531 60.066406 C 36.273438 60.300781 35.808594 61.214844 35.332031 62.164062 C 34.957031 63.046875 34.445312 63.863281 33.820312 64.585938 C 33.164062 65.230469 32.121094 65.265625 31.425781 64.667969 C 30.996094 64.167969 30.75 63.539062 30.734375 62.882812 C 30.675781 62.070312 30.652344 61.441406 31.035156 60.722656 C 31.417969 60.003906 32.257812 59.527344 32.863281 59.644531 C 33.328125 59.734375 34.34375 60.09375 34.816406 60.09375 C 35.261719 60.078125 35.675781 59.867188 35.953125 59.519531 C 36.230469 59.175781 36.34375 58.722656 36.261719 58.289062 C 36.140625 57.75 34.902344 57.238281 34.226562 56.871094 C 33.464844 56.460938 32.734375 55.949219 31.875 55.980469 C 30.8125 56.085938 29.828125 56.59375 29.128906 57.402344 C 28.519531 58 27.972656 58.667969 27.507812 59.386719 C 26.144531 56.441406 23.441406 51.011719 22.746094 49.898438 C 22.417969 49.28125 21.734375 48.941406 21.042969 49.050781 C 20.3125 49.210938 19.851562 50.050781 19.832031 50.714844 C 19.984375 51.570312 20.238281 52.402344 20.585938 53.199219 L 20.859375 53.863281 L 20.71875 53.65625 C 20.15625 52.828125 19.851562 52.160156 19.050781 52.007812 C 18.753906 51.957031 18.449219 51.972656 18.160156 52.058594 C 17.855469 52.207031 17.613281 52.464844 17.492188 52.78125 C 17.238281 53.445312 17.515625 54.3125 17.777344 54.929688 C 18.089844 55.667969 20.03125 60.011719 20.40625 60.867188 L 21.519531 63.4375 L 21.707031 63.875 C 20.710938 62.390625 19.710938 61 18.769531 59.457031 C 18.535156 58.953125 18.148438 58.535156 17.667969 58.253906 C 17.132812 57.921875 16.433594 58.0625 16.066406 58.574219 C 15.691406 59.058594 15.566406 59.691406 15.726562 60.285156 C 15.964844 60.925781 16.265625 61.542969 16.628906 62.125 C 17.820312 64.3125 18.964844 66.203125 20.089844 68.425781 C 21.414062 70.644531 23.734375 74.683594 23.835938 75.273438 "/>
<path style=" stroke:none;fill-rule:nonzero;fill:rgb(70.980394%,53.333336%,41.568628%);fill-opacity:1;" d="M 58.027344 49.898438 C 56.824219 48.3125 55.882812 46.542969 55.238281 44.65625 C 54.863281 47.121094 53.511719 48.164062 52.050781 49.164062 C 50.726562 50.082031 49.28125 50.941406 48.429688 52.695312 C 47.804688 54.152344 47.523438 55.730469 47.609375 57.3125 C 47.652344 58.933594 48.949219 63.113281 50.5625 64.859375 L 50.917969 65.339844 C 52.75 64.707031 54.535156 63.949219 56.261719 63.070312 L 60.175781 61.796875 C 61.9375 60.707031 63.570312 59.519531 63.894531 58.710938 C 64.328125 57.644531 64.308594 56.238281 64.300781 54.992188 C 62.015625 53.949219 60.007812 52.382812 58.445312 50.417969 C 58.300781 50.246094 58.164062 50.074219 58.027344 49.898438 Z M 58.027344 49.898438 "/>
<path style=" stroke:none;fill-rule:nonzero;fill:rgb(100%,100%,100%);fill-opacity:1;" d="M 95.375 33.960938 C 95.351562 33.441406 95.21875 32.929688 94.984375 32.464844 C 94.578125 31.78125 93.882812 31.320312 93.09375 31.207031 C 92.289062 31.089844 91.476562 31.328125 90.863281 31.859375 C 90.863281 31.859375 91.347656 15.757812 71.882812 15.757812 C 52.417969 15.757812 53.480469 31.859375 53.480469 31.859375 C 52.867188 31.328125 52.054688 31.089844 51.25 31.207031 C 50.460938 31.316406 49.765625 31.78125 49.355469 32.464844 C 49.125 32.929688 48.992188 33.441406 48.96875 33.960938 C 48.796875 35.996094 49.191406 38.042969 50.105469 39.871094 C 50.535156 40.792969 51.160156 41.613281 51.9375 42.273438 C 52.746094 42.941406 53.761719 43.304688 54.8125 43.300781 C 55.503906 45.902344 56.742188 48.328125 58.445312 50.417969 C 60.007812 52.382812 62.015625 53.953125 64.300781 54.996094 L 64.300781 55 C 64.308594 56.238281 64.328125 57.644531 63.894531 58.714844 C 63.558594 59.550781 61.808594 60.800781 59.972656 61.925781 C 60.429688 64.582031 61.027344 67.214844 61.765625 69.808594 L 62.515625 70.007812 C 65.664062 70.839844 68.890625 71.304688 72.144531 71.390625 C 75.214844 71.398438 79.582031 70.914062 82.582031 69.722656 L 83.058594 69.53125 C 83.636719 67.023438 84.058594 64.484375 84.324219 61.929688 C 82.648438 60.800781 81.035156 59.550781 80.695312 58.710938 C 80.253906 57.625 80.28125 56.175781 80.289062 54.914062 C 84.957031 52.910156 88.714844 46.628906 89.367188 44.847656 C 89.46875 44.546875 89.667969 43.984375 89.847656 43.3125 L 90.222656 43.253906 C 91.023438 43.117188 91.773438 42.78125 92.40625 42.269531 C 93.183594 41.609375 93.808594 40.789062 94.238281 39.863281 C 95.148438 38.039062 95.542969 35.996094 95.375 33.960938 Z M 95.375 33.960938 "/>
<path style=" stroke:none;fill-rule:nonzero;fill:rgb(70.980394%,53.333336%,41.568628%);fill-opacity:1;" d="M 49.527344 28.503906 C 49.675781 29.324219 50.027344 30.699219 50.285156 31.550781 C 50.582031 31.375 50.90625 31.257812 51.246094 31.207031 C 51.863281 31.117188 52.492188 31.238281 53.035156 31.542969 C 55.972656 30.261719 58.042969 27.75 59.445312 25.761719 C 62.167969 21.894531 62.945312 19.203125 63.453125 16.488281 C 65.570312 19.273438 84.890625 29.789062 90.425781 30.625 L 91.382812 31.503906 C 91.90625 31.226562 92.507812 31.125 93.09375 31.207031 C 93.613281 31.285156 94.101562 31.515625 94.492188 31.863281 C 94.902344 29.03125 95.0625 26.167969 94.972656 23.308594 C 94.570312 17.527344 92.296875 11.046875 88.652344 7.457031 C 83.929688 2.800781 80.046875 0.941406 71.207031 0.941406 C 65.386719 0.949219 59.796875 3.199219 55.59375 7.222656 C 50.820312 11.890625 48.730469 18.425781 49.070312 24.417969 C 49.128906 25.765625 49.28125 27.105469 49.523438 28.429688 "/>
<path style=" stroke:none;fill-rule:nonzero;fill:rgb(47.450981%,77.64706%,87.843138%);fill-opacity:1;" d="M 70.835938 71.351562 C 68.027344 71.167969 65.242188 70.71875 62.519531 70.007812 L 61.765625 69.804688 C 62.019531 70.683594 62.289062 71.511719 62.558594 72.253906 C 63.398438 74.539062 66.144531 82.3125 68.015625 86.753906 C 69.421875 90.09375 71.011719 93.351562 72.773438 96.515625 C 76.460938 88.121094 80.785156 79.449219 83.054688 69.546875 L 82.582031 69.71875 C 79.582031 70.910156 75.214844 71.394531 72.144531 71.386719 C 71.726562 71.390625 71.285156 71.375 70.835938 71.351562 Z M 70.835938 71.351562 "/>
<path style=" stroke:none;fill-rule:nonzero;fill:rgb(100%,100%,100%);fill-opacity:1;" d="M 52.847656 101.042969 C 51.1875 98.453125 50.316406 94.433594 50.101562 91.273438 C 49.886719 88.023438 50.601562 81.363281 52.566406 76.46875 C 53.089844 73.5 53.675781 70.914062 54.113281 68.40625 C 54.769531 64.671875 56.457031 61.867188 59.707031 60.226562 C 59.78125 60.769531 59.878906 61.386719 59.996094 62.054688 C 57.925781 65.171875 56.773438 73.886719 56.945312 76.816406 C 58.949219 82.714844 63.429688 88.269531 64.152344 94.835938 C 64.363281 96.765625 63.738281 98.601562 62.683594 100.230469 C 61.707031 101.742188 60.203125 102.550781 58.597656 103.300781 C 57.898438 103.625 57.066406 103.957031 56.394531 104.335938 C 55.886719 104.625 55.429688 105.03125 54.863281 105.160156 C 53.617188 105.445312 52.667969 104.234375 52.515625 103.125 C 52.394531 102.273438 52.570312 101.40625 53.488281 100.957031 C 54.726562 100.34375 55.945312 100.738281 57.265625 100.042969 C 58.5 99.390625 59.492188 99.109375 60.109375 96.917969 C 60.921875 94.023438 59.003906 90.453125 57.886719 87.828125 C 57.296875 86.449219 55.183594 81.554688 54.703125 80.703125 C 54.179688 82.835938 53.210938 88.503906 53.582031 91.132812 C 53.882812 93.292969 54.703125 97.453125 56.144531 99.855469 L 56.882812 101.269531 L 53.582031 102.40625 Z M 52.847656 101.042969 "/>
<path style=" stroke:none;fill-rule:nonzero;fill:rgb(62.7451%,62.7451%,62.7451%);fill-opacity:1;" d="M 61.554688 104.710938 C 61.582031 104.046875 61.226562 103.425781 60.640625 103.109375 L 59.71875 102.746094 C 59.355469 102.941406 58.980469 103.121094 58.601562 103.300781 C 58.085938 103.539062 57.496094 103.78125 56.953125 104.046875 C 57.160156 104.550781 57.425781 105.03125 57.746094 105.472656 C 58.050781 105.875 58.492188 106.152344 58.984375 106.246094 C 59.300781 106.28125 59.617188 106.253906 59.917969 106.160156 C 60.574219 106.042969 61.144531 105.640625 61.476562 105.066406 C 61.523438 104.953125 61.550781 104.832031 61.554688 104.710938 Z M 61.554688 104.710938 "/>
<path style=" stroke:none;fill-rule:nonzero;fill:rgb(62.7451%,62.7451%,62.7451%);fill-opacity:1;" d="M 52.652344 101.792969 C 52.824219 101.421875 53.121094 101.125 53.488281 100.957031 C 54.164062 100.679688 54.886719 100.523438 55.617188 100.503906 C 56.175781 101.6875 56.472656 102.976562 56.496094 104.285156 C 56.460938 104.300781 56.425781 104.316406 56.394531 104.335938 C 55.886719 104.625 55.429688 105.03125 54.863281 105.160156 C 53.617188 105.445312 52.667969 104.234375 52.515625 103.125 C 52.433594 102.675781 52.484375 102.214844 52.652344 101.792969 Z M 52.652344 101.792969 "/>
<path style=" stroke:none;fill-rule:nonzero;fill:rgb(12.941177%,9.019608%,8.235294%);fill-opacity:1;" d="M 62.273438 70.898438 C 64.976562 71.613281 67.742188 72.070312 70.53125 72.253906 C 73.195312 72.402344 75.867188 72.234375 78.492188 71.757812 C 79.972656 71.523438 81.425781 71.136719 82.824219 70.609375 C 83.308594 70.460938 83.589844 69.964844 83.46875 69.476562 C 83.332031 68.988281 82.824219 68.699219 82.335938 68.832031 C 79.902344 69.71875 77.347656 70.238281 74.761719 70.371094 C 72.238281 70.550781 69.699219 70.4375 67.199219 70.039062 C 65.707031 69.808594 64.226562 69.5 62.761719 69.117188 C 61.613281 68.8125 61.125 70.59375 62.273438 70.898438 Z M 62.273438 70.898438 "/>
<path style=" stroke:none;fill-rule:nonzero;fill:rgb(12.941177%,9.019608%,8.235294%);fill-opacity:1;" d="M 91.515625 32.511719 C 91.898438 32.199219 92.390625 32.054688 92.882812 32.113281 C 93.375 32.167969 93.820312 32.421875 94.121094 32.816406 C 94.390625 33.320312 94.515625 33.890625 94.484375 34.464844 C 94.515625 35.140625 94.476562 35.820312 94.367188 36.488281 C 93.957031 38.925781 92.6875 41.894531 89.976562 42.367188 C 89.488281 42.507812 89.199219 43.011719 89.332031 43.5 C 89.476562 43.984375 89.976562 44.269531 90.464844 44.144531 C 94.195312 43.496094 95.980469 39.261719 96.289062 35.894531 C 96.4375 34.265625 96.398438 32.226562 95.019531 31.101562 C 93.605469 29.960938 91.574219 30.003906 90.210938 31.207031 C 89.855469 31.570312 89.855469 32.148438 90.210938 32.511719 C 90.574219 32.859375 91.152344 32.859375 91.515625 32.511719 Z M 91.515625 32.511719 "/>
<path style=" stroke:none;fill-rule:nonzero;fill:rgb(12.941177%,9.019608%,8.235294%);fill-opacity:1;" d="M 89.269531 41.183594 C 89.226562 41.972656 89.082031 42.75 88.839844 43.5 C 88.75 43.792969 88.652344 44.089844 88.554688 44.382812 C 88.523438 44.472656 88.496094 44.558594 88.464844 44.652344 C 88.402344 44.832031 88.425781 44.742188 88.453125 44.691406 C 88.085938 45.476562 87.671875 46.234375 87.207031 46.964844 C 85.902344 49.128906 84.234375 51.050781 82.277344 52.652344 C 81.214844 53.523438 79.972656 54.152344 78.640625 54.488281 C 77.484375 54.757812 77.972656 56.535156 79.128906 56.269531 C 81.9375 55.621094 84.289062 53.601562 86.136719 51.480469 C 87.6875 49.765625 88.984375 47.835938 89.984375 45.753906 C 90.652344 44.316406 91.035156 42.769531 91.113281 41.1875 C 91.15625 40.003906 89.3125 40.003906 89.269531 41.1875 Z M 89.269531 41.183594 "/>
<path style=" stroke:none;fill-rule:nonzero;fill:rgb(12.941177%,9.019608%,8.235294%);fill-opacity:1;" d="M 54.128906 31.207031 C 52.765625 30.007812 50.734375 29.960938 49.320312 31.101562 C 47.945312 32.226562 47.902344 34.265625 48.054688 35.894531 C 48.363281 39.261719 50.144531 43.496094 53.875 44.144531 C 54.367188 44.265625 54.863281 43.984375 55.011719 43.5 C 55.140625 43.011719 54.855469 42.507812 54.367188 42.367188 C 51.652344 41.894531 50.386719 38.925781 49.972656 36.488281 C 49.867188 35.820312 49.828125 35.140625 49.859375 34.464844 C 49.828125 33.890625 49.953125 33.324219 50.222656 32.816406 C 50.523438 32.421875 50.96875 32.167969 51.460938 32.109375 C 51.949219 32.054688 52.445312 32.199219 52.824219 32.511719 C 53.191406 32.859375 53.765625 32.859375 54.128906 32.511719 C 54.484375 32.148438 54.484375 31.570312 54.128906 31.207031 Z M 54.128906 31.207031 "/>
<path style=" stroke:none;fill-rule:nonzero;fill:rgb(12.941177%,9.019608%,8.235294%);fill-opacity:1;" d="M 53.53125 41.933594 C 54.710938 47.511719 58.003906 52.945312 63.257812 55.527344 C 64.664062 56.21875 66.179688 56.652344 67.738281 56.808594 C 68.246094 56.804688 68.65625 56.394531 68.660156 55.886719 C 68.648438 55.382812 68.242188 54.976562 67.738281 54.964844 C 62.566406 54.429688 58.335938 49.957031 56.476562 45.339844 C 55.976562 44.078125 55.585938 42.773438 55.3125 41.445312 C 55.066406 40.285156 53.289062 40.773438 53.53125 41.933594 Z M 53.53125 41.933594 "/>
<path style=" stroke:none;fill-rule:nonzero;fill:rgb(12.941177%,9.019608%,8.235294%);fill-opacity:1;" d="M 79.367188 54.917969 C 79.34375 55.726562 79.371094 56.542969 79.449219 57.351562 C 79.488281 58.117188 79.710938 58.863281 80.097656 59.527344 C 81.007812 60.84375 82.480469 61.789062 83.78125 62.671875 C 84.21875 62.929688 84.785156 62.78125 85.042969 62.34375 C 85.300781 61.902344 85.152344 61.339844 84.710938 61.082031 C 84.089844 60.660156 83.476562 60.230469 82.894531 59.757812 C 82.640625 59.546875 82.390625 59.332031 82.15625 59.101562 C 82.054688 59.003906 81.953125 58.902344 81.855469 58.796875 C 81.808594 58.742188 81.761719 58.6875 81.714844 58.628906 C 81.621094 58.519531 81.816406 58.796875 81.6875 58.597656 C 81.632812 58.507812 81.578125 58.421875 81.53125 58.328125 C 81.480469 58.230469 81.582031 58.480469 81.53125 58.316406 C 81.503906 58.226562 81.472656 58.144531 81.445312 58.054688 C 81.363281 57.765625 81.304688 57.472656 81.273438 57.175781 C 81.210938 56.421875 81.191406 55.667969 81.214844 54.914062 C 81.21875 53.730469 79.375 53.726562 79.367188 54.914062 Z M 79.367188 54.917969 "/>
<path style=" stroke:none;fill-rule:nonzero;fill:rgb(12.941177%,9.019608%,8.235294%);fill-opacity:1;" d="M 63.378906 54.996094 C 63.398438 55.734375 63.375 56.472656 63.3125 57.207031 C 63.277344 57.515625 63.214844 57.820312 63.128906 58.117188 C 63.101562 58.203125 63.074219 58.285156 63.046875 58.367188 C 63.066406 58.308594 63.097656 58.28125 63.050781 58.351562 C 63.019531 58.402344 62.839844 58.667969 62.96875 58.503906 C 62.128906 59.566406 60.851562 60.289062 59.710938 61 C 59.273438 61.257812 59.125 61.820312 59.382812 62.261719 C 59.636719 62.699219 60.203125 62.847656 60.644531 62.589844 C 61.386719 62.128906 62.121094 61.648438 62.820312 61.113281 C 63.4375 60.675781 63.992188 60.152344 64.464844 59.558594 C 64.84375 58.957031 65.066406 58.269531 65.117188 57.558594 C 65.210938 56.707031 65.246094 55.851562 65.222656 54.996094 C 65.214844 53.808594 63.371094 53.808594 63.378906 54.996094 Z M 63.378906 54.996094 "/>
<path style=" stroke:none;fill-rule:nonzero;fill:rgb(12.941177%,9.019608%,8.235294%);fill-opacity:1;" d="M 37.746094 81.3125 C 38.207031 79.738281 38.675781 78.167969 39.203125 76.617188 C 39.792969 74.878906 40.332031 73.066406 41.441406 71.582031 C 42.519531 70.144531 43.957031 69.257812 45.558594 68.5 C 47.246094 67.699219 49 67.054688 50.746094 66.394531 C 52.785156 65.660156 54.78125 64.816406 56.730469 63.867188 C 57.789062 63.332031 56.855469 61.738281 55.800781 62.277344 C 52.296875 64.054688 48.488281 65.125 44.925781 66.769531 C 43.21875 67.558594 41.605469 68.496094 40.390625 69.964844 C 39.769531 70.691406 39.246094 71.496094 38.835938 72.355469 C 38.402344 73.300781 38.066406 74.292969 37.722656 75.273438 C 37.078125 77.101562 36.511719 78.960938 35.96875 80.820312 C 35.632812 81.964844 37.414062 82.449219 37.746094 81.3125 Z M 37.746094 81.3125 "/>
<path style=" stroke:none;fill-rule:nonzero;fill:rgb(12.941177%,9.019608%,8.235294%);fill-opacity:1;" d="M 88.683594 64.503906 C 90.898438 65.78125 93.21875 66.878906 95.523438 67.976562 C 97.886719 69.101562 100.277344 70.128906 102.359375 71.742188 C 105 73.785156 105.597656 77.300781 106.113281 80.398438 C 106.699219 83.914062 107.050781 87.5 107.363281 91.132812 C 107.785156 96.003906 108.101562 100.886719 108.386719 105.765625 C 108.761719 112.203125 109.085938 118.640625 109.410156 125.078125 C 109.46875 126.257812 111.3125 126.265625 111.253906 125.078125 C 110.703125 114.171875 110.214844 103.25 109.3125 92.367188 C 108.992188 88.484375 108.621094 84.601562 108.027344 80.753906 C 107.515625 77.425781 106.917969 73.910156 104.601562 71.304688 C 103.640625 70.324219 102.546875 69.484375 101.351562 68.8125 C 100.105469 68.101562 98.820312 67.457031 97.503906 66.882812 C 94.84375 65.621094 92.164062 64.382812 89.613281 62.910156 C 88.582031 62.320312 87.652344 63.910156 88.679688 64.503906 Z M 88.683594 64.503906 "/>
<path style=" stroke:none;fill-rule:nonzero;fill:rgb(12.941177%,9.019608%,8.235294%);fill-opacity:1;" d="M 98.667969 125.078125 C 98.398438 121.449219 98.03125 117.828125 97.714844 114.203125 C 97.496094 111.738281 97.148438 109.210938 97.355469 106.738281 C 97.839844 100.949219 99.183594 95.140625 100.171875 89.359375 C 100.898438 85.109375 101.433594 80.820312 102.273438 76.585938 C 102.394531 76.097656 102.109375 75.601562 101.628906 75.453125 C 101.136719 75.324219 100.632812 75.609375 100.492188 76.097656 C 99.753906 79.839844 99.257812 83.628906 98.640625 87.386719 C 98.148438 90.394531 97.546875 93.378906 97.023438 96.375 C 96.480469 99.488281 95.953125 102.609375 95.609375 105.75 C 95.347656 108.148438 95.554688 110.503906 95.757812 112.902344 C 96.101562 116.960938 96.523438 121.015625 96.820312 125.078125 C 96.832031 125.582031 97.238281 125.988281 97.746094 126 C 98.25 125.996094 98.660156 125.585938 98.667969 125.078125 Z M 98.667969 125.078125 "/>
<path style=" stroke:none;fill-rule:nonzero;fill:rgb(12.941177%,9.019608%,8.235294%);fill-opacity:1;" d="M 42.417969 76.789062 C 42.945312 80.882812 43.480469 84.976562 44.117188 89.054688 C 44.578125 92.007812 45.140625 94.945312 45.664062 97.890625 C 46.167969 100.75 46.695312 103.628906 46.972656 106.441406 C 47.203125 108.757812 46.917969 111.101562 46.71875 113.414062 C 46.382812 117.300781 45.980469 121.183594 45.695312 125.078125 C 45.699219 125.585938 46.109375 125.996094 46.617188 126 C 47.121094 125.988281 47.53125 125.582031 47.539062 125.078125 C 47.792969 121.605469 48.140625 118.140625 48.449219 114.671875 C 48.585938 113.152344 48.71875 111.632812 48.820312 110.109375 C 48.90625 109.136719 48.925781 108.164062 48.882812 107.1875 C 48.625 104.34375 48.21875 101.515625 47.671875 98.714844 C 47.199219 95.984375 46.671875 93.269531 46.214844 90.539062 C 45.457031 85.96875 44.851562 81.378906 44.265625 76.789062 C 44.25 76.285156 43.84375 75.882812 43.34375 75.867188 C 42.832031 75.871094 42.421875 76.28125 42.417969 76.789062 Z M 42.417969 76.789062 "/>
<path style=" stroke:none;fill-rule:nonzero;fill:rgb(12.941177%,9.019608%,8.235294%);fill-opacity:1;" d="M 62.863281 17.222656 C 63.734375 18.253906 64.992188 19.027344 66.105469 19.765625 C 67.914062 20.972656 69.789062 22.082031 71.679688 23.15625 C 75.941406 25.609375 80.34375 27.8125 84.863281 29.746094 C 86.5625 30.460938 88.347656 31.230469 90.179688 31.511719 C 90.671875 31.632812 91.167969 31.347656 91.316406 30.867188 C 91.445312 30.378906 91.160156 29.875 90.671875 29.734375 C 89.125 29.429688 87.617188 28.953125 86.179688 28.308594 C 85.226562 27.921875 84.320312 27.523438 83.300781 27.058594 C 82.214844 26.5625 81.140625 26.050781 80.074219 25.519531 C 75.824219 23.457031 71.699219 21.152344 67.710938 18.617188 C 66.917969 18.105469 66.136719 17.578125 65.382812 17.007812 C 65.347656 16.984375 65.316406 16.957031 65.28125 16.933594 C 65.144531 16.828125 65.386719 17.015625 65.296875 16.945312 C 65.230469 16.890625 65.160156 16.835938 65.09375 16.78125 C 64.96875 16.679688 64.847656 16.578125 64.726562 16.472656 C 64.527344 16.300781 64.339844 16.117188 64.164062 15.917969 C 63.804688 15.5625 63.222656 15.5625 62.863281 15.917969 C 62.511719 16.28125 62.511719 16.855469 62.863281 17.222656 Z M 62.863281 17.222656 "/>
<path style=" stroke:none;fill-rule:nonzero;fill:rgb(12.941177%,9.019608%,8.235294%);fill-opacity:1;" d="M 53.980469 32.117188 C 56.300781 30.945312 58.128906 29.0625 59.675781 27.003906 C 61.226562 24.996094 62.472656 22.773438 63.375 20.402344 C 63.753906 19.34375 64.046875 18.261719 64.261719 17.15625 C 64.382812 16.667969 64.101562 16.167969 63.617188 16.023438 C 63.125 15.894531 62.621094 16.179688 62.484375 16.667969 C 61.953125 19.3125 60.925781 21.835938 59.457031 24.097656 C 57.8125 26.660156 55.8125 29.125 53.046875 30.523438 C 51.988281 31.058594 52.921875 32.648438 53.976562 32.117188 Z M 53.980469 32.117188 "/>
<path style=" stroke:none;fill-rule:nonzero;fill:rgb(12.941177%,9.019608%,8.235294%);fill-opacity:1;" d="M 64.546875 16.382812 C 63.71875 15.441406 62.90625 14.488281 62.109375 13.523438 C 61.9375 13.351562 61.703125 13.253906 61.457031 13.253906 C 61.214844 13.253906 60.980469 13.351562 60.804688 13.523438 C 60.632812 13.695312 60.535156 13.933594 60.535156 14.175781 C 60.546875 14.417969 60.640625 14.648438 60.804688 14.828125 C 61.601562 15.792969 62.414062 16.746094 63.238281 17.6875 C 63.601562 18.042969 64.183594 18.042969 64.542969 17.6875 C 64.890625 17.324219 64.890625 16.75 64.542969 16.382812 Z M 64.546875 16.382812 "/>
<path style=" stroke:none;fill-rule:nonzero;fill:rgb(12.941177%,9.019608%,8.235294%);fill-opacity:1;" d="M 54.226562 45.035156 C 53.84375 46.53125 52.875 47.476562 51.640625 48.332031 C 50.253906 49.292969 48.847656 50.214844 47.941406 51.675781 C 46.199219 54.480469 46.480469 58.042969 47.515625 61.03125 C 48.066406 62.617188 48.769531 64.25 49.90625 65.507812 C 50.703125 66.394531 52.007812 65.085938 51.210938 64.207031 C 50.390625 63.296875 49.816406 61.984375 49.382812 60.792969 C 49.144531 60.136719 48.941406 59.472656 48.777344 58.792969 C 48.648438 58.332031 48.570312 57.859375 48.535156 57.382812 C 48.453125 55.71875 48.683594 53.894531 49.613281 52.476562 C 50.425781 51.238281 51.757812 50.511719 52.933594 49.667969 C 54.417969 48.605469 55.542969 47.328125 56.007812 45.523438 C 56.300781 44.371094 54.523438 43.882812 54.226562 45.03125 Z M 54.226562 45.035156 "/>
<path style=" stroke:none;fill-rule:nonzero;fill:rgb(12.941177%,9.019608%,8.235294%);fill-opacity:1;" d="M 82.011719 93.808594 C 80.789062 94.9375 79.542969 96.042969 78.265625 97.113281 C 77.910156 97.476562 77.910156 98.058594 78.265625 98.417969 C 78.632812 98.765625 79.207031 98.765625 79.570312 98.417969 C 80.847656 97.351562 82.089844 96.242188 83.316406 95.113281 C 83.671875 94.753906 83.671875 94.171875 83.316406 93.808594 C 82.953125 93.460938 82.378906 93.460938 82.011719 93.808594 Z M 82.011719 93.808594 "/>
<path style=" stroke:none;fill-rule:nonzero;fill:rgb(12.941177%,9.019608%,8.235294%);fill-opacity:1;" d="M 70.414062 107.183594 C 69.554688 107.960938 69.253906 109.1875 69.652344 110.277344 C 69.804688 110.730469 70.074219 111.132812 70.4375 111.441406 C 70.933594 111.832031 71.535156 112.066406 72.167969 112.109375 C 73.324219 112.226562 74.4375 111.605469 74.945312 110.558594 C 75.207031 109.972656 75.25 109.3125 75.066406 108.699219 C 74.90625 108.15625 74.613281 107.664062 74.214844 107.261719 C 73.703125 106.796875 73.042969 106.527344 72.351562 106.507812 C 71.640625 106.472656 70.949219 106.714844 70.414062 107.183594 C 70.058594 107.542969 70.058594 108.125 70.414062 108.484375 C 70.78125 108.835938 71.355469 108.835938 71.71875 108.484375 C 71.738281 108.46875 71.757812 108.453125 71.78125 108.4375 L 71.59375 108.578125 C 71.707031 108.492188 71.832031 108.417969 71.964844 108.363281 L 71.746094 108.457031 C 71.890625 108.398438 72.042969 108.355469 72.199219 108.335938 L 71.957031 108.367188 C 72.140625 108.34375 72.324219 108.34375 72.507812 108.367188 L 72.261719 108.332031 C 72.457031 108.359375 72.644531 108.410156 72.824219 108.484375 L 72.605469 108.394531 C 72.742188 108.453125 72.871094 108.527344 72.988281 108.617188 L 72.800781 108.472656 C 72.90625 108.558594 73 108.652344 73.082031 108.757812 L 72.9375 108.570312 C 73.082031 108.757812 73.203125 108.960938 73.296875 109.175781 L 73.203125 108.957031 C 73.277344 109.132812 73.332031 109.320312 73.359375 109.507812 L 73.328125 109.265625 C 73.34375 109.414062 73.34375 109.566406 73.328125 109.71875 L 73.359375 109.472656 C 73.339844 109.601562 73.304688 109.726562 73.257812 109.847656 L 73.351562 109.628906 C 73.292969 109.769531 73.214844 109.902344 73.121094 110.023438 L 73.265625 109.835938 C 73.164062 109.964844 73.046875 110.082031 72.917969 110.183594 L 73.105469 110.039062 C 72.996094 110.121094 72.875 110.191406 72.75 110.242188 L 72.96875 110.152344 C 72.800781 110.21875 72.628906 110.265625 72.449219 110.289062 L 72.691406 110.257812 C 72.480469 110.285156 72.265625 110.285156 72.054688 110.257812 L 72.300781 110.289062 C 72.113281 110.261719 71.929688 110.214844 71.753906 110.144531 L 71.976562 110.234375 C 71.828125 110.171875 71.6875 110.09375 71.554688 109.996094 L 71.742188 110.140625 C 71.632812 110.054688 71.535156 109.957031 71.449219 109.847656 L 71.59375 110.035156 C 71.5 109.914062 71.425781 109.78125 71.367188 109.640625 L 71.460938 109.859375 C 71.386719 109.679688 71.335938 109.492188 71.308594 109.300781 L 71.339844 109.542969 C 71.316406 109.367188 71.316406 109.191406 71.339844 109.015625 L 71.308594 109.257812 C 71.332031 109.097656 71.375 108.9375 71.4375 108.785156 L 71.34375 109.003906 C 71.40625 108.863281 71.484375 108.730469 71.578125 108.609375 L 71.433594 108.796875 C 71.519531 108.683594 71.617188 108.582031 71.722656 108.488281 C 72.078125 108.128906 72.078125 107.546875 71.722656 107.183594 C 71.359375 106.832031 70.78125 106.832031 70.414062 107.183594 Z M 70.414062 107.183594 "/>
<path style=" stroke:none;fill-rule:nonzero;fill:rgb(12.941177%,9.019608%,8.235294%);fill-opacity:1;" d="M 58.875 60.855469 C 59.5 65.167969 60.558594 69.402344 62.035156 73.503906 C 63.453125 77.417969 64.855469 81.339844 66.394531 85.210938 C 68.28125 89.863281 70.472656 94.386719 72.960938 98.75 C 74.214844 100.980469 75.589844 103.167969 76.675781 105.484375 C 77.171875 106.496094 77.597656 107.539062 77.945312 108.605469 C 78.027344 108.886719 78.09375 109.167969 78.144531 109.453125 C 78.234375 109.925781 78.257812 110.101562 78.304688 110.554688 C 78.519531 112.921875 78.601562 115.296875 78.546875 117.675781 C 78.527344 120.140625 78.453125 122.609375 78.378906 125.074219 C 78.347656 126.261719 80.191406 126.257812 80.222656 125.074219 C 80.351562 120.65625 80.558594 116.203125 80.257812 111.785156 C 80.203125 110.898438 80.101562 110.011719 79.957031 109.136719 C 79.796875 108.316406 79.546875 107.515625 79.21875 106.746094 C 78.210938 104.382812 77.042969 102.085938 75.722656 99.878906 C 73.171875 95.390625 70.707031 90.863281 68.726562 86.085938 C 67.09375 82.132812 65.652344 78.101562 64.199219 74.078125 C 63.492188 72.117188 62.796875 70.164062 62.265625 68.144531 C 61.582031 65.582031 61.042969 62.984375 60.652344 60.359375 C 60.511719 59.871094 60.007812 59.585938 59.515625 59.71875 C 59.035156 59.863281 58.75 60.363281 58.871094 60.851562 Z M 58.875 60.855469 "/>
<path style=" stroke:none;fill-rule:nonzero;fill:rgb(100%,100%,100%);fill-opacity:1;" d="M 90.835938 92.515625 C 89.886719 93.277344 88.644531 93.566406 87.457031 93.304688 C 86.960938 93.210938 86.488281 93.011719 86.078125 92.722656 C 84.273438 91.433594 84.113281 88.839844 84.589844 86.839844 C 84.765625 86.097656 85.605469 84.179688 87.613281 83.738281 C 88.746094 76.519531 88.015625 67.1875 85.027344 62.296875 L 84.347656 61.699219 C 84.402344 61.136719 84.449219 60.574219 84.488281 60.003906 C 87.507812 61.273438 89.5 63.539062 90.105469 65.761719 C 91.785156 71.75 91.96875 78.058594 90.632812 84.132812 C 92.449219 85.082031 92.984375 87.414062 92.609375 89.382812 C 92.402344 90.605469 91.773438 91.710938 90.835938 92.515625 Z M 90.835938 92.515625 "/>
<path style=" stroke:none;fill-rule:nonzero;fill:rgb(12.941177%,9.019608%,8.235294%);fill-opacity:1;" d="M 83.535156 60.4375 C 82.757812 70.367188 79.257812 79.6875 75.253906 88.714844 C 74.191406 91.105469 73.105469 93.484375 72.054688 95.878906 C 71.8125 96.320312 71.957031 96.871094 72.382812 97.140625 C 72.824219 97.390625 73.386719 97.246094 73.644531 96.808594 C 77.589844 87.847656 81.902344 78.980469 84.039062 69.367188 C 84.695312 66.425781 85.144531 63.441406 85.378906 60.4375 C 85.375 59.929688 84.964844 59.519531 84.457031 59.515625 C 83.953125 59.523438 83.546875 59.929688 83.535156 60.4375 Z M 83.535156 60.4375 "/>
<path style=" stroke:none;fill-rule:nonzero;fill:rgb(12.941177%,9.019608%,8.235294%);fill-opacity:1;" d="M 87.699219 92.414062 C 85.710938 91.996094 85.175781 89.992188 85.304688 88.199219 C 85.328125 87.808594 85.390625 87.421875 85.488281 87.046875 C 85.507812 86.96875 85.53125 86.890625 85.554688 86.816406 C 85.578125 86.753906 85.722656 86.414062 85.613281 86.652344 C 85.71875 86.410156 85.84375 86.179688 85.988281 85.957031 C 86.019531 85.90625 86.230469 85.617188 86.128906 85.75 C 86.242188 85.601562 86.367188 85.464844 86.503906 85.335938 C 86.9375 84.921875 87.496094 84.65625 88.089844 84.582031 C 88.953125 84.46875 89.828125 84.675781 90.550781 85.160156 C 91.824219 86.113281 92.003906 88.0625 91.640625 89.5 C 91.175781 91.332031 89.691406 92.761719 87.699219 92.414062 C 87.210938 92.292969 86.714844 92.574219 86.566406 93.058594 C 86.4375 93.546875 86.722656 94.050781 87.210938 94.191406 C 88.460938 94.457031 89.765625 94.25 90.875 93.613281 C 91.851562 92.992188 92.613281 92.089844 93.054688 91.019531 C 93.976562 88.886719 93.878906 86.171875 92.347656 84.339844 C 90.878906 82.585938 87.90625 82.203125 85.992188 83.414062 C 84.652344 84.300781 83.765625 85.726562 83.5625 87.320312 C 83.316406 88.660156 83.429688 90.035156 83.898438 91.3125 C 84.445312 92.769531 85.691406 93.851562 87.210938 94.191406 C 88.371094 94.4375 88.863281 92.660156 87.699219 92.414062 Z M 87.699219 92.414062 "/>
<path style=" stroke:none;fill-rule:nonzero;fill:rgb(12.941177%,9.019608%,8.235294%);fill-opacity:1;" d="M 62.386719 58.277344 C 59.5625 58.984375 57.003906 60.421875 55.304688 62.832031 C 53.539062 65.328125 53.214844 68.363281 52.632812 71.277344 C 52.445312 72.207031 52.257812 73.132812 52.078125 74.066406 C 51.933594 75.027344 51.710938 75.980469 51.414062 76.90625 C 50.84375 78.492188 50.394531 80.117188 50.0625 81.765625 C 49.402344 84.734375 49.097656 87.765625 49.15625 90.804688 C 49.234375 92.613281 49.492188 94.40625 49.929688 96.160156 C 50.34375 98.046875 51.0625 99.851562 52.050781 101.507812 C 52.683594 102.511719 54.28125 101.585938 53.644531 100.578125 C 51.980469 97.941406 51.285156 94.632812 51.046875 91.558594 C 50.894531 88.847656 51.085938 86.128906 51.609375 83.464844 C 51.890625 81.847656 52.273438 80.246094 52.757812 78.679688 C 53.0625 77.917969 53.316406 77.140625 53.519531 76.347656 C 53.691406 75.402344 53.871094 74.460938 54.058594 73.519531 C 54.398438 71.816406 54.726562 70.105469 55.050781 68.398438 C 55.261719 67.15625 55.664062 65.953125 56.238281 64.832031 C 57.617188 62.246094 60.0625 60.761719 62.875 60.058594 C 64.027344 59.769531 63.539062 57.992188 62.386719 58.28125 Z M 62.386719 58.277344 "/>
<path style=" stroke:none;fill-rule:nonzero;fill:rgb(12.941177%,9.019608%,8.235294%);fill-opacity:1;" d="M 56.941406 99.390625 C 55.570312 97.070312 55.003906 94.234375 54.578125 91.601562 C 54.492188 91.160156 54.445312 90.710938 54.429688 90.257812 C 54.410156 89.675781 54.425781 89.089844 54.460938 88.503906 C 54.535156 87.191406 54.691406 85.886719 54.894531 84.585938 C 55.082031 83.367188 55.300781 82.144531 55.589844 80.945312 L 53.90625 81.164062 C 54.867188 82.898438 55.582031 84.804688 56.371094 86.621094 C 57.390625 88.976562 58.652344 91.335938 59.203125 93.851562 C 59.496094 95.199219 59.46875 96.667969 58.722656 97.871094 C 58.609375 98.058594 58.46875 98.226562 58.304688 98.371094 C 58.136719 98.515625 57.953125 98.640625 57.761719 98.742188 C 57.277344 99.050781 56.753906 99.292969 56.207031 99.464844 C 55.386719 99.679688 54.519531 99.621094 53.707031 99.878906 C 52.921875 100.082031 52.253906 100.601562 51.863281 101.3125 C 51.242188 102.738281 51.605469 104.402344 52.765625 105.441406 C 53.367188 105.980469 54.179688 106.210938 54.976562 106.074219 C 55.816406 105.921875 56.464844 105.324219 57.207031 104.945312 C 58.628906 104.222656 60.152344 103.703125 61.460938 102.761719 C 62.816406 101.757812 63.859375 100.382812 64.457031 98.804688 C 65.089844 97.191406 65.25 95.429688 64.925781 93.730469 C 64.402344 90.484375 63.007812 87.453125 61.542969 84.542969 C 60.816406 83.097656 60.058594 81.664062 59.355469 80.207031 C 59.027344 79.519531 58.703125 78.824219 58.414062 78.121094 C 58.273438 77.769531 58.136719 77.417969 58.007812 77.066406 C 57.910156 76.875 57.855469 76.664062 57.851562 76.453125 C 57.851562 74.324219 58.054688 72.199219 58.457031 70.109375 C 58.671875 68.851562 58.933594 67.597656 59.265625 66.363281 C 59.417969 65.796875 59.585938 65.230469 59.78125 64.671875 C 59.929688 64.222656 60.109375 63.785156 60.316406 63.359375 C 60.5 62.972656 60.71875 62.605469 60.972656 62.257812 C 61.226562 61.820312 61.082031 61.257812 60.644531 60.996094 C 60.203125 60.753906 59.644531 60.898438 59.382812 61.328125 C 58.128906 63 57.589844 65.285156 57.136719 67.289062 C 56.601562 69.667969 56.242188 72.082031 56.074219 74.511719 C 56.011719 75.363281 55.84375 76.453125 56.128906 77.273438 C 56.660156 78.734375 57.273438 80.164062 57.96875 81.554688 C 59.347656 84.375 60.925781 87.113281 62.023438 90.066406 C 62.574219 91.503906 62.96875 93 63.195312 94.523438 C 63.402344 96.117188 63.078125 97.734375 62.273438 99.125 C 61.53125 100.402344 60.417969 101.421875 59.078125 102.042969 C 58.382812 102.402344 57.65625 102.710938 56.945312 103.035156 C 56.601562 103.191406 56.253906 103.351562 55.925781 103.539062 C 55.582031 103.785156 55.21875 104.007812 54.839844 104.203125 C 53.839844 104.609375 53.265625 103.152344 53.429688 102.367188 C 53.5625 101.738281 54.296875 101.59375 54.847656 101.507812 C 55.679688 101.378906 56.5 101.363281 57.292969 101.039062 C 58.351562 100.597656 59.429688 100.015625 60.125 99.078125 C 60.949219 97.863281 61.332031 96.402344 61.207031 94.9375 C 61.011719 92.066406 59.574219 89.441406 58.457031 86.84375 C 57.625 84.898438 56.792969 82.953125 55.894531 81.035156 C 55.765625 80.765625 55.640625 80.496094 55.496094 80.234375 C 55.304688 79.921875 54.945312 79.753906 54.582031 79.800781 C 54.21875 79.847656 53.917969 80.105469 53.8125 80.457031 C 53.21875 82.933594 52.832031 85.453125 52.648438 87.992188 C 52.539062 89.203125 52.566406 90.417969 52.726562 91.621094 C 52.921875 92.953125 53.1875 94.273438 53.527344 95.578125 C 53.910156 97.234375 54.523438 98.832031 55.347656 100.320312 C 55.949219 101.339844 57.542969 100.414062 56.9375 99.390625 Z M 56.941406 99.390625 "/>
<path style=" stroke:none;fill-rule:nonzero;fill:rgb(12.941177%,9.019608%,8.235294%);fill-opacity:1;" d="M 50.332031 92.351562 C 51.375 92.289062 52.417969 92.199219 53.460938 92.082031 C 53.703125 92.074219 53.9375 91.976562 54.113281 91.8125 C 54.472656 91.453125 54.472656 90.867188 54.113281 90.507812 C 53.941406 90.332031 53.707031 90.234375 53.460938 90.238281 C 52.421875 90.359375 51.375 90.449219 50.332031 90.511719 C 49.820312 90.511719 49.410156 90.925781 49.410156 91.433594 C 49.410156 91.941406 49.820312 92.355469 50.332031 92.355469 Z M 50.332031 92.351562 "/>
<path style=" stroke:none;fill-rule:nonzero;fill:rgb(12.941177%,9.019608%,8.235294%);fill-opacity:1;" d="M 59.566406 90.992188 L 59.695312 90.933594 L 59.476562 91.027344 C 60.25 90.703125 61.046875 90.445312 61.863281 90.257812 C 62.351562 90.117188 62.640625 89.613281 62.507812 89.125 C 62.363281 88.640625 61.863281 88.355469 61.375 88.480469 C 60.433594 88.703125 59.519531 89.011719 58.636719 89.398438 C 58.425781 89.519531 58.277344 89.71875 58.210938 89.949219 C 58.148438 90.191406 58.183594 90.445312 58.304688 90.660156 C 58.429688 90.867188 58.625 91.019531 58.855469 91.082031 L 59.101562 91.117188 C 59.265625 91.117188 59.425781 91.074219 59.566406 90.992188 Z M 59.566406 90.992188 "/>
<path style=" stroke:none;fill-rule:nonzero;fill:rgb(12.941177%,9.019608%,8.235294%);fill-opacity:1;" d="M 88.539062 83.75 C 88.992188 80.707031 89.140625 77.621094 88.980469 74.546875 C 88.867188 71.578125 88.386719 68.632812 87.542969 65.78125 C 87.132812 64.402344 86.554688 63.074219 85.824219 61.832031 C 85.210938 60.820312 83.613281 61.746094 84.230469 62.765625 C 85.511719 64.882812 86.167969 67.335938 86.605469 69.757812 C 87.339844 74.222656 87.394531 78.777344 86.761719 83.261719 C 86.644531 83.75 86.925781 84.246094 87.40625 84.398438 C 87.894531 84.527344 88.402344 84.242188 88.539062 83.75 Z M 88.539062 83.75 "/>
<path style=" stroke:none;fill-rule:nonzero;fill:rgb(12.941177%,9.019608%,8.235294%);fill-opacity:1;" d="M 91.5625 84.175781 C 92.882812 78 92.691406 71.597656 90.996094 65.515625 C 90.535156 63.980469 89.671875 62.59375 88.492188 61.507812 C 86.925781 60.0625 85.019531 59.035156 82.953125 58.519531 C 81.804688 58.21875 81.3125 59.996094 82.464844 60.296875 C 85.277344 61.035156 88.261719 62.914062 89.15625 65.796875 C 90.207031 69.324219 90.691406 73 90.582031 76.679688 C 90.523438 79.03125 90.253906 81.378906 89.785156 83.683594 C 89.664062 84.171875 89.945312 84.671875 90.429688 84.820312 C 90.917969 84.949219 91.421875 84.664062 91.5625 84.175781 Z M 91.5625 84.175781 "/>
<path style=" stroke:none;fill-rule:nonzero;fill:rgb(12.941177%,9.019608%,8.235294%);fill-opacity:1;" d="M 54.902344 101.140625 C 55.207031 101.882812 55.417969 102.65625 55.527344 103.449219 L 55.492188 103.203125 C 55.523438 103.445312 55.546875 103.683594 55.5625 103.925781 C 55.5625 104.433594 55.976562 104.847656 56.484375 104.847656 C 56.992188 104.847656 57.40625 104.433594 57.40625 103.925781 C 57.347656 102.800781 57.101562 101.695312 56.679688 100.652344 C 56.609375 100.421875 56.457031 100.230469 56.257812 100.101562 C 55.816406 99.84375 55.253906 99.992188 54.996094 100.429688 C 54.867188 100.644531 54.832031 100.902344 54.902344 101.140625 Z M 54.902344 101.140625 "/>
<path style=" stroke:none;fill-rule:nonzero;fill:rgb(12.941177%,9.019608%,8.235294%);fill-opacity:1;" d="M 60.253906 103.773438 C 60.316406 103.796875 60.371094 103.832031 60.433594 103.863281 C 60.566406 103.9375 60.339844 103.765625 60.441406 103.871094 C 60.488281 103.921875 60.539062 103.972656 60.585938 104.027344 C 60.460938 103.882812 60.570312 104.007812 60.597656 104.050781 C 60.636719 104.113281 60.667969 104.179688 60.703125 104.246094 C 60.785156 104.394531 60.671875 104.121094 60.714844 104.269531 C 60.734375 104.34375 60.757812 104.410156 60.773438 104.484375 C 60.816406 104.675781 60.796875 104.496094 60.78125 104.492188 C 60.800781 104.496094 60.789062 104.675781 60.789062 104.699219 C 60.792969 104.855469 60.832031 104.550781 60.789062 104.6875 C 60.726562 104.898438 60.878906 104.578125 60.78125 104.734375 C 60.75 104.792969 60.71875 104.847656 60.683594 104.902344 C 60.773438 104.757812 60.625 104.960938 60.59375 104.992188 C 60.554688 105.027344 60.445312 105.117188 60.550781 105.035156 C 60.414062 105.128906 60.273438 105.214844 60.125 105.285156 C 60.074219 105.308594 60.085938 105.304688 60.15625 105.273438 C 60.113281 105.292969 60.070312 105.308594 60.03125 105.324219 C 59.957031 105.347656 59.882812 105.371094 59.808594 105.394531 C 59.726562 105.417969 59.644531 105.4375 59.558594 105.457031 C 59.507812 105.46875 59.457031 105.480469 59.40625 105.488281 C 59.46875 105.480469 59.46875 105.480469 59.414062 105.488281 C 59.324219 105.496094 59.234375 105.496094 59.140625 105.496094 C 59.042969 105.488281 59.039062 105.488281 59.121094 105.496094 C 59.089844 105.488281 59.058594 105.480469 59.023438 105.472656 C 58.992188 105.464844 58.773438 105.375 58.921875 105.445312 C 58.851562 105.414062 58.78125 105.375 58.714844 105.332031 C 58.6875 105.3125 58.65625 105.292969 58.628906 105.273438 L 58.625 105.269531 C 58.5625 105.214844 58.503906 105.164062 58.449219 105.105469 C 58.394531 105.046875 58.339844 104.992188 58.289062 104.925781 C 58.359375 105.011719 58.21875 104.820312 58.203125 104.796875 C 58.003906 104.472656 57.828125 104.132812 57.675781 103.78125 C 57.460938 103.417969 56.992188 103.296875 56.625 103.507812 C 56.269531 103.730469 56.148438 104.191406 56.351562 104.558594 C 56.613281 105.25 57.027344 105.871094 57.5625 106.378906 C 57.859375 106.636719 58.207031 106.828125 58.582031 106.945312 C 59.011719 107.050781 59.460938 107.054688 59.890625 106.953125 C 60.59375 106.835938 61.242188 106.503906 61.75 106.007812 C 62.242188 105.492188 62.433594 104.761719 62.257812 104.074219 C 62.117188 103.375 61.664062 102.773438 61.03125 102.445312 C 60.664062 102.242188 60.203125 102.363281 59.980469 102.71875 C 59.769531 103.085938 59.894531 103.554688 60.253906 103.769531 Z M 60.253906 103.773438 "/>
<path style=" stroke:none;fill-rule:nonzero;fill:rgb(12.941177%,9.019608%,8.235294%);fill-opacity:1;" d="M 84.035156 20.015625 C 87.539062 22.707031 89.820312 26.6875 90.375 31.070312 C 90.390625 31.574219 90.792969 31.976562 91.296875 31.992188 C 91.804688 31.988281 92.214844 31.578125 92.21875 31.070312 C 91.671875 26.195312 89.195312 21.742188 85.339844 18.710938 C 84.972656 18.367188 84.402344 18.367188 84.035156 18.710938 C 83.679688 19.070312 83.679688 19.652344 84.035156 20.011719 Z M 84.035156 20.015625 "/>
<path style=" stroke:none;fill-rule:nonzero;fill:rgb(12.941177%,9.019608%,8.235294%);fill-opacity:1;" d="M 95.414062 31.921875 C 95.835938 29.226562 96.003906 26.5 95.917969 23.777344 C 95.78125 20.714844 95.171875 17.691406 94.105469 14.820312 C 93.078125 11.992188 91.644531 9.21875 89.539062 7.039062 C 87.898438 5.292969 86.011719 3.796875 83.9375 2.597656 C 81.824219 1.457031 79.523438 0.714844 77.144531 0.402344 C 73.945312 -0.101562 70.6875 -0.128906 67.476562 0.320312 C 58.617188 1.640625 51.371094 8.066406 49.003906 16.703125 C 48.195312 19.710938 47.941406 22.839844 48.257812 25.933594 C 48.335938 26.855469 48.460938 27.769531 48.632812 28.675781 C 48.773438 29.164062 49.277344 29.449219 49.769531 29.320312 C 50.253906 29.175781 50.535156 28.675781 50.414062 28.183594 C 49.289062 22.359375 50.222656 16.207031 53.496094 11.210938 C 56.390625 6.898438 60.78125 3.808594 65.820312 2.542969 C 68.847656 1.761719 71.980469 1.75 75.074219 2.007812 C 77.355469 2.152344 79.597656 2.671875 81.710938 3.542969 C 83.632812 4.4375 85.394531 5.632812 86.933594 7.089844 C 87.871094 7.914062 88.726562 8.832031 89.480469 9.828125 C 90.316406 10.996094 91.03125 12.242188 91.617188 13.550781 C 92.820312 16.242188 93.605469 19.105469 93.933594 22.035156 C 94.167969 24.582031 94.136719 27.144531 93.84375 29.683594 C 93.789062 30.269531 93.726562 30.851562 93.636719 31.429688 C 93.519531 31.917969 93.800781 32.417969 94.28125 32.5625 C 94.769531 32.695312 95.277344 32.410156 95.414062 31.921875 Z M 95.414062 31.921875 "/>
<path style=" stroke:none;fill-rule:nonzero;fill:rgb(12.941177%,9.019608%,8.235294%);fill-opacity:1;" d="M 48.636719 28.75 C 48.824219 29.738281 49.066406 30.714844 49.363281 31.679688 C 49.5 32.171875 50.007812 32.460938 50.496094 32.324219 C 50.988281 32.1875 51.277344 31.679688 51.140625 31.191406 C 50.847656 30.226562 50.605469 29.246094 50.414062 28.257812 C 50.351562 28.027344 50.199219 27.828125 49.992188 27.707031 C 49.554688 27.449219 48.988281 27.597656 48.730469 28.039062 C 48.617188 28.257812 48.585938 28.507812 48.636719 28.75 Z M 48.636719 28.75 "/>
<path style=" stroke:none;fill-rule:nonzero;fill:rgb(12.941177%,9.019608%,8.235294%);fill-opacity:1;" d="M 88.222656 89.9375 C 88.074219 89.910156 87.933594 89.851562 87.8125 89.765625 C 87.273438 89.378906 87.230469 88.613281 87.371094 88.015625 C 87.445312 87.679688 87.660156 87.390625 87.960938 87.21875 C 88.261719 87.050781 88.621094 87.015625 88.949219 87.128906 C 89.664062 87.324219 89.878906 88.117188 89.753906 88.773438 C 89.617188 89.480469 89.066406 90.097656 88.222656 89.9375 Z M 88.222656 89.9375 "/>
<path style=" stroke:none;fill-rule:nonzero;fill:rgb(100%,100%,100%);fill-opacity:1;" d="M 23.734375 77.875 L 23.328125 77.90625 C 23.378906 78.234375 23.503906 80.160156 23.632812 81.25 L 23.671875 81.746094 C 27.136719 81.753906 31.945312 81.085938 35.558594 80.40625 C 35.480469 80.058594 35.425781 79.8125 35.425781 79.8125 C 35.257812 78.910156 35.03125 77.25 34.898438 76.5625 C 32.046875 77.152344 25.578125 77.71875 23.734375 77.875 Z M 23.734375 77.875 "/>
<path style=" stroke:none;fill-rule:nonzero;fill:rgb(12.941177%,9.019608%,8.235294%);fill-opacity:1;" d="M 24.554688 81.25 C 24.417969 80.058594 24.386719 78.851562 24.21875 77.664062 L 23.328125 78.832031 C 25 78.691406 26.671875 78.539062 28.34375 78.367188 C 30.609375 78.132812 32.90625 77.910156 35.140625 77.449219 L 34.007812 76.808594 C 34.214844 77.886719 34.335938 78.976562 34.535156 80.058594 C 34.675781 80.546875 35.179688 80.832031 35.667969 80.703125 C 36.152344 80.558594 36.4375 80.058594 36.3125 79.566406 C 36.117188 78.488281 35.992188 77.394531 35.785156 76.316406 C 35.640625 75.832031 35.140625 75.546875 34.648438 75.671875 C 32.523438 76.066406 30.378906 76.355469 28.222656 76.535156 C 26.59375 76.703125 24.960938 76.847656 23.328125 76.988281 C 23.042969 76.996094 22.777344 77.132812 22.605469 77.359375 C 22.433594 77.585938 22.371094 77.878906 22.441406 78.15625 C 22.390625 77.792969 22.429688 78.105469 22.4375 78.183594 C 22.449219 78.300781 22.457031 78.417969 22.46875 78.539062 C 22.492188 78.8125 22.511719 79.085938 22.535156 79.355469 C 22.585938 79.988281 22.636719 80.621094 22.710938 81.25 C 22.726562 81.753906 23.128906 82.15625 23.632812 82.171875 C 24.140625 82.167969 24.550781 81.757812 24.554688 81.25 Z M 24.554688 81.25 "/>
<path style=" stroke:none;fill-rule:nonzero;fill:rgb(12.941177%,9.019608%,8.235294%);fill-opacity:1;" d="M 39.613281 97.117188 C 38.816406 91.484375 38.269531 85.824219 37.683594 80.167969 C 37.679688 79.882812 37.542969 79.617188 37.316406 79.445312 C 37.089844 79.269531 36.792969 79.210938 36.519531 79.28125 C 34.140625 79.761719 31.742188 80.15625 29.332031 80.4375 C 27.003906 80.765625 24.652344 80.878906 22.304688 80.777344 C 21.796875 80.78125 21.386719 81.191406 21.382812 81.699219 C 21.457031 85.652344 21.484375 89.613281 21.679688 93.5625 C 21.867188 97.3125 22.074219 101.167969 22.949219 104.832031 C 23.707031 107.996094 25.164062 111 27.828125 112.972656 C 30.859375 115.167969 34.726562 115.859375 38.332031 114.84375 C 41.839844 113.847656 44.835938 111.402344 47.761719 109.324219 C 48.1875 109.058594 48.332031 108.503906 48.089844 108.0625 C 47.832031 107.625 47.269531 107.476562 46.828125 107.730469 C 44.347656 109.496094 41.863281 111.492188 39.027344 112.660156 C 35.921875 113.9375 32.398438 113.652344 29.539062 111.898438 C 26.992188 110.363281 25.609375 107.695312 24.867188 104.902344 C 23.96875 101.523438 23.765625 97.941406 23.570312 94.464844 C 23.332031 90.214844 23.300781 85.957031 23.226562 81.699219 L 22.304688 82.621094 C 24.703125 82.722656 27.109375 82.605469 29.488281 82.265625 C 32.007812 81.964844 34.515625 81.5625 37.007812 81.058594 L 35.839844 80.167969 C 36.445312 85.988281 37.015625 91.808594 37.835938 97.605469 C 37.972656 98.09375 38.480469 98.382812 38.96875 98.25 C 39.453125 98.101562 39.734375 97.605469 39.613281 97.117188 Z M 39.613281 97.117188 "/>
<path style=" stroke:none;fill-rule:nonzero;fill:rgb(12.941177%,9.019608%,8.235294%);fill-opacity:1;" d="M 22.941406 75.082031 C 23.003906 75.835938 23.082031 76.585938 23.09375 77.34375 C 23.097656 77.589844 23.195312 77.824219 23.363281 78 C 23.628906 78.261719 24.023438 78.34375 24.371094 78.199219 C 24.714844 78.054688 24.9375 77.71875 24.9375 77.34375 C 24.925781 76.585938 24.851562 75.835938 24.785156 75.082031 C 24.777344 74.839844 24.683594 74.605469 24.515625 74.429688 C 24.15625 74.070312 23.570312 74.070312 23.210938 74.429688 C 23.039062 74.601562 22.941406 74.835938 22.941406 75.082031 Z M 22.941406 75.082031 "/>
<path style=" stroke:none;fill-rule:nonzero;fill:rgb(12.941177%,9.019608%,8.235294%);fill-opacity:1;" d="M 32.886719 73.773438 C 32.875 74.363281 32.824219 74.949219 32.738281 75.53125 L 32.769531 75.289062 C 32.738281 75.535156 32.699219 75.785156 32.648438 76.03125 C 32.585938 76.269531 32.621094 76.523438 32.742188 76.738281 C 32.929688 77.058594 33.289062 77.238281 33.65625 77.1875 C 34.023438 77.140625 34.328125 76.878906 34.425781 76.519531 C 34.523438 76.03125 34.59375 75.539062 34.640625 75.046875 C 34.695312 74.625 34.722656 74.199219 34.730469 73.773438 C 34.730469 73.261719 34.320312 72.851562 33.808594 72.851562 C 33.300781 72.851562 32.886719 73.261719 32.886719 73.773438 Z M 32.886719 73.773438 "/>
<path style=" stroke:none;fill-rule:nonzero;fill:rgb(12.941177%,9.019608%,8.235294%);fill-opacity:1;" d="M 28.25 58.792969 C 27.128906 56.386719 25.957031 54.003906 24.738281 51.640625 C 24.375 50.867188 23.96875 50.117188 23.519531 49.390625 C 22.585938 47.992188 20.636719 47.589844 19.523438 49.035156 C 19.03125 49.652344 18.835938 50.457031 18.980469 51.238281 C 19.152344 51.992188 19.390625 52.734375 19.699219 53.445312 C 19.847656 53.925781 20.347656 54.207031 20.835938 54.085938 C 21.324219 53.949219 21.609375 53.445312 21.480469 52.953125 C 21.246094 52.386719 21.046875 51.804688 20.875 51.214844 C 20.847656 51.109375 20.816406 51 20.792969 50.886719 C 20.761719 50.761719 20.78125 50.585938 20.761719 50.769531 C 20.769531 50.59375 20.816406 50.421875 20.90625 50.265625 C 21.371094 49.476562 21.949219 50.332031 22.207031 50.796875 C 23.207031 52.585938 24.105469 54.441406 25.007812 56.28125 C 25.566406 57.425781 26.121094 58.570312 26.660156 59.726562 C 26.917969 60.160156 27.480469 60.308594 27.921875 60.054688 C 28.351562 59.792969 28.496094 59.234375 28.25 58.792969 Z M 28.25 58.792969 "/>
<path style=" stroke:none;fill-rule:nonzero;fill:rgb(12.941177%,9.019608%,8.235294%);fill-opacity:1;" d="M 24.824219 60.484375 C 24.085938 58.640625 23.304688 56.804688 22.460938 55.007812 C 22.1875 54.382812 21.871094 53.777344 21.519531 53.191406 C 20.832031 52.125 20.136719 51.089844 18.738281 51.0625 C 17.164062 51.027344 16.3125 52.445312 16.523438 53.894531 C 16.683594 54.675781 16.945312 55.429688 17.308594 56.140625 C 17.980469 57.65625 18.65625 59.167969 19.328125 60.683594 C 19.800781 61.753906 20.261719 62.828125 20.726562 63.902344 C 20.984375 64.339844 21.546875 64.488281 21.988281 64.234375 C 22.417969 63.96875 22.5625 63.414062 22.316406 62.972656 C 21.398438 60.851562 20.472656 58.738281 19.53125 56.628906 C 19.261719 56.023438 18.992188 55.421875 18.730469 54.816406 C 18.695312 54.734375 18.65625 54.652344 18.621094 54.570312 C 18.609375 54.542969 18.558594 54.410156 18.617188 54.558594 C 18.582031 54.46875 18.546875 54.378906 18.515625 54.289062 C 18.402344 53.96875 18.113281 53.238281 18.46875 52.957031 C 18.671875 52.84375 18.925781 52.863281 19.109375 53.011719 C 19.445312 53.328125 19.722656 53.707031 19.925781 54.125 C 20.242188 54.640625 20.523438 55.179688 20.773438 55.734375 C 21.589844 57.453125 22.339844 59.207031 23.046875 60.976562 C 23.191406 61.457031 23.691406 61.738281 24.179688 61.621094 C 24.667969 61.480469 24.957031 60.976562 24.824219 60.484375 Z M 24.824219 60.484375 "/>
<path style=" stroke:none;fill-rule:nonzero;fill:rgb(12.941177%,9.019608%,8.235294%);fill-opacity:1;" d="M 22.664062 63.644531 C 22 62.648438 21.3125 61.667969 20.644531 60.671875 C 20.308594 60.171875 19.980469 59.664062 19.664062 59.152344 C 19.421875 58.703125 19.125 58.292969 18.78125 57.917969 C 18.027344 57.195312 16.789062 56.886719 15.871094 57.496094 C 14.945312 58.203125 14.535156 59.402344 14.839844 60.53125 C 15.148438 61.652344 15.894531 62.707031 16.457031 63.714844 C 17.035156 64.746094 17.621094 65.773438 18.191406 66.808594 C 18.699219 67.730469 19.167969 68.667969 19.703125 69.574219 C 20.144531 70.324219 20.582031 71.078125 21.011719 71.832031 C 21.464844 72.625 21.910156 73.421875 22.335938 74.226562 C 22.496094 74.523438 22.648438 74.820312 22.796875 75.125 C 22.824219 75.1875 22.855469 75.253906 22.882812 75.316406 C 22.964844 75.484375 22.828125 75.140625 22.882812 75.308594 C 22.902344 75.378906 22.933594 75.445312 22.949219 75.519531 C 23.191406 76.683594 24.96875 76.191406 24.726562 75.03125 C 24.613281 74.636719 24.453125 74.257812 24.242188 73.902344 C 23.949219 73.316406 23.632812 72.738281 23.3125 72.164062 C 22.574219 70.828125 21.808594 69.507812 21.03125 68.195312 C 20.523438 67.34375 20.09375 66.4375 19.613281 65.566406 C 19.097656 64.636719 18.566406 63.714844 18.050781 62.785156 C 17.796875 62.332031 17.550781 61.875 17.300781 61.421875 C 17.015625 60.992188 16.789062 60.527344 16.617188 60.039062 C 16.5 59.585938 16.699219 58.8125 17.269531 59.085938 C 17.636719 59.257812 17.824219 59.675781 18.023438 60.003906 C 18.339844 60.515625 18.667969 61.023438 19.003906 61.527344 C 19.683594 62.546875 20.390625 63.554688 21.074219 64.574219 C 21.730469 65.558594 23.328125 64.632812 22.667969 63.644531 Z M 22.664062 63.644531 "/>
<path style=" stroke:none;fill-rule:nonzero;fill:rgb(12.941177%,9.019608%,8.235294%);fill-opacity:1;" d="M 33.710938 74.429688 C 35.070312 73.363281 36.449219 72.261719 37.21875 70.664062 C 38.0625 68.90625 38.453125 66.984375 38.894531 65.097656 C 39.101562 64.21875 39.292969 63.332031 39.414062 62.4375 C 39.535156 61.570312 39.632812 60.675781 39.148438 59.894531 C 38.65625 59.089844 37.769531 58.957031 36.902344 59.085938 C 36.050781 59.214844 35.539062 59.882812 35.125 60.585938 C 34.65625 61.382812 34.308594 62.242188 33.832031 63.035156 C 33.53125 63.535156 33.167969 64.199219 32.523438 64.171875 C 31.921875 64.144531 31.742188 63.503906 31.671875 63 C 31.574219 62.328125 31.535156 61.480469 32.003906 60.933594 C 32.472656 60.382812 32.78125 60.5625 33.398438 60.734375 C 34.125 60.9375 34.871094 61.136719 35.609375 60.871094 C 37.015625 60.367188 37.855469 58.300781 36.601562 57.199219 C 35.960938 56.640625 35.148438 56.328125 34.414062 55.917969 C 33.425781 55.363281 32.480469 54.929688 31.328125 55.117188 C 30.277344 55.328125 29.324219 55.859375 28.589844 56.636719 C 27.894531 57.320312 27.277344 58.074219 26.738281 58.886719 C 26.09375 59.886719 27.691406 60.8125 28.328125 59.816406 C 28.746094 59.207031 29.214844 58.636719 29.734375 58.113281 C 30.230469 57.515625 30.90625 57.097656 31.664062 56.921875 C 32.441406 56.789062 33.117188 57.316406 33.765625 57.667969 C 34.300781 57.898438 34.8125 58.179688 35.300781 58.503906 C 35.511719 58.679688 35.347656 58.636719 35.375 58.53125 C 35.425781 58.34375 35.34375 58.761719 35.367188 58.621094 C 35.34375 58.785156 35.269531 58.9375 35.148438 59.050781 C 35.023438 59.140625 34.867188 59.179688 34.710938 59.160156 C 34.367188 59.097656 34.03125 59.011719 33.699219 58.902344 C 33.027344 58.65625 32.285156 58.675781 31.628906 58.957031 C 30.910156 59.300781 30.351562 59.90625 30.0625 60.648438 C 29.519531 61.972656 29.660156 64.082031 30.648438 65.179688 C 31.789062 66.445312 33.730469 66.160156 34.742188 64.921875 C 35.261719 64.257812 35.699219 63.539062 36.054688 62.773438 C 36.253906 62.375 36.453125 61.972656 36.675781 61.585938 C 36.765625 61.414062 36.867188 61.253906 36.980469 61.097656 C 37.015625 61.054688 37.273438 60.828125 37.089844 60.921875 C 37.246094 60.839844 37.496094 60.902344 37.613281 60.882812 C 37.847656 60.839844 37.578125 60.941406 37.546875 60.8125 C 37.554688 60.847656 37.617188 60.894531 37.625 60.933594 C 37.640625 61.039062 37.679688 61.140625 37.6875 61.238281 C 37.683594 61.996094 37.574219 62.753906 37.371094 63.484375 C 37.023438 65.445312 36.507812 67.371094 35.835938 69.246094 C 35.164062 70.953125 33.808594 72.027344 32.40625 73.128906 C 32.046875 73.488281 32.046875 74.070312 32.40625 74.429688 C 32.769531 74.777344 33.34375 74.777344 33.710938 74.429688 Z M 33.710938 74.429688 "/>
<path style=" stroke:none;fill-rule:nonzero;fill:rgb(12.941177%,9.019608%,8.235294%);fill-opacity:1;" d="M 70.976562 33.914062 C 71.140625 33.871094 71.300781 33.835938 71.464844 33.804688 C 71.535156 33.792969 71.605469 33.78125 71.675781 33.769531 C 71.917969 33.734375 71.472656 33.789062 71.714844 33.769531 C 72.023438 33.738281 72.328125 33.722656 72.636719 33.726562 C 72.78125 33.726562 72.921875 33.734375 73.0625 33.746094 C 73.148438 33.75 73.230469 33.757812 73.3125 33.769531 C 73.347656 33.773438 73.382812 33.777344 73.417969 33.78125 C 73.292969 33.761719 73.28125 33.761719 73.386719 33.777344 C 73.691406 33.828125 73.992188 33.894531 74.292969 33.980469 C 74.78125 34.113281 75.289062 33.824219 75.425781 33.335938 C 75.5625 32.84375 75.273438 32.335938 74.78125 32.199219 C 73.378906 31.804688 71.898438 31.78125 70.488281 32.132812 C 70 32.273438 69.710938 32.777344 69.84375 33.269531 C 69.988281 33.753906 70.488281 34.039062 70.976562 33.914062 Z M 70.976562 33.914062 "/>
<path style=" stroke:none;fill-rule:nonzero;fill:rgb(12.941177%,9.019608%,8.235294%);fill-opacity:1;" d="M 87.933594 32.464844 C 88.046875 32.441406 88.164062 32.425781 88.277344 32.410156 L 88.03125 32.441406 C 88.460938 32.386719 88.894531 32.371094 89.324219 32.402344 C 89.699219 32.402344 90.035156 32.175781 90.179688 31.832031 C 90.320312 31.488281 90.242188 31.089844 89.976562 30.824219 L 89.792969 30.679688 C 89.648438 30.597656 89.488281 30.554688 89.324219 30.554688 C 88.695312 30.519531 88.0625 30.5625 87.445312 30.683594 C 87.210938 30.75 87.015625 30.898438 86.890625 31.105469 C 86.769531 31.320312 86.734375 31.578125 86.800781 31.816406 C 86.863281 32.046875 87.015625 32.246094 87.222656 32.367188 L 87.441406 32.460938 C 87.601562 32.503906 87.773438 32.503906 87.933594 32.460938 Z M 87.933594 32.464844 "/>
<path style=" stroke:none;fill-rule:nonzero;fill:rgb(12.941177%,9.019608%,8.235294%);fill-opacity:1;" d="M 58.269531 30.683594 C 57.648438 30.5625 57.015625 30.519531 56.386719 30.554688 C 56.144531 30.558594 55.910156 30.65625 55.734375 30.824219 C 55.375 31.183594 55.375 31.769531 55.734375 32.128906 C 55.90625 32.300781 56.140625 32.398438 56.386719 32.398438 C 56.816406 32.367188 57.25 32.382812 57.679688 32.4375 L 57.433594 32.40625 C 57.546875 32.421875 57.664062 32.4375 57.777344 32.460938 C 58.015625 32.519531 58.269531 32.484375 58.488281 32.367188 C 58.925781 32.109375 59.074219 31.542969 58.820312 31.105469 C 58.699219 30.898438 58.5 30.746094 58.269531 30.683594 Z M 58.269531 30.683594 "/>
<path style=" stroke:none;fill-rule:nonzero;fill:rgb(12.941177%,9.019608%,8.235294%);fill-opacity:1;" d="M 71.429688 31.988281 C 71.351562 31.242188 70.972656 30.554688 70.382812 30.09375 C 69.730469 29.691406 69 29.429688 68.238281 29.328125 C 66.644531 29.007812 65.011719 28.902344 63.386719 29.019531 C 61.863281 29.125 60.179688 29.339844 58.789062 30.007812 C 57.371094 30.695312 57.09375 32.078125 57.050781 33.515625 C 57.011719 34.785156 57.0625 36.105469 57.601562 37.273438 C 58.21875 38.609375 59.628906 39.203125 60.988281 39.507812 C 62.480469 39.800781 64.007812 39.894531 65.527344 39.789062 C 66.917969 39.734375 68.46875 39.75 69.65625 38.910156 C 71.800781 37.394531 71.789062 34.320312 71.429688 31.988281 C 71.289062 31.5 70.785156 31.214844 70.292969 31.347656 C 69.8125 31.492188 69.527344 31.992188 69.652344 32.480469 C 69.855469 33.8125 69.933594 35.835938 69.054688 36.972656 C 68.492188 37.703125 67.515625 37.847656 66.609375 37.894531 C 65.402344 37.980469 64.195312 37.996094 62.984375 37.941406 C 61.929688 37.871094 60.566406 37.714844 59.703125 37.042969 C 59.039062 36.527344 58.9375 35.515625 58.898438 34.738281 C 58.875 34.269531 58.882812 33.796875 58.902344 33.328125 C 58.917969 32.90625 58.890625 32.375 59.152344 32.011719 C 59.445312 31.605469 60.035156 31.480469 60.484375 31.355469 C 61.113281 31.179688 61.75 31.050781 62.394531 30.960938 C 63.804688 30.777344 65.230469 30.765625 66.644531 30.929688 C 67.347656 31.007812 68.046875 31.148438 68.726562 31.347656 C 68.960938 31.390625 69.183594 31.492188 69.371094 31.636719 C 69.546875 31.882812 69.644531 32.179688 69.648438 32.480469 C 69.789062 32.96875 70.292969 33.257812 70.785156 33.125 C 71.269531 32.980469 71.554688 32.480469 71.429688 31.988281 Z M 71.429688 31.988281 "/>
<path style=" stroke:none;fill-rule:nonzero;fill:rgb(12.941177%,9.019608%,8.235294%);fill-opacity:1;" d="M 75.8125 32.480469 C 75.890625 31.992188 75.945312 31.632812 76.429688 31.441406 C 77.054688 31.222656 77.703125 31.070312 78.359375 30.992188 C 79.664062 30.800781 80.984375 30.761719 82.296875 30.878906 C 83.5 30.925781 84.683594 31.167969 85.808594 31.601562 C 86.757812 32.03125 86.644531 33.085938 86.652344 33.980469 C 86.660156 34.855469 86.667969 35.921875 86.164062 36.683594 C 85.617188 37.507812 84.277344 37.726562 83.378906 37.859375 C 82.191406 37.996094 80.992188 38.019531 79.800781 37.933594 C 78.832031 37.898438 77.585938 37.949219 76.804688 37.359375 C 75.464844 36.347656 75.589844 33.914062 75.8125 32.476562 C 75.929688 31.988281 75.648438 31.492188 75.167969 31.34375 C 74.679688 31.210938 74.171875 31.5 74.035156 31.988281 C 73.707031 34.101562 73.667969 36.660156 75.183594 38.359375 C 76.113281 39.402344 77.542969 39.671875 78.878906 39.742188 C 80.34375 39.859375 81.820312 39.851562 83.285156 39.714844 C 84.683594 39.546875 86.410156 39.214844 87.390625 38.101562 C 88.261719 37.113281 88.460938 35.734375 88.492188 34.460938 C 88.523438 33.164062 88.574219 31.589844 87.585938 30.605469 C 86.527344 29.554688 84.710938 29.332031 83.304688 29.144531 C 81.5 28.90625 79.667969 28.929688 77.871094 29.214844 C 77.011719 29.3125 76.175781 29.542969 75.390625 29.902344 C 74.625 30.335938 74.121094 31.113281 74.035156 31.988281 C 73.914062 32.476562 74.195312 32.972656 74.675781 33.121094 C 75.167969 33.253906 75.671875 32.96875 75.8125 32.480469 Z M 75.8125 32.480469 "/>
<path style=" stroke:none;fill-rule:nonzero;fill:rgb(12.941177%,9.019608%,8.235294%);fill-opacity:1;" d="M 69.152344 46.886719 C 70.261719 47.460938 71.496094 47.746094 72.742188 47.71875 C 74.035156 47.773438 75.308594 47.398438 76.363281 46.652344 C 76.722656 46.292969 76.722656 45.710938 76.363281 45.347656 C 76 45 75.425781 45 75.0625 45.347656 C 75.339844 45.132812 75.121094 45.300781 75.046875 45.34375 C 74.976562 45.390625 74.902344 45.433594 74.828125 45.472656 C 74.761719 45.507812 74.492188 45.617188 74.742188 45.523438 C 74.640625 45.5625 74.539062 45.597656 74.433594 45.632812 C 74.152344 45.722656 73.867188 45.789062 73.574219 45.832031 C 73.710938 45.808594 73.542969 45.832031 73.492188 45.835938 C 73.40625 45.847656 73.320312 45.851562 73.238281 45.859375 C 73.035156 45.871094 72.832031 45.875 72.628906 45.875 C 72.445312 45.875 72.261719 45.867188 72.082031 45.855469 C 71.996094 45.851562 71.914062 45.84375 71.828125 45.835938 C 71.824219 45.835938 71.523438 45.792969 71.707031 45.820312 C 71.433594 45.78125 71.167969 45.71875 70.902344 45.644531 C 70.792969 45.609375 70.683594 45.570312 70.570312 45.53125 C 70.335938 45.449219 70.703125 45.601562 70.488281 45.5 C 70.351562 45.433594 70.214844 45.367188 70.082031 45.296875 C 69.640625 45.050781 69.085938 45.195312 68.820312 45.625 C 68.570312 46.066406 68.714844 46.628906 69.152344 46.886719 Z M 69.152344 46.886719 "/>
<path style=" stroke:none;fill-rule:nonzero;fill:rgb(12.941177%,9.019608%,8.235294%);fill-opacity:1;" d="M 72.28125 38.421875 C 72.445312 39.019531 72.578125 39.625 72.675781 40.238281 L 72.644531 39.992188 C 72.65625 40.074219 72.660156 40.160156 72.652344 40.242188 L 72.683594 40 C 72.679688 40.035156 72.667969 40.074219 72.65625 40.113281 L 72.75 39.890625 C 72.738281 39.917969 72.726562 39.941406 72.710938 39.964844 L 72.855469 39.777344 C 72.839844 39.796875 72.816406 39.820312 72.796875 39.835938 L 72.984375 39.691406 C 72.9375 39.71875 72.886719 39.746094 72.839844 39.769531 L 73.058594 39.675781 C 72.980469 39.707031 72.898438 39.734375 72.816406 39.746094 L 73.0625 39.714844 C 72.984375 39.722656 72.910156 39.722656 72.832031 39.714844 L 73.078125 39.746094 C 72.992188 39.734375 72.910156 39.714844 72.824219 39.703125 C 72.703125 39.664062 72.578125 39.660156 72.457031 39.6875 C 72.332031 39.691406 72.214844 39.730469 72.113281 39.796875 C 71.671875 40.050781 71.523438 40.617188 71.78125 41.058594 C 71.898438 41.265625 72.097656 41.417969 72.332031 41.480469 C 72.527344 41.503906 72.714844 41.554688 72.914062 41.5625 C 73.210938 41.566406 73.503906 41.496094 73.769531 41.359375 C 74.109375 41.207031 74.359375 40.90625 74.453125 40.546875 C 74.515625 40.257812 74.511719 39.957031 74.445312 39.671875 C 74.347656 39.085938 74.210938 38.503906 74.0625 37.929688 C 73.925781 37.4375 73.417969 37.152344 72.925781 37.285156 C 72.433594 37.421875 72.148438 37.929688 72.28125 38.421875 Z M 72.28125 38.421875 "/>
<path style=" stroke:none;fill-rule:nonzero;fill:rgb(12.941177%,9.019608%,8.235294%);fill-opacity:1;" d="M 62.734375 33.3125 C 62.445312 34.261719 62.632812 36.4375 64.429688 36.625 C 66.800781 36.609375 66.925781 33.976562 66.128906 32.738281 C 65.472656 31.722656 63.550781 31.300781 62.734375 33.3125 Z M 62.734375 33.3125 "/>
<path style=" stroke:none;fill-rule:nonzero;fill:rgb(12.941177%,9.019608%,8.235294%);fill-opacity:1;" d="M 82.363281 33.3125 C 82.65625 34.261719 82.464844 36.4375 80.671875 36.625 C 78.296875 36.609375 78.171875 33.976562 78.96875 32.738281 C 79.625 31.722656 81.546875 31.300781 82.363281 33.3125 Z M 82.363281 33.3125 "/>
</g>
</svg>
